<?xml version="1.0" encoding="UTF-8" standalone="no"?>
<svg
   xmlns:dc="http://purl.org/dc/elements/1.1/"
   xmlns:cc="http://creativecommons.org/ns#"
   xmlns:rdf="http://www.w3.org/1999/02/22-rdf-syntax-ns#"
   xmlns:svg="http://www.w3.org/2000/svg"
   xmlns="http://www.w3.org/2000/svg"
   xmlns:sodipodi="http://sodipodi.sourceforge.net/DTD/sodipodi-0.dtd"
   xmlns:inkscape="http://www.inkscape.org/namespaces/inkscape"
   version="1.1"
   viewBox="0.0 0.0 960.0 540.0"
   fill="none"
   stroke="none"
   stroke-linecap="square"
   stroke-miterlimit="10"
   id="svg83"
   sodipodi:docname="any.svg"
   inkscape:version="0.92.2 (5c3e80d, 2017-08-06)">
  <metadata
     id="metadata89">
    <rdf:RDF>
      <cc:Work
         rdf:about="">
        <dc:format>image/svg+xml</dc:format>
        <dc:type
           rdf:resource="http://purl.org/dc/dcmitype/StillImage" />
        <dc:title></dc:title>
      </cc:Work>
    </rdf:RDF>
  </metadata>
  <defs
     id="defs87" />
  <sodipodi:namedview
     pagecolor="#000000"
     bordercolor="#666666"
     borderopacity="1"
     objecttolerance="10"
     gridtolerance="10"
     guidetolerance="10"
     inkscape:pageopacity="0"
     inkscape:pageshadow="2"
     inkscape:window-width="3840"
     inkscape:window-height="2087"
     id="namedview85"
     showgrid="false"
     inkscape:zoom="1.979899"
     inkscape:cx="321.13408"
     inkscape:cy="297.0415"
     inkscape:window-x="0"
     inkscape:window-y="73"
     inkscape:window-maximized="0"
     inkscape:current-layer="layer2" />
  <clipPath
     id="g131f2da0398_0_445.0">
    <path
       d="m0 0l960.0 0l0 540.0l-960.0 0l0 -540.0z"
       clip-rule="nonzero"
       id="path2" />
  </clipPath>
  <g
     inkscape:groupmode="layer"
     id="layer1"
     inkscape:label="Background"
     style="display:inline">
    <path
       style="fill:#212121;fill-rule:evenodd"
       inkscape:connector-curvature="0"
       id="path5"
       d="M 0,0 H 960 V 540 H 0 Z" />
    <path
       style="fill:#303030;fill-rule:evenodd"
       inkscape:connector-curvature="0"
       id="path7"
       d="M 480,0.00262467 H 960 V 540.00262 H 480 Z" />
  </g>
  <g
     inkscape:groupmode="layer"
     id="layer2"
     inkscape:label="Content">
    <path
       style="display:inline;fill:#000000;fill-opacity:0;fill-rule:evenodd"
       inkscape:connector-curvature="0"
       id="path9"
       d="M 27.874016,129.4672 H 452.56692 V 285.08924 H 27.874016 Z" />
    <path
       style="display:inline;fill:#ffffff;fill-rule:nonzero"
       inkscape:connector-curvature="0"
       id="path11"
       d="m 198.39429,227.14925 h -12.79688 v 35.49998 h -5.21875 v -35.49998 h -12.76562 v -4.3125 h 30.78125 z m 12.83594,28.09375 6.89062,-22.1875 h 5.40625 l -11.89062,34.15623 q -2.76563,7.39063 -8.78125,7.39063 l -0.95313,-0.0781 -1.89062,-0.35937 v -4.10938 l 1.375,0.10938 q 2.5625,0 4,-1.04688 1.4375,-1.03125 2.35937,-3.78125 l 1.125,-3.01562 -10.54687,-29.26561 h 5.51562 z m 41.80859,-7.0625 q 0,6.75 -3.09375,10.89061 -3.09375,4.125 -8.375,4.125 -5.375,0 -8.46875,-3.42188 v 14.25 h -5.0625 V 233.0555 h 4.625 l 0.25,3.28125 q 3.07813,-3.82813 8.57813,-3.82813 5.32812,0 8.4375,4.03125 3.10937,4.01563 3.10937,11.17188 z m -5.0625,-0.57813 q 0,-5 -2.14062,-7.89062 -2.125,-2.90625 -5.84375,-2.90625 -4.59375,0 -6.89063,4.07812 v 14.14063 q 2.26563,4.04686 6.9375,4.04686 3.64063,0 5.78125,-2.89063 2.15625,-2.8906 2.15625,-8.57811 z m 23.76172,15.59374 q -6.01562,0 -9.79687,-3.95313 -3.76563,-3.9531 -3.76563,-10.56248 v -0.9375 q 0,-4.40625 1.67188,-7.85938 1.6875,-3.45312 4.70312,-5.40625 3.03125,-1.96875 6.5625,-1.96875 5.76563,0 8.95313,3.8125 3.20312,3.79688 3.20312,10.875 v 2.10938 h -20.03125 q 0.10938,4.375 2.54688,7.07811 2.45312,2.6875 6.21875,2.6875 2.6875,0 4.54687,-1.09375 1.85938,-1.09375 3.25,-2.90624 l 3.09375,2.40624 q -3.71875,5.71875 -11.15625,5.71875 z m -0.625,-26.53124 q -3.0625,0 -5.14062,2.23438 -2.07813,2.23437 -2.57813,6.25 h 14.82813 v -0.39063 q -0.21875,-3.84375 -2.07813,-5.96875 -1.85937,-2.125 -5.03125,-2.125 z m 35.24609,18.14063 q 0,-2.0625 -1.54687,-3.1875 -1.54688,-1.14063 -5.39063,-1.95313 -3.84375,-0.82812 -6.10937,-1.96875 -2.25,-1.15625 -3.32813,-2.73437 -1.07812,-1.59375 -1.07812,-3.78125 0,-3.64063 3.07812,-6.15625 3.07813,-2.51563 7.85938,-2.51563 5.03125,0 8.15625,2.60938 3.14062,2.59375 3.14062,6.64062 h -5.09375 q 0,-2.07812 -1.76562,-3.57812 -1.75,-1.51563 -4.4375,-1.51563 -2.76563,0 -4.32813,1.20313 -1.54687,1.20312 -1.54687,3.15625 0,1.82812 1.4375,2.76562 1.45312,0.92188 5.23437,1.76563 3.79688,0.84375 6.14063,2.03125 2.35937,1.17187 3.48437,2.82812 1.14063,1.65625 1.14063,4.03125 0,3.96874 -3.17188,6.35936 -3.17187,2.39063 -8.21875,2.39063 -3.5625,0 -6.29687,-1.25 -2.73438,-1.26563 -4.28125,-3.51563 -1.54688,-2.26562 -1.54688,-4.89061 h 5.0625 q 0.14063,2.54686 2.03125,4.04686 1.90625,1.48438 5.03125,1.48438 2.85938,0 4.59375,-1.15625 1.75,-1.17188 1.75,-3.10936 z" />
    <path
       style="display:inline;fill:#000000;fill-opacity:0;fill-rule:evenodd"
       inkscape:connector-curvature="0"
       id="path13"
       d="M 518.5827,150.94292 H 921.4173 V 413.39965 H 518.5827 Z" />
    <path
       style="display:inline;fill:#ffffff;fill-rule:nonzero"
       inkscape:connector-curvature="0"
       id="path15"
       d="m 545.95483,214.07116 q 1,0 1.96875,0.53125 0.96875,0.51562 1.5,1.48437 0.53125,0.96875 0.53125,2 0,1.67188 -1.17187,2.84375 -1.17188,1.17188 -2.82813,1.17188 -1.67187,0 -2.84375,-1.17188 -1.17187,-1.17187 -1.17187,-2.84375 0,-1.04687 0.53125,-2 0.54687,-0.96875 1.5,-1.48437 0.96875,-0.53125 1.98437,-0.53125 z" />
    <path
       style="display:inline;fill:#000000;fill-opacity:0;fill-rule:evenodd"
       inkscape:connector-curvature="0"
       id="path39"
       d="M 27.874016,294.2861 H 452.56692 V 423.95538 H 27.874016 Z" />
    <path
       style="display:inline;fill:#000000;fill-opacity:0;fill-rule:evenodd"
       inkscape:connector-curvature="0"
       id="path43"
       d="m 651.40155,77.37533 h 137.1969 v 109.88976 h -137.1969 z" />
    <path
       style="display:inline;fill:#000000;fill-opacity:0;fill-rule:evenodd"
       inkscape:connector-curvature="0"
       id="path67"
       d="m 795.40967,62.253162 h 84 v 37.165356 h -84 z" />
    <text
       xml:space="preserve"
       style="font-style:normal;font-variant:normal;font-weight:normal;font-stretch:normal;font-size:29.33333397px;line-height:1.25;font-family:sans-serif;-inkscape-font-specification:'sans-serif, Normal';font-variant-ligatures:normal;font-variant-caps:normal;font-variant-numeric:normal;font-feature-settings:normal;text-align:start;letter-spacing:0px;word-spacing:0px;writing-mode:lr-tb;text-anchor:start;fill:#adadad;fill-opacity:1;stroke:none"
       x="211.81616"
       y="329.82635"
       id="text1013"><tspan
         sodipodi:role="line"
         id="tspan1011"
         x="211.81616"
         y="329.82635"
         style="font-style:normal;font-variant:normal;font-weight:normal;font-stretch:normal;font-size:29.33333397px;font-family:sans-serif;-inkscape-font-specification:'sans-serif, Normal';font-variant-ligatures:normal;font-variant-caps:normal;font-variant-numeric:normal;font-feature-settings:normal;text-align:start;writing-mode:lr-tb;text-anchor:start;fill:#adadad;fill-opacity:1">Any</tspan></text>
    <text
       xml:space="preserve"
       style="font-style:normal;font-weight:normal;font-size:40px;line-height:0.40000001;font-family:sans-serif;letter-spacing:0px;word-spacing:0px;fill:#000000;fill-opacity:1;stroke:none"
       x="650.35712"
       y="132.31438"
       id="text1017"><tspan
         sodipodi:role="line"
         id="tspan1015"
         x="650.35712"
         y="132.31438"
         style="font-style:normal;font-variant:normal;font-weight:normal;font-stretch:normal;font-size:16px;font-family:Hack;-inkscape-font-specification:'Hack, Normal';font-variant-ligatures:normal;font-variant-caps:normal;font-variant-numeric:normal;font-feature-settings:normal;text-align:start;writing-mode:lr-tb;text-anchor:start;fill:#ffffff;fill-opacity:1">struct Message {</tspan><tspan
         sodipodi:role="line"
         x="650.35712"
         y="149.74875"
         id="tspan1019"
         style="font-style:normal;font-variant:normal;font-weight:normal;font-stretch:normal;font-size:16px;font-family:Hack;-inkscape-font-specification:'Hack, Normal';font-variant-ligatures:normal;font-variant-caps:normal;font-variant-numeric:normal;font-feature-settings:normal;text-align:start;writing-mode:lr-tb;text-anchor:start;fill:#ffffff;fill-opacity:1">  misc: <tspan
   style="font-weight:bold"
   id="tspan1023">Any</tspan>;</tspan><tspan
         sodipodi:role="line"
         x="650.35712"
         y="167.18312"
         id="tspan1021"
         style="font-style:normal;font-variant:normal;font-weight:normal;font-stretch:normal;font-size:16px;font-family:Hack;-inkscape-font-specification:'Hack, Normal';font-variant-ligatures:normal;font-variant-caps:normal;font-variant-numeric:normal;font-feature-settings:normal;text-align:start;writing-mode:lr-tb;text-anchor:start;fill:#ffffff;fill-opacity:1">}</tspan></text>
    <text
       xml:space="preserve"
       style="font-style:normal;font-weight:normal;font-size:40px;line-height:1.25;font-family:sans-serif;letter-spacing:0px;word-spacing:0px;fill:#000000;fill-opacity:1;stroke:none"
       x="571.33453"
       y="224.99564"
       id="text1027"><tspan
         sodipodi:role="line"
         id="tspan1025"
         x="571.33453"
         y="224.99564"
         style="font-style:normal;font-variant:normal;font-weight:normal;font-stretch:normal;font-size:18.66666603px;font-family:Roboto;-inkscape-font-specification:'Roboto, Normal';font-variant-ligatures:normal;font-variant-caps:normal;font-variant-numeric:normal;font-feature-settings:normal;text-align:start;writing-mode:lr-tb;text-anchor:start;fill:#ffffff;fill-opacity:1">Can be decoded but not encoded</tspan></text>
    <path
       d="m 545.95483,244.76359 q 1,0 1.96875,0.53125 0.96875,0.51562 1.5,1.48437 0.53125,0.96875 0.53125,2 0,1.67188 -1.17187,2.84375 -1.17188,1.17188 -2.82813,1.17188 -1.67187,0 -2.84375,-1.17188 -1.17187,-1.17187 -1.17187,-2.84375 0,-1.04687 0.53125,-2 0.54687,-0.96875 1.5,-1.48437 0.96875,-0.53125 1.98437,-0.53125 z"
       id="path1050"
       inkscape:connector-curvature="0"
       style="display:inline;fill:#ffffff;fill-rule:nonzero" />
    <text
       id="text1054"
       y="255.35278"
       x="571.33453"
       style="font-style:normal;font-weight:normal;font-size:40px;line-height:0.5;font-family:sans-serif;letter-spacing:0px;word-spacing:0px;fill:#000000;fill-opacity:1;stroke:none"
       xml:space="preserve"><tspan
         style="font-style:normal;font-variant:normal;font-weight:normal;font-stretch:normal;font-size:18.66666603px;font-family:Roboto;-inkscape-font-specification:'Roboto, Normal';font-variant-ligatures:normal;font-variant-caps:normal;font-variant-numeric:normal;font-feature-settings:normal;text-align:start;writing-mode:lr-tb;text-anchor:start;fill:#ffffff;fill-opacity:1"
         y="255.35278"
         x="571.33453"
         id="tspan1052"
         sodipodi:role="line">Any type can be decoded into <tspan
   style="-inkscape-font-specification:'Hack, Bold';font-family:Hack;font-weight:bold;font-style:normal;font-stretch:normal;font-variant:normal;font-size:18.66666667px;text-anchor:start;text-align:start;writing-mode:lr;font-variant-ligatures:normal;font-variant-caps:normal;font-variant-numeric:normal;font-feature-settings:normal"
   id="tspan1093">Any</tspan></tspan><tspan
         style="font-style:normal;font-variant:normal;font-weight:normal;font-stretch:normal;font-size:18.66666603px;font-family:Roboto;-inkscape-font-specification:'Roboto, Normal';font-variant-ligatures:normal;font-variant-caps:normal;font-variant-numeric:normal;font-feature-settings:normal;text-align:start;writing-mode:lr-tb;text-anchor:start;fill:#ffffff;fill-opacity:1"
         y="275.74341"
         x="571.33453"
         sodipodi:role="line"
         id="tspan1062">without loss of information or type</tspan><tspan
         style="font-style:normal;font-variant:normal;font-weight:normal;font-stretch:normal;font-size:18.66666603px;font-family:Roboto;-inkscape-font-specification:'Roboto, Normal';font-variant-ligatures:normal;font-variant-caps:normal;font-variant-numeric:normal;font-feature-settings:normal;text-align:start;writing-mode:lr-tb;text-anchor:start;fill:#ffffff;fill-opacity:1"
         y="296.13403"
         x="571.33453"
         sodipodi:role="line"
         id="tspan1091">conversions applied.</tspan></text>
    <path
       style="display:inline;fill:#ffffff;fill-rule:nonzero"
       inkscape:connector-curvature="0"
       id="path1125"
       d="m 545.95483,314.263 q 1,0 1.96875,0.53125 0.96875,0.51562 1.5,1.48437 0.53125,0.96875 0.53125,2 0,1.67188 -1.17187,2.84375 -1.17188,1.17188 -2.82813,1.17188 -1.67187,0 -2.84375,-1.17188 -1.17187,-1.17187 -1.17187,-2.84375 0,-1.04687 0.53125,-2 0.54687,-0.96875 1.5,-1.48437 0.96875,-0.53125 1.98437,-0.53125 z" />
    <text
       xml:space="preserve"
       style="font-style:normal;font-weight:normal;font-size:40px;line-height:0.5;font-family:sans-serif;letter-spacing:0px;word-spacing:0px;fill:#000000;fill-opacity:1;stroke:none"
       x="571.33453"
       y="324.99564"
       id="text1135"><tspan
         id="tspan1133"
         sodipodi:role="line"
         x="571.33453"
         y="324.99564"
         style="font-style:normal;font-variant:normal;font-weight:normal;font-stretch:normal;font-size:18.66666603px;font-family:Roboto;-inkscape-font-specification:'Roboto, Normal';font-variant-ligatures:normal;font-variant-caps:normal;font-variant-numeric:normal;font-feature-settings:normal;text-align:start;writing-mode:lr-tb;text-anchor:start;fill:#ffffff;fill-opacity:1">Instances of <tspan
   style="-inkscape-font-specification:'Hack, Bold';font-family:Hack;font-weight:bold;font-style:normal;font-stretch:normal;font-variant:normal;font-size:18.66666667px;text-anchor:start;text-align:start;writing-mode:lr;font-variant-ligatures:normal;font-variant-caps:normal;font-variant-numeric:normal;font-feature-settings:normal"
   id="tspan1152">pj::Any</tspan> expose a reflective</tspan><tspan
         sodipodi:role="line"
         x="571.33453"
         y="345.38626"
         style="font-style:normal;font-variant:normal;font-weight:normal;font-stretch:normal;font-size:18.66666603px;font-family:Roboto;-inkscape-font-specification:'Roboto, Normal';font-variant-ligatures:normal;font-variant-caps:normal;font-variant-numeric:normal;font-feature-settings:normal;text-align:start;writing-mode:lr-tb;text-anchor:start;fill:#ffffff;fill-opacity:1"
         id="tspan1144">API for accessing type and </tspan><tspan
         sodipodi:role="line"
         x="571.33453"
         y="365.77689"
         style="font-style:normal;font-variant:normal;font-weight:normal;font-stretch:normal;font-size:18.66666603px;font-family:Roboto;-inkscape-font-specification:'Roboto, Normal';font-variant-ligatures:normal;font-variant-caps:normal;font-variant-numeric:normal;font-feature-settings:normal;text-align:start;writing-mode:lr-tb;text-anchor:start;fill:#ffffff;fill-opacity:1"
         id="tspan1150">field/term/value information, akin to JSON</tspan></text>
    <flowRoot
       xml:space="preserve"
       id="flowRoot1154"
       style="fill:black;fill-opacity:1;stroke:none;font-family:sans-serif;font-style:normal;font-weight:normal;font-size:40px;line-height:1.25;letter-spacing:0px;word-spacing:0px"><flowRegion
         id="flowRegion1156"><rect
           id="rect1158"
           width="928.3302"
           height="42.426407"
           x="915.19818"
           y="367.26392" /></flowRegion><flowPara
         id="flowPara1160" /></flowRoot>  </g>
</svg>
