<?xml version="1.0" encoding="UTF-8" standalone="no"?>
<svg
   xmlns:dc="http://purl.org/dc/elements/1.1/"
   xmlns:cc="http://creativecommons.org/ns#"
   xmlns:rdf="http://www.w3.org/1999/02/22-rdf-syntax-ns#"
   xmlns:svg="http://www.w3.org/2000/svg"
   xmlns="http://www.w3.org/2000/svg"
   xmlns:sodipodi="http://sodipodi.sourceforge.net/DTD/sodipodi-0.dtd"
   xmlns:inkscape="http://www.inkscape.org/namespaces/inkscape"
   version="1.1"
   viewBox="0.0 0.0 960.0 540.0"
   fill="none"
   stroke="none"
   stroke-linecap="square"
   stroke-miterlimit="10"
   id="svg39"
   sodipodi:docname="arrays.svg"
   inkscape:version="0.92.2 (5c3e80d, 2017-08-06)">
  <metadata
     id="metadata45">
    <rdf:RDF>
      <cc:Work
         rdf:about="">
        <dc:format>image/svg+xml</dc:format>
        <dc:type
           rdf:resource="http://purl.org/dc/dcmitype/StillImage" />
        <dc:title></dc:title>
      </cc:Work>
    </rdf:RDF>
  </metadata>
  <defs
     id="defs43" />
  <sodipodi:namedview
     pagecolor="#000000"
     bordercolor="#666666"
     borderopacity="1"
     objecttolerance="10"
     gridtolerance="10"
     guidetolerance="10"
     inkscape:pageopacity="0"
     inkscape:pageshadow="2"
     inkscape:window-width="3840"
     inkscape:window-height="2039"
     id="namedview41"
     showgrid="false"
     inkscape:zoom="1.979899"
     inkscape:cx="488.95123"
     inkscape:cy="316.59408"
     inkscape:window-x="0"
     inkscape:window-y="121"
     inkscape:window-maximized="0"
     inkscape:current-layer="layer1" />
  <clipPath
     id="g131f2da0398_0_390.0">
    <path
       d="m0 0l960.0 0l0 540.0l-960.0 0l0 -540.0z"
       clip-rule="nonzero"
       id="path2" />
  </clipPath>
  <g
     inkscape:groupmode="layer"
     id="layer2"
     inkscape:label="Background"
     style="display:inline">
    <path
       style="fill:#212121;fill-rule:evenodd"
       inkscape:connector-curvature="0"
       id="path5"
       d="M 0,0 H 960 V 540 H 0 Z" />
    <path
       style="fill:#303030;fill-rule:evenodd"
       inkscape:connector-curvature="0"
       id="path7"
       d="M 480,4.67e-6 H 960 V 540 H 480 Z" />
  </g>
  <g
     inkscape:groupmode="layer"
     id="layer1"
     inkscape:label="Content"
     style="display:inline">
    <path
       style="fill:#000000;fill-opacity:0;fill-rule:evenodd"
       inkscape:connector-curvature="0"
       id="path9"
       d="M 27.874016,129.4672 H 452.56692 V 285.08924 H 27.874016 Z" />
    <path
       style="fill:#ffffff;fill-rule:nonzero"
       inkscape:connector-curvature="0"
       id="path11"
       d="m 198.39429,227.14925 h -12.79688 v 35.49998 h -5.21875 v -35.49998 h -12.76562 v -4.3125 h 30.78125 z m 12.83594,28.09375 6.89062,-22.1875 h 5.40625 l -11.89062,34.15623 q -2.76563,7.39063 -8.78125,7.39063 l -0.95313,-0.0781 -1.89062,-0.35937 v -4.10938 l 1.375,0.10938 q 2.5625,0 4,-1.04688 1.4375,-1.03125 2.35937,-3.78125 l 1.125,-3.01562 -10.54687,-29.26561 h 5.51562 z m 41.80859,-7.0625 q 0,6.75 -3.09375,10.89061 -3.09375,4.125 -8.375,4.125 -5.375,0 -8.46875,-3.42188 v 14.25 h -5.0625 V 233.0555 h 4.625 l 0.25,3.28125 q 3.07813,-3.82813 8.57813,-3.82813 5.32812,0 8.4375,4.03125 3.10937,4.01563 3.10937,11.17188 z m -5.0625,-0.57813 q 0,-5 -2.14062,-7.89062 -2.125,-2.90625 -5.84375,-2.90625 -4.59375,0 -6.89063,4.07812 v 14.14063 q 2.26563,4.04686 6.9375,4.04686 3.64063,0 5.78125,-2.89063 2.15625,-2.8906 2.15625,-8.57811 z m 23.76172,15.59374 q -6.01562,0 -9.79687,-3.95313 -3.76563,-3.9531 -3.76563,-10.56248 v -0.9375 q 0,-4.40625 1.67188,-7.85938 1.6875,-3.45312 4.70312,-5.40625 3.03125,-1.96875 6.5625,-1.96875 5.76563,0 8.95313,3.8125 3.20312,3.79688 3.20312,10.875 v 2.10938 h -20.03125 q 0.10938,4.375 2.54688,7.07811 2.45312,2.6875 6.21875,2.6875 2.6875,0 4.54687,-1.09375 1.85938,-1.09375 3.25,-2.90624 l 3.09375,2.40624 q -3.71875,5.71875 -11.15625,5.71875 z m -0.625,-26.53124 q -3.0625,0 -5.14062,2.23438 -2.07813,2.23437 -2.57813,6.25 h 14.82813 v -0.39063 q -0.21875,-3.84375 -2.07813,-5.96875 -1.85937,-2.125 -5.03125,-2.125 z m 35.24609,18.14063 q 0,-2.0625 -1.54687,-3.1875 -1.54688,-1.14063 -5.39063,-1.95313 -3.84375,-0.82812 -6.10937,-1.96875 -2.25,-1.15625 -3.32813,-2.73437 -1.07812,-1.59375 -1.07812,-3.78125 0,-3.64063 3.07812,-6.15625 3.07813,-2.51563 7.85938,-2.51563 5.03125,0 8.15625,2.60938 3.14062,2.59375 3.14062,6.64062 h -5.09375 q 0,-2.07812 -1.76562,-3.57812 -1.75,-1.51563 -4.4375,-1.51563 -2.76563,0 -4.32813,1.20313 -1.54687,1.20312 -1.54687,3.15625 0,1.82812 1.4375,2.76562 1.45312,0.92188 5.23437,1.76563 3.79688,0.84375 6.14063,2.03125 2.35937,1.17187 3.48437,2.82812 1.14063,1.65625 1.14063,4.03125 0,3.96874 -3.17188,6.35936 -3.17187,2.39063 -8.21875,2.39063 -3.5625,0 -6.29687,-1.25 -2.73438,-1.26563 -4.28125,-3.51563 -1.54688,-2.26562 -1.54688,-4.89061 h 5.0625 q 0.14063,2.54686 2.03125,4.04686 1.90625,1.48438 5.03125,1.48438 2.85938,0 4.59375,-1.15625 1.75,-1.17188 1.75,-3.10936 z" />
    <path
       style="fill:#000000;fill-opacity:0;fill-rule:evenodd"
       inkscape:connector-curvature="0"
       id="path13"
       d="m 518.5827,201.49869 h 402.8346 v 262.4567 H 518.5827 Z" />
    <path
       style="fill:#000000;fill-opacity:0;fill-rule:evenodd"
       inkscape:connector-curvature="0"
       id="path29"
       d="M 27.874016,294.2861 H 452.56692 V 423.95538 H 27.874016 Z" />
    <path
       style="fill:#adadad;fill-rule:nonzero"
       inkscape:connector-curvature="0"
       id="path31"
       d="m 213.82788,324.96295 h -8.32813 l -1.875,5.20312 h -2.70312 l 7.59375,-19.90625 h 2.29687 l 7.60938,19.90625 h -2.6875 z M 206.281,322.8067 h 6.78125 l -3.39062,-9.3125 z m 21.57813,-5.17188 q -0.57813,-0.0937 -1.23438,-0.0937 -2.5,0 -3.39062,2.125 v 10.5 H 220.7185 V 315.3692 h 2.45313 l 0.0469,1.71875 q 1.23438,-1.98438 3.51563,-1.98438 0.75,0 1.125,0.1875 z m 9.47461,0 q -0.57813,-0.0937 -1.23438,-0.0937 -2.5,0 -3.39062,2.125 v 10.5 h -2.51563 V 315.3692 h 2.45313 l 0.0469,1.71875 q 1.23438,-1.98438 3.51563,-1.98438 0.75,0 1.125,0.1875 z m 10.91211,12.53125 q -0.21875,-0.4375 -0.35938,-1.5625 -1.76562,1.84375 -4.20312,1.84375 -2.1875,0 -3.59375,-1.23437 -1.40625,-1.25 -1.40625,-3.15625 0,-2.29688 1.75,-3.57813 1.76562,-1.28125 4.95312,-1.28125 h 2.46875 v -1.15625 q 0,-1.32812 -0.79687,-2.10937 -0.79688,-0.79688 -2.34375,-0.79688 -1.34375,0 -2.26563,0.6875 -0.92187,0.6875 -0.92187,1.65625 h -2.53125 q 0,-1.10937 0.78125,-2.14062 0.78125,-1.03125 2.125,-1.625 1.35937,-0.60938 2.96875,-0.60938 2.5625,0 4,1.28125 1.45312,1.26563 1.51562,3.51563 v 6.8125 q 0,2.03125 0.51563,3.23437 v 0.21875 z m -4.20313,-1.92187 q 1.20313,0 2.26563,-0.60938 1.0625,-0.625 1.54687,-1.60937 v -3.03125 h -1.98437 q -4.65625,0 -4.65625,2.71875 0,1.1875 0.79687,1.85937 0.79688,0.67188 2.03125,0.67188 z m 14.93164,-1.78125 3.45313,-11.09375 h 2.70312 l -5.95312,17.07812 q -1.375,3.6875 -4.375,3.6875 l -0.48438,-0.0312 -0.9375,-0.1875 v -2.04687 l 0.67188,0.0625 q 1.29687,0 2,-0.53125 0.71875,-0.51563 1.1875,-1.89063 l 0.5625,-1.51562 -5.28125,-14.625 h 2.76562 z m 17.0293,-0.21875 q 0,-1.03125 -0.78125,-1.59375 -0.76562,-0.5625 -2.6875,-0.96875 -1.92187,-0.42188 -3.04687,-0.98438 -1.125,-0.57812 -1.67188,-1.375 -0.53125,-0.79687 -0.53125,-1.89062 0,-1.8125 1.53125,-3.0625 1.53125,-1.26563 3.9375,-1.26563 2.51563,0 4.07813,1.29688 1.5625,1.29687 1.5625,3.3125 h -2.54688 q 0,-1.03125 -0.89062,-1.78125 -0.875,-0.75 -2.20313,-0.75 -1.39062,0 -2.17187,0.60937 -0.78125,0.59375 -0.78125,1.5625 0,0.90625 0.71875,1.375 0.73437,0.46875 2.625,0.89063 1.90625,0.42187 3.07812,1.01562 1.17188,0.57813 1.73438,1.40625 0.57812,0.82813 0.57812,2.01563 0,1.98437 -1.59375,3.1875 -1.57812,1.20312 -4.10937,1.20312 -1.78125,0 -3.15625,-0.625 -1.35938,-0.64062 -2.14063,-1.76562 -0.76562,-1.125 -0.76562,-2.4375 h 2.53125 q 0.0625,1.26562 1.01562,2.01562 0.95313,0.73438 2.51563,0.73438 1.4375,0 2.29687,-0.57813 0.875,-0.57812 0.875,-1.54687 z" />
    <path
       style="fill:#000000;fill-opacity:0;fill-rule:evenodd"
       inkscape:connector-curvature="0"
       id="path33"
       d="m 517.4488,121.65092 h 405.10242 v 42.01575 H 517.4488 Z" />
    <path
       style="fill:#ffffff;fill-rule:nonzero"
       inkscape:connector-curvature="0"
       id="path35"
       d="m 708.95416,138.0553 h -3.51563 v 10.51562 h -1.64062 V 138.0553 h -3.53125 v -1.39063 h 8.6875 z m 8.42914,14.25 h -4.5 v -16.92188 h 4.5 v 1.26563 h -2.98438 v 14.375 h 2.98438 z m 11.8042,-3.73438 h -2.125 l -3.46875,-7.42187 -1,-2.39063 v 6 3.8125 h -1.51563 v -11.90625 h 2.09375 l 3.3125,7.03125 1.1875,2.71875 v -6.375 -3.375 h 1.51563 z m 8.17913,3.73438 h -4.48437 v -1.28125 h 2.95312 v -14.375 h -2.95312 v -1.26563 h 4.48437 z" />
    <g
       id="g979">
      <text
         id="text4572"
         y="267.30887"
         x="556.65198"
         style="font-style:normal;font-variant:normal;font-weight:bold;font-stretch:normal;font-size:18.66666603px;line-height:1;font-family:Hack;-inkscape-font-specification:'Hack, Bold';font-variant-ligatures:normal;font-variant-caps:normal;font-variant-numeric:normal;font-feature-settings:normal;text-align:start;writing-mode:lr-tb;text-anchor:start;fill:#ffffff;fill-opacity:1;stroke:#ffffff;stroke-width:1;stroke-linejoin:round;stroke-miterlimit:21;stroke-dasharray:0.5, 0.5;stroke-dashoffset:0;stroke-opacity:1"
         xml:space="preserve"><tspan
           id="tspan4580"
           style="font-style:normal;font-variant:normal;font-weight:normal;font-stretch:normal;font-size:18.66666603px;font-family:Roboto;-inkscape-font-specification:'Roboto, Normal';font-variant-ligatures:normal;font-variant-caps:normal;font-variant-numeric:normal;font-feature-settings:normal;text-align:start;writing-mode:lr-tb;text-anchor:start;stroke:none"
           y="267.30887"
           x="556.65198"
           sodipodi:role="line"><tspan
   id="tspan4582"
   style="font-weight:bold">Conversion</tspan>: default-fill, truncation</tspan></text>
      <text
         xml:space="preserve"
         style="font-style:normal;font-variant:normal;font-weight:bold;font-stretch:normal;font-size:18.66666603px;line-height:1;font-family:Hack;-inkscape-font-specification:'Hack, Bold';font-variant-ligatures:normal;font-variant-caps:normal;font-variant-numeric:normal;font-feature-settings:normal;text-align:start;writing-mode:lr-tb;text-anchor:start;fill:#ffffff;fill-opacity:1;stroke:#ffffff;stroke-width:1;stroke-linejoin:round;stroke-miterlimit:21;stroke-dasharray:0.5, 0.5;stroke-dashoffset:0;stroke-opacity:1"
         x="556.65198"
         y="300.28098"
         id="text4590"><tspan
           sodipodi:role="line"
           x="556.65198"
           y="300.28098"
           style="font-style:normal;font-variant:normal;font-weight:normal;font-stretch:normal;font-size:18.66666603px;font-family:Roboto;-inkscape-font-specification:'Roboto, Normal';font-variant-ligatures:normal;font-variant-caps:normal;font-variant-numeric:normal;font-feature-settings:normal;text-align:start;writing-mode:lr-tb;text-anchor:start;stroke:none"
           id="tspan4588"><tspan
   id="tspan4592"
   style="font-weight:bold">Default</tspan>: default-fill</tspan></text>
      <path
         style="fill:#ffffff;fill-rule:nonzero"
         inkscape:connector-curvature="0"
         id="path4598"
         d="m 528.58762,257.03003 q 1,0 1.96875,0.53125 0.96875,0.51562 1.5,1.48437 0.53125,0.96875 0.53125,2 0,1.67188 -1.17187,2.84375 -1.17188,1.17188 -2.82813,1.17188 -1.67187,0 -2.84375,-1.17188 -1.17187,-1.17187 -1.17187,-2.84375 0,-1.04687 0.53125,-2 0.54687,-0.96875 1.5,-1.48437 0.96875,-0.53125 1.98437,-0.53125 z" />
      <path
         style="fill:#ffffff;fill-rule:nonzero"
         inkscape:connector-curvature="0"
         id="path4600"
         d="m 528.58762,289.25169 q 1,0 1.96875,0.53125 0.96875,0.51563 1.5,1.48438 0.53125,0.96875 0.53125,2 0,1.67187 -1.17187,2.84375 -1.17188,1.17187 -2.82813,1.17187 -1.67187,0 -2.84375,-1.17187 -1.17187,-1.17188 -1.17187,-2.84375 0,-1.04688 0.53125,-2 0.54687,-0.96875 1.5,-1.48438 0.96875,-0.53125 1.98437,-0.53125 z" />
    </g>
  </g>
</svg>
