<?xml version="1.0" encoding="UTF-8" standalone="no"?>
<svg
   xmlns:dc="http://purl.org/dc/elements/1.1/"
   xmlns:cc="http://creativecommons.org/ns#"
   xmlns:rdf="http://www.w3.org/1999/02/22-rdf-syntax-ns#"
   xmlns:svg="http://www.w3.org/2000/svg"
   xmlns="http://www.w3.org/2000/svg"
   xmlns:sodipodi="http://sodipodi.sourceforge.net/DTD/sodipodi-0.dtd"
   xmlns:inkscape="http://www.inkscape.org/namespaces/inkscape"
   version="1.1"
   viewBox="0.0 0.0 960.0 540.0"
   fill="none"
   stroke="none"
   stroke-linecap="square"
   stroke-miterlimit="10"
   id="svg83"
   sodipodi:docname="enums.svg"
   inkscape:version="0.92.2 (5c3e80d, 2017-08-06)">
  <metadata
     id="metadata89">
    <rdf:RDF>
      <cc:Work
         rdf:about="">
        <dc:format>image/svg+xml</dc:format>
        <dc:type
           rdf:resource="http://purl.org/dc/dcmitype/StillImage" />
        <dc:title></dc:title>
      </cc:Work>
    </rdf:RDF>
  </metadata>
  <defs
     id="defs87">
    <marker
       inkscape:stockid="Arrow2Mend"
       orient="auto"
       refY="0"
       refX="0"
       id="Arrow2Mend"
       style="overflow:visible"
       inkscape:isstock="true">
      <path
         inkscape:connector-curvature="0"
         id="path1030"
         style="fill:#ffffff;fill-opacity:1;fill-rule:evenodd;stroke:#ffffff;stroke-width:0.625;stroke-linejoin:round;stroke-opacity:1"
         d="M 8.7185878,4.0337352 -2.2072895,0.01601326 8.7185884,-4.0017078 c -1.7454984,2.3720609 -1.7354408,5.6174519 -6e-7,8.035443 z"
         transform="scale(-0.6)" />
    </marker>
  </defs>
  <sodipodi:namedview
     pagecolor="#000000"
     bordercolor="#666666"
     borderopacity="1"
     objecttolerance="10"
     gridtolerance="10"
     guidetolerance="10"
     inkscape:pageopacity="0"
     inkscape:pageshadow="2"
     inkscape:window-width="3840"
     inkscape:window-height="2063"
     id="namedview85"
     showgrid="false"
     inkscape:zoom="2.8"
     inkscape:cx="491.34931"
     inkscape:cy="264.26289"
     inkscape:window-x="0"
     inkscape:window-y="97"
     inkscape:window-maximized="0"
     inkscape:current-layer="layer3" />
  <clipPath
     id="g131f2da0398_0_445.0">
    <path
       d="m0 0l960.0 0l0 540.0l-960.0 0l0 -540.0z"
       clip-rule="nonzero"
       id="path2" />
  </clipPath>
  <g
     inkscape:groupmode="layer"
     id="layer2"
     inkscape:label="Background"
     sodipodi:insensitive="true"
     style="display:inline">
    <path
       style="fill:#212121;fill-rule:evenodd"
       inkscape:connector-curvature="0"
       id="path5"
       d="M 0,0 H 960 V 540 H 0 Z" />
    <path
       style="fill:#303030;fill-rule:evenodd"
       inkscape:connector-curvature="0"
       id="path7"
       d="M 480,0.00262467 H 960 V 540.00262 H 480 Z" />
  </g>
  <g
     inkscape:groupmode="layer"
     id="layer3"
     inkscape:label="Content">
    <path
       style="fill:#000000;fill-opacity:0;fill-rule:evenodd"
       inkscape:connector-curvature="0"
       id="path9"
       d="M 27.874016,129.4672 H 452.56692 V 285.08924 H 27.874016 Z" />
    <path
       style="fill:#ffffff;fill-rule:nonzero"
       inkscape:connector-curvature="0"
       id="path11"
       d="m 198.39429,227.14925 h -12.79688 v 35.49998 h -5.21875 v -35.49998 h -12.76562 v -4.3125 h 30.78125 z m 12.83594,28.09375 6.89062,-22.1875 h 5.40625 l -11.89062,34.15623 q -2.76563,7.39063 -8.78125,7.39063 l -0.95313,-0.0781 -1.89062,-0.35937 v -4.10938 l 1.375,0.10938 q 2.5625,0 4,-1.04688 1.4375,-1.03125 2.35937,-3.78125 l 1.125,-3.01562 -10.54687,-29.26561 h 5.51562 z m 41.80859,-7.0625 q 0,6.75 -3.09375,10.89061 -3.09375,4.125 -8.375,4.125 -5.375,0 -8.46875,-3.42188 v 14.25 h -5.0625 V 233.0555 h 4.625 l 0.25,3.28125 q 3.07813,-3.82813 8.57813,-3.82813 5.32812,0 8.4375,4.03125 3.10937,4.01563 3.10937,11.17188 z m -5.0625,-0.57813 q 0,-5 -2.14062,-7.89062 -2.125,-2.90625 -5.84375,-2.90625 -4.59375,0 -6.89063,4.07812 v 14.14063 q 2.26563,4.04686 6.9375,4.04686 3.64063,0 5.78125,-2.89063 2.15625,-2.8906 2.15625,-8.57811 z m 23.76172,15.59374 q -6.01562,0 -9.79687,-3.95313 -3.76563,-3.9531 -3.76563,-10.56248 v -0.9375 q 0,-4.40625 1.67188,-7.85938 1.6875,-3.45312 4.70312,-5.40625 3.03125,-1.96875 6.5625,-1.96875 5.76563,0 8.95313,3.8125 3.20312,3.79688 3.20312,10.875 v 2.10938 h -20.03125 q 0.10938,4.375 2.54688,7.07811 2.45312,2.6875 6.21875,2.6875 2.6875,0 4.54687,-1.09375 1.85938,-1.09375 3.25,-2.90624 l 3.09375,2.40624 q -3.71875,5.71875 -11.15625,5.71875 z m -0.625,-26.53124 q -3.0625,0 -5.14062,2.23438 -2.07813,2.23437 -2.57813,6.25 h 14.82813 v -0.39063 q -0.21875,-3.84375 -2.07813,-5.96875 -1.85937,-2.125 -5.03125,-2.125 z m 35.24609,18.14063 q 0,-2.0625 -1.54687,-3.1875 -1.54688,-1.14063 -5.39063,-1.95313 -3.84375,-0.82812 -6.10937,-1.96875 -2.25,-1.15625 -3.32813,-2.73437 -1.07812,-1.59375 -1.07812,-3.78125 0,-3.64063 3.07812,-6.15625 3.07813,-2.51563 7.85938,-2.51563 5.03125,0 8.15625,2.60938 3.14062,2.59375 3.14062,6.64062 h -5.09375 q 0,-2.07812 -1.76562,-3.57812 -1.75,-1.51563 -4.4375,-1.51563 -2.76563,0 -4.32813,1.20313 -1.54687,1.20312 -1.54687,3.15625 0,1.82812 1.4375,2.76562 1.45312,0.92188 5.23437,1.76563 3.79688,0.84375 6.14063,2.03125 2.35937,1.17187 3.48437,2.82812 1.14063,1.65625 1.14063,4.03125 0,3.96874 -3.17188,6.35936 -3.17187,2.39063 -8.21875,2.39063 -3.5625,0 -6.29687,-1.25 -2.73438,-1.26563 -4.28125,-3.51563 -1.54688,-2.26562 -1.54688,-4.89061 h 5.0625 q 0.14063,2.54686 2.03125,4.04686 1.90625,1.48438 5.03125,1.48438 2.85938,0 4.59375,-1.15625 1.75,-1.17188 1.75,-3.10936 z" />
    <path
       style="fill:#000000;fill-opacity:0;fill-rule:evenodd"
       inkscape:connector-curvature="0"
       id="path13"
       d="M 518.5827,150.94292 H 921.4173 V 413.39965 H 518.5827 Z" />
    <path
       style="fill:#000000;fill-opacity:0;fill-rule:evenodd"
       inkscape:connector-curvature="0"
       id="path39"
       d="M 27.874016,294.2861 H 452.56692 V 423.95538 H 27.874016 Z" />
    <path
       style="fill:#adadad;fill-rule:nonzero"
       inkscape:connector-curvature="0"
       id="path41"
       d="m 210.89429,320.96295 h -8.625 v 7.0625 h 10.01562 v 2.14062 h -12.64062 v -19.90625 h 12.51562 v 2.15625 h -9.89062 v 6.40625 h 8.625 z m 6.66406,-5.59375 0.0781,1.85937 q 1.6875,-2.125 4.42187,-2.125 4.70313,0 4.73438,5.28125 v 9.78125 h -2.53125 v -9.79687 q -0.0156,-1.59375 -0.73438,-2.35938 -0.70312,-0.76562 -2.23437,-0.76562 -1.21875,0 -2.15625,0.65625 -0.92188,0.65625 -1.45313,1.71875 v 10.54687 H 215.1677 V 315.3692 Z m 22.1836,13.32812 q -1.46875,1.75 -4.32813,1.75 -2.375,0 -3.60937,-1.375 -1.23438,-1.375 -1.25,-4.07812 v -9.625 h 2.53125 v 9.5625 q 0,3.35937 2.73437,3.35937 2.89063,0 3.85938,-2.15625 V 315.3692 h 2.53125 v 14.79687 h -2.40625 z m 8.68554,-13.32812 0.0625,1.64062 q 1.625,-1.90625 4.39063,-1.90625 3.10937,0 4.21875,2.375 0.75,-1.0625 1.92187,-1.71875 1.1875,-0.65625 2.79688,-0.65625 4.875,0 4.95312,5.15625 v 9.90625 h -2.53125 v -9.76562 q 0,-1.57813 -0.73437,-2.35938 -0.71875,-0.79687 -2.42188,-0.79687 -1.40625,0 -2.34375,0.84375 -0.92187,0.84375 -1.07812,2.26562 v 9.8125 h -2.53125 v -9.6875 q 0,-3.23437 -3.17188,-3.23437 -2.48437,0 -3.39062,2.125 v 10.79687 h -2.53125 V 315.3692 Z m 30.77539,10.875 q 0,-1.03125 -0.78125,-1.59375 -0.76562,-0.5625 -2.6875,-0.96875 -1.92187,-0.42188 -3.04687,-0.98438 -1.125,-0.57812 -1.67188,-1.375 -0.53125,-0.79687 -0.53125,-1.89062 0,-1.8125 1.53125,-3.0625 1.53125,-1.26563 3.9375,-1.26563 2.51563,0 4.07813,1.29688 1.5625,1.29687 1.5625,3.3125 h -2.54688 q 0,-1.03125 -0.89062,-1.78125 -0.875,-0.75 -2.20313,-0.75 -1.39062,0 -2.17187,0.60937 -0.78125,0.59375 -0.78125,1.5625 0,0.90625 0.71875,1.375 0.73437,0.46875 2.625,0.89063 1.90625,0.42187 3.07812,1.01562 1.17188,0.57813 1.73438,1.40625 0.57812,0.82813 0.57812,2.01563 0,1.98437 -1.59375,3.1875 -1.57812,1.20312 -4.10937,1.20312 -1.78125,0 -3.15625,-0.625 -1.35938,-0.64062 -2.14063,-1.76562 -0.76562,-1.125 -0.76562,-2.4375 h 2.53125 q 0.0625,1.26562 1.01562,2.01562 0.95313,0.73438 2.51563,0.73438 1.4375,0 2.29687,-0.57813 0.875,-0.57812 0.875,-1.54687 z" />
    <path
       style="fill:#000000;fill-opacity:0;fill-rule:evenodd"
       inkscape:connector-curvature="0"
       id="path43"
       d="m 651.40155,77.37533 h 137.1969 v 109.88976 h -137.1969 z" />
    <path
       style="fill:#ffffff;fill-rule:nonzero"
       inkscape:connector-curvature="0"
       id="path45"
       d="m 669.58905,99.23283 q 0,0.34375 -0.0156,0.578125 0,0.218755 -0.0312,0.421875 h -6.42188 q 0,1.40625 0.78125,2.15625 0.79688,0.75 2.26563,0.75 0.40625,0 0.79687,-0.0312 0.40625,-0.0312 0.78125,-0.0781 0.375,-0.0625 0.71875,-0.125 0.34375,-0.0781 0.625,-0.15625 v 1.29687 q -0.64062,0.1875 -1.46875,0.29688 -0.8125,0.10937 -1.6875,0.10937 -1.17187,0 -2.01562,-0.3125 -0.84375,-0.3125 -1.39063,-0.92187 -0.54687,-0.60938 -0.8125,-1.48438 -0.25,-0.875 -0.25,-2 0,-0.953125 0.28125,-1.8125 0.28125,-0.859375 0.8125,-1.515625 0.53125,-0.65625 1.29688,-1.03125 0.78125,-0.390625 1.76562,-0.390625 0.95313,0 1.6875,0.3125 0.75,0.296875 1.25,0.84375 0.5,0.546875 0.76563,1.34375 0.26562,0.78125 0.26562,1.75 z m -1.65625,-0.21875 q 0.0312,-0.609375 -0.125,-1.109375 -0.14062,-0.515625 -0.45312,-0.875 -0.29688,-0.375 -0.75,-0.578125 -0.45313,-0.203125 -1.0625,-0.203125 -0.51563,0 -0.95313,0.203125 -0.42187,0.203125 -0.73437,0.5625 -0.29688,0.359375 -0.5,0.875 -0.1875,0.515625 -0.23438,1.125 z m 4.1792,-3.859375 h 1.42187 l 0.0625,1.46875 q 0.39063,-0.46875 0.76563,-0.78125 0.375,-0.3125 0.73437,-0.5 0.35938,-0.203125 0.73438,-0.28125 0.375,-0.07813 0.78125,-0.07813 1.40625,0 2.125,0.84375 0.73437,0.828125 0.73437,2.5 v 5.968755 h -1.59375 v -5.843755 q 0,-1.078125 -0.40625,-1.578125 -0.39062,-0.515625 -1.1875,-0.515625 -0.28125,0 -0.5625,0.09375 -0.28125,0.07813 -0.57812,0.296875 -0.29688,0.203125 -0.65625,0.578125 -0.34375,0.359375 -0.78125,0.90625 v 6.062505 H 672.112 Z m 17.61664,9.140625 h -1.42188 l -0.0625,-1.46875 q -0.40625,0.46875 -0.78125,0.78125 -0.35937,0.3125 -0.73437,0.51563 -0.35938,0.1875 -0.73438,0.25 -0.35937,0.0781 -0.76562,0.0781 -1.42188,0 -2.14063,-0.82812 -0.71875,-0.82813 -0.71875,-2.5 v -5.968755 h 1.59375 v 5.843755 q 0,2.10937 1.57813,2.10937 0.29687,0 0.5625,-0.0781 0.28125,-0.0937 0.57812,-0.3125 0.3125,-0.21875 0.65625,-0.57813 0.35938,-0.35937 0.79688,-0.92187 v -6.062505 h 1.59375 z m 9.4292,0 v -6.5625 q 0,-0.4375 -0.0312,-0.703125 -0.0312,-0.28125 -0.10938,-0.4375 -0.0625,-0.15625 -0.17187,-0.21875 -0.10938,-0.0625 -0.25,-0.0625 -0.1875,0 -0.34375,0.109375 -0.15625,0.109375 -0.34375,0.359375 -0.17188,0.234375 -0.39063,0.640625 -0.20312,0.40625 -0.5,1 v 5.875 h -1.4375 v -6.390625 q 0,-0.5 -0.0312,-0.8125 -0.0312,-0.3125 -0.10937,-0.484375 -0.0625,-0.171875 -0.17188,-0.234375 -0.10937,-0.0625 -0.26562,-0.0625 -0.17188,0 -0.3125,0.09375 -0.14063,0.07813 -0.32813,0.328125 -0.17187,0.234375 -0.39062,0.640625 -0.21875,0.40625 -0.51563,1.046875 v 5.875 h -1.46875 v -9.140625 h 1.21875 l 0.0781,1.734375 q 0.23437,-0.515625 0.45312,-0.875 0.21875,-0.375 0.45313,-0.59375 0.25,-0.21875 0.51562,-0.328125 0.26563,-0.109375 0.59375,-0.109375 0.73438,0 1.10938,0.484375 0.39062,0.484375 0.39062,1.5 0.21875,-0.484375 0.42188,-0.84375 0.21875,-0.375 0.45312,-0.625 0.25,-0.25 0.53125,-0.375 0.29688,-0.140625 0.6875,-0.140625 1.71875,0 1.71875,2.65625 v 6.65625 z m 21.12396,0 h -6.76563 V 92.38908 h 6.76563 v 1.359375 h -5.14063 v 3.703125 h 4.95313 v 1.359375 h -4.95313 v 4.093755 h 5.14063 z m 20.09271,3.73438 h -0.67187 q -1.76563,0 -2.625,-0.82813 -0.84375,-0.8125 -0.84375,-2.5 v -3.125 q 0,-0.45312 -0.10938,-0.79687 -0.0937,-0.35938 -0.34375,-0.59375 -0.25,-0.250005 -0.67187,-0.375005 -0.40625,-0.125 -1.03125,-0.125 h -0.40625 V 98.42033 h 0.40625 q 0.65625,0 1.07812,-0.109375 0.42188,-0.109375 0.65625,-0.328125 0.23438,-0.234375 0.32813,-0.578125 0.0937,-0.34375 0.0937,-0.8125 v -2.15625 q 0,-0.765625 0.17187,-1.375 0.1875,-0.625 0.59375,-1.046875 0.42188,-0.4375 1.07813,-0.671875 0.67187,-0.234375 1.625,-0.234375 h 0.67187 v 1.265625 h -0.53125 q -2.125,0 -2.125,2.0625 v 2.109375 q 0,2.234375 -1.92187,2.515625 1.9375,0.1875 1.9375,2.500005 v 3.10937 q 0,2.07813 2.10937,2.07813 h 0.53125 z" />
    <path
       style="fill:#ffffff;fill-rule:nonzero"
       inkscape:connector-curvature="0"
       id="path47"
       d="m 689.74426,126.57033 q -0.53125,0.14063 -1.10937,0.1875 -0.57813,0.0625 -1.17188,0.0625 -1.71875,0 -2.5625,-0.78125 -0.84375,-0.78125 -0.84375,-2.39062 v -4.76563 h -2.5625 v -1.32812 h 2.5625 v -2.51563 l 1.57813,-0.40625 v 2.92188 h 4.10937 v 1.32812 h -4.10937 v 4.64063 q 0,0.98437 0.51562,1.46875 0.53125,0.48437 1.54688,0.48437 0.4375,0 0.95312,-0.0625 0.53125,-0.0625 1.09375,-0.21875 z m 10.6167,-4.9375 q 0,0.34375 -0.0156,0.57813 0,0.21875 -0.0312,0.42187 h -6.42187 q 0,1.40625 0.78125,2.15625 0.79687,0.75 2.26562,0.75 0.40625,0 0.79688,-0.0312 0.40625,-0.0312 0.78125,-0.0781 0.375,-0.0625 0.71875,-0.125 0.34375,-0.0781 0.625,-0.15625 v 1.29687 q -0.64063,0.1875 -1.46875,0.29688 -0.8125,0.10937 -1.6875,0.10937 -1.17188,0 -2.01563,-0.3125 -0.84375,-0.3125 -1.39062,-0.92187 -0.54688,-0.60938 -0.8125,-1.48438 -0.25,-0.875 -0.25,-2 0,-0.95312 0.28125,-1.8125 0.28125,-0.85937 0.8125,-1.51562 0.53125,-0.65625 1.29687,-1.03125 0.78125,-0.39063 1.76563,-0.39063 0.95312,0 1.6875,0.3125 0.75,0.29688 1.25,0.84375 0.5,0.54688 0.76562,1.34375 0.26563,0.78125 0.26563,1.75 z m -1.65625,-0.21875 q 0.0312,-0.60937 -0.125,-1.10937 -0.14063,-0.51563 -0.45313,-0.875 -0.29687,-0.375 -0.75,-0.57813 -0.45312,-0.20312 -1.0625,-0.20312 -0.51562,0 -0.95312,0.20312 -0.42188,0.20313 -0.73438,0.5625 -0.29687,0.35938 -0.5,0.875 -0.1875,0.51563 -0.23437,1.125 z m 4.55414,-3.85937 h 1.45312 l 0.0469,1.6875 q 0.8125,-0.98438 1.59375,-1.42188 0.79687,-0.4375 1.59375,-0.4375 1.42187,0 2.15625,0.92188 0.73437,0.92187 0.67187,2.73437 h -1.59375 q 0.0156,-1.20312 -0.35937,-1.73437 -0.375,-0.54688 -1.10938,-0.54688 -0.3125,0 -0.64062,0.10938 -0.32813,0.10937 -0.67188,0.35937 -0.32812,0.25 -0.71875,0.64063 -0.375,0.39062 -0.8125,0.95312 v 5.875 h -1.60937 z m 16.41357,9.14062 v -6.5625 q 0,-0.4375 -0.0312,-0.70312 -0.0312,-0.28125 -0.10937,-0.4375 -0.0625,-0.15625 -0.17188,-0.21875 -0.10937,-0.0625 -0.25,-0.0625 -0.1875,0 -0.34375,0.10937 -0.15625,0.10938 -0.34375,0.35938 -0.17187,0.23437 -0.39062,0.64062 -0.20313,0.40625 -0.5,1 v 5.875 h -1.4375 v -6.39062 q 0,-0.5 -0.0312,-0.8125 -0.0312,-0.3125 -0.10938,-0.48438 -0.0625,-0.17187 -0.17187,-0.23437 -0.10938,-0.0625 -0.26563,-0.0625 -0.17187,0 -0.3125,0.0937 -0.14062,0.0781 -0.32812,0.32812 -0.17188,0.23438 -0.39063,0.64063 -0.21875,0.40625 -0.51562,1.04687 v 5.875 h -1.46875 v -9.14062 h 1.21875 l 0.0781,1.73437 q 0.23438,-0.51562 0.45313,-0.875 0.21875,-0.375 0.45312,-0.59375 0.25,-0.21875 0.51563,-0.32812 0.26562,-0.10938 0.59375,-0.10938 0.73437,0 1.10937,0.48438 0.39063,0.48437 0.39063,1.5 0.21875,-0.48438 0.42187,-0.84375 0.21875,-0.375 0.45313,-0.625 0.25,-0.25 0.53125,-0.375 0.29687,-0.14063 0.6875,-0.14063 1.71875,0 1.71875,2.65625 v 6.65625 z m 21.57709,-5.89062 h -7.82813 v -1.32813 h 7.82813 z m 0,3.17187 h -7.82813 v -1.32812 h 7.82813 z" />
    <path
       style="fill:#ffffff;fill-rule:nonzero"
       inkscape:connector-curvature="0"
       id="path49"
       d="m 760.92035,126.69533 h -2.03125 l -1.98438,-7.42187 -0.54687,-2.39063 -1.1875,6 -0.76563,3.8125 h -1.51562 l 2.39062,-11.90625 h 2.01563 l 1.89062,7.03125 0.64063,2.71875 1.28125,-6.375 0.6875,-3.375 h 1.5 z" />
    <path
       style="fill:#ffffff;fill-rule:nonzero"
       inkscape:connector-curvature="0"
       id="path51"
       d="m 765.25574,128.57033 q 0.45312,0.0156 0.89062,-0.0937 0.4375,-0.0937 0.76563,-0.29687 0.34375,-0.1875 0.54687,-0.48438 0.20313,-0.29687 0.20313,-0.65625 0,-0.39062 -0.14063,-0.625 -0.125,-0.23437 -0.29687,-0.4375 -0.15625,-0.20312 -0.29688,-0.42187 -0.125,-0.23438 -0.125,-0.625 0,-0.1875 0.0625,-0.39063 0.0781,-0.21875 0.21875,-0.39062 0.15625,-0.17188 0.39063,-0.28125 0.23437,-0.10938 0.5625,-0.10938 0.3125,0 0.60937,0.14063 0.29688,0.125 0.51563,0.40625 0.21875,0.26562 0.34375,0.6875 0.14062,0.40625 0.14062,0.95312 0,0.76563 -0.28125,1.45313 -0.26562,0.70312 -0.82812,1.23437 -0.54688,0.54688 -1.375,0.85938 -0.8125,0.3125 -1.90625,0.3125 z m 2.84375,-11.1875 q 0.28125,0 0.53125,0.125 0.26562,0.10938 0.45312,0.29688 0.1875,0.1875 0.29688,0.45312 0.125,0.25 0.125,0.53125 0,0.29688 -0.125,0.54688 -0.10938,0.25 -0.29688,0.4375 -0.1875,0.1875 -0.45312,0.29687 -0.25,0.10938 -0.53125,0.10938 -0.28125,0 -0.53125,-0.10938 -0.25,-0.10937 -0.45313,-0.29687 -0.1875,-0.1875 -0.29687,-0.4375 -0.10938,-0.25 -0.10938,-0.54688 0,-0.28125 0.10938,-0.53125 0.10937,-0.26562 0.29687,-0.45312 0.20313,-0.1875 0.45313,-0.29688 0.25,-0.125 0.53125,-0.125 z" />
    <path
       style="fill:#ffffff;fill-rule:nonzero"
       inkscape:connector-curvature="0"
       id="path53"
       d="m 683.088,149.09532 v -1.875 h 1.875 v 1.875 z m 6.23437,0 v -1.875 h 1.85938 v 1.875 z m 6.20313,0 v -1.875 h 1.875 v 1.875 z" />
    <path
       style="fill:#ffffff;fill-rule:nonzero"
       inkscape:connector-curvature="0"
       id="path55"
       d="m 662.4953,158.30783 h 0.67188 q 1.75,0 2.60937,0.82812 0.85938,0.8125 0.85938,2.5 v 2.09375 q 0,0.45313 0.0937,0.8125 0.10937,0.34375 0.35937,0.59375 0.25,0.23438 0.65625,0.35938 0.42188,0.125 1.0625,0.125 h 0.39063 v 1.26562 h -0.39063 q -0.67187,0 -1.09375,0.10938 -0.42187,0.10937 -0.67187,0.34375 -0.23438,0.21875 -0.32813,0.5625 -0.0781,0.34375 -0.0781,0.8125 v 3.1875 q 0,0.76562 -0.1875,1.375 -0.1875,0.625 -0.59375,1.04687 -0.40625,0.4375 -1.07813,0.67188 -0.65625,0.23437 -1.60937,0.23437 h -0.67188 v -1.28125 h 0.53125 q 2.10938,0 2.10938,-2.04687 v -3.14063 q 0,-2.23437 1.92187,-2.5 -1.9375,-0.21875 -1.9375,-2.51562 v -2.07813 q 0,-2.09375 -2.09375,-2.09375 h -0.53125 z" />
    <path
       style="fill:#000000;fill-opacity:0;fill-rule:evenodd"
       inkscape:connector-curvature="0"
       id="path67"
       d="m 795.40967,62.253162 h 84 v 37.165356 h -84 z" />
    <path
       style="fill:none;fill-opacity:1;stroke:#ffffff;stroke-width:1px;stroke-linecap:butt;stroke-linejoin:miter;stroke-opacity:1;marker-end:url(#Arrow2Mend)"
       d="m 794.07748,76.809405 c -17.49563,0 -33.63514,11.440719 -33.63514,30.254805"
       id="path1001"
       inkscape:connector-curvature="0"
       sodipodi:nodetypes="cc" />
    <text
       xml:space="preserve"
       style="font-style:normal;font-variant:normal;font-weight:normal;font-stretch:normal;font-size:18.66666603px;line-height:0;font-family:Roboto;-inkscape-font-specification:'Roboto, Normal';font-variant-ligatures:normal;font-variant-caps:normal;font-variant-numeric:normal;font-feature-settings:normal;text-align:start;writing-mode:lr-tb;text-anchor:start;fill:none;fill-opacity:1;stroke:#ffffff;stroke-width:1;stroke-linejoin:round;stroke-miterlimit:21;stroke-dasharray:0.5, 0.5;stroke-dashoffset:0;stroke-opacity:1"
       x="797.32782"
       y="80.867874"
       id="text1571"><tspan
         sodipodi:role="line"
         id="tspan1569"
         x="797.32782"
         y="80.867874"
         style="font-style:italic;font-variant:normal;font-weight:normal;font-stretch:normal;font-size:13.33333302px;font-family:Roboto;-inkscape-font-specification:'Roboto, Italic';font-variant-ligatures:normal;font-variant-caps:normal;font-variant-numeric:normal;font-feature-settings:normal;text-align:start;writing-mode:lr-tb;text-anchor:start;fill:#ffffff;fill-opacity:1;stroke:none">Optional</tspan></text>
    <g
       id="g2492"
       transform="translate(0,20.51787)">
      <text
         id="text2109"
         y="226.29131"
         x="556.65198"
         style="font-style:normal;font-variant:normal;font-weight:bold;font-stretch:normal;font-size:18.66666603px;line-height:1;font-family:Hack;-inkscape-font-specification:'Hack, Bold';font-variant-ligatures:normal;font-variant-caps:normal;font-variant-numeric:normal;font-feature-settings:normal;text-align:start;writing-mode:lr-tb;text-anchor:start;fill:#ffffff;fill-opacity:1;stroke:#ffffff;stroke-width:1;stroke-linejoin:round;stroke-miterlimit:21;stroke-dasharray:0.5, 0.5;stroke-dashoffset:0;stroke-opacity:1"
         xml:space="preserve"><tspan
           id="tspan2107"
           style="font-style:normal;font-variant:normal;font-weight:normal;font-stretch:normal;font-size:18.66666603px;font-family:Roboto;-inkscape-font-specification:'Roboto, Normal';font-variant-ligatures:normal;font-variant-caps:normal;font-variant-numeric:normal;font-feature-settings:normal;text-align:start;writing-mode:lr-tb;text-anchor:start;stroke:none"
           y="226.29131"
           x="556.65198"
           sodipodi:role="line">Generates an enum in C++</tspan></text>
      <path
         style="fill:#ffffff;fill-rule:nonzero"
         inkscape:connector-curvature="0"
         id="path2111"
         d="m 528.58762,216.01248 q 1,0 1.96875,0.53125 0.96875,0.51562 1.5,1.48437 0.53125,0.96875 0.53125,2 0,1.67188 -1.17187,2.84375 -1.17188,1.17188 -2.82813,1.17188 -1.67187,0 -2.84375,-1.17188 -1.17187,-1.17187 -1.17187,-2.84375 0,-1.04687 0.53125,-2 0.54687,-0.96875 1.5,-1.48437 0.96875,-0.53125 1.98437,-0.53125 z" />
      <text
         xml:space="preserve"
         style="font-style:normal;font-variant:normal;font-weight:bold;font-stretch:normal;font-size:18.66666603px;line-height:1;font-family:Hack;-inkscape-font-specification:'Hack, Bold';font-variant-ligatures:normal;font-variant-caps:normal;font-variant-numeric:normal;font-feature-settings:normal;text-align:start;writing-mode:lr-tb;text-anchor:start;fill:#ffffff;fill-opacity:1;stroke:#ffffff;stroke-width:1;stroke-linejoin:round;stroke-miterlimit:21;stroke-dasharray:0.5, 0.5;stroke-dashoffset:0;stroke-opacity:1"
         x="556.65198"
         y="258.36688"
         id="text2117"><tspan
           id="tspan2121"
           sodipodi:role="line"
           x="556.65198"
           y="258.36688"
           style="font-style:normal;font-variant:normal;font-weight:bold;font-stretch:normal;font-size:18.66666603px;font-family:Roboto;-inkscape-font-specification:'Roboto, Normal';font-variant-ligatures:normal;font-variant-caps:normal;font-variant-numeric:normal;font-feature-settings:normal;text-align:start;writing-mode:lr-tb;text-anchor:start;stroke:none">Conversion/Default<tspan
   id="tspan2463"
   style="font-weight:normal">: same as variants,</tspan></tspan><tspan
           id="tspan2461"
           sodipodi:role="line"
           x="556.65198"
           y="277.21585"
           style="font-style:normal;font-variant:normal;font-weight:normal;font-stretch:normal;font-size:18.66666603px;font-family:Roboto;-inkscape-font-specification:'Roboto, Normal';font-variant-ligatures:normal;font-variant-caps:normal;font-variant-numeric:normal;font-feature-settings:normal;text-align:start;writing-mode:lr-tb;text-anchor:start;stroke:none">conversion is optimized</tspan></text>
      <text
         id="text2131"
         y="312.90079"
         x="556.65198"
         style="font-style:normal;font-variant:normal;font-weight:bold;font-stretch:normal;font-size:18.66666603px;line-height:1;font-family:Hack;-inkscape-font-specification:'Hack, Bold';font-variant-ligatures:normal;font-variant-caps:normal;font-variant-numeric:normal;font-feature-settings:normal;text-align:start;writing-mode:lr-tb;text-anchor:start;fill:#ffffff;fill-opacity:1;stroke:#ffffff;stroke-width:1;stroke-linejoin:round;stroke-miterlimit:21;stroke-dasharray:0.5, 0.5;stroke-dashoffset:0;stroke-opacity:1"
         xml:space="preserve"><tspan
           style="font-style:normal;font-variant:normal;font-weight:normal;font-stretch:normal;font-size:18.66666603px;font-family:Roboto;-inkscape-font-specification:'Roboto, Normal';font-variant-ligatures:normal;font-variant-caps:normal;font-variant-numeric:normal;font-feature-settings:normal;text-align:start;writing-mode:lr-tb;text-anchor:start;stroke:none"
           y="312.90079"
           x="556.65198"
           sodipodi:role="line"
           id="tspan2129"><tspan
   style="font-style:normal;font-variant:normal;font-weight:bold;font-stretch:normal;font-size:18.66666603px;font-family:Roboto;-inkscape-font-specification:'Roboto, Normal';font-variant-ligatures:normal;font-variant-caps:normal;font-variant-numeric:normal;font-feature-settings:normal;text-align:start;writing-mode:lr-tb;text-anchor:start;stroke:none"
   id="tspan2135">Default</tspan>: <tspan
   id="tspan2465"
   style="font-style:normal;font-variant:normal;font-weight:normal;font-stretch:normal;font-size:18.66666603px;font-family:Hack;-inkscape-font-specification:'Hack, Normal';font-variant-ligatures:normal;font-variant-caps:normal;font-variant-numeric:normal;font-feature-settings:normal;text-align:start;writing-mode:lr-tb;text-anchor:start">undef</tspan> case</tspan></text>
      <path
         d="m 528.58762,247.8806 q 1,0 1.96875,0.53125 0.96875,0.51562 1.5,1.48437 0.53125,0.96875 0.53125,2 0,1.67188 -1.17187,2.84375 -1.17188,1.17188 -2.82813,1.17188 -1.67187,0 -2.84375,-1.17188 -1.17187,-1.17187 -1.17187,-2.84375 0,-1.04687 0.53125,-2 0.54687,-0.96875 1.5,-1.48437 0.96875,-0.53125 1.98437,-0.53125 z"
         id="path2139"
         inkscape:connector-curvature="0"
         style="fill:#ffffff;fill-rule:nonzero" />
      <path
         style="fill:#ffffff;fill-rule:nonzero"
         inkscape:connector-curvature="0"
         id="path2141"
         d="m 528.58762,301.68163 q 1,0 1.96875,0.53125 0.96875,0.51562 1.5,1.48437 0.53125,0.96875 0.53125,2 0,1.67188 -1.17187,2.84375 -1.17188,1.17188 -2.82813,1.17188 -1.67187,0 -2.84375,-1.17188 -1.17187,-1.17187 -1.17187,-2.84375 0,-1.04687 0.53125,-2 0.54687,-0.96875 1.5,-1.48437 0.96875,-0.53125 1.98437,-0.53125 z" />
      <text
         xml:space="preserve"
         style="font-style:normal;font-variant:normal;font-weight:bold;font-stretch:normal;font-size:18.66666603px;line-height:1;font-family:Hack;-inkscape-font-specification:'Hack, Bold';font-variant-ligatures:normal;font-variant-caps:normal;font-variant-numeric:normal;font-feature-settings:normal;text-align:start;writing-mode:lr-tb;text-anchor:start;fill:#ffffff;fill-opacity:1;stroke:#ffffff;stroke-width:1;stroke-linejoin:round;stroke-miterlimit:21;stroke-dasharray:0.5, 0.5;stroke-dashoffset:0;stroke-opacity:1"
         x="556.65198"
         y="345.84222"
         id="text2173"><tspan
           id="tspan2179"
           sodipodi:role="line"
           x="556.65198"
           y="345.84222"
           style="font-style:normal;font-variant:normal;font-weight:normal;font-stretch:normal;font-size:18.66666603px;font-family:Roboto;-inkscape-font-specification:'Roboto, Normal';font-variant-ligatures:normal;font-variant-caps:normal;font-variant-numeric:normal;font-feature-settings:normal;text-align:start;writing-mode:lr-tb;text-anchor:start;stroke:none">Can specify tag labels (ints/chars)</tspan></text>
      <path
         d="m 528.58762,334.62289 q 1,0 1.96875,0.53125 0.96875,0.51562 1.5,1.48437 0.53125,0.96875 0.53125,2 0,1.67188 -1.17187,2.84375 -1.17188,1.17188 -2.82813,1.17188 -1.67187,0 -2.84375,-1.17188 -1.17187,-1.17187 -1.17187,-2.84375 0,-1.04687 0.53125,-2 0.54687,-0.96875 1.5,-1.48437 0.96875,-0.53125 1.98437,-0.53125 z"
         id="path2175"
         inkscape:connector-curvature="0"
         style="fill:#ffffff;fill-rule:nonzero" />
    </g>
  </g>
</svg>
