<svg version="1.1" viewBox="0.0 0.0 960.0 540.0" fill="none" stroke="none" stroke-linecap="square" stroke-miterlimit="10" xmlns:xlink="http://www.w3.org/1999/xlink" xmlns="http://www.w3.org/2000/svg"><clipPath id="p.0"><path d="m0 0l960.0 0l0 540.0l-960.0 0l0 -540.0z" clip-rule="nonzero"/></clipPath><g clip-path="url(#p.0)"><path fill="#212121" d="m0 0l960.0 0l0 540.0l-960.0 0z" fill-rule="evenodd"/><path fill="#000000" fill-opacity="0.0" d="m32.72441 180.66667l894.55115 0l0 113.00786l-894.55115 0z" fill-rule="evenodd"/><path fill="#ffffff" d="m304.78238 248.73767l0 19.296875l-6.5 0l0 -49.28125l18.1875 0q8.078125 0 12.65625 4.125q4.59375 4.125 4.59375 10.9375q0 7.171875 -4.484375 11.046875q-4.484375 3.875 -12.84375 3.875l-11.609375 0zm0 -5.3125l11.6875 0q5.203125 0 7.984375 -2.453125q2.78125 -2.453125 2.78125 -7.09375q0 -4.40625 -2.78125 -7.046875q-2.78125 -2.640625 -7.625 -2.734375l-12.046875 0l0 19.328125zm53.955048 -6.40625q-1.421875 -0.234375 -3.078125 -0.234375q-6.15625 0 -8.359375 5.25l0 26.0l-6.265625 0l0 -36.625l6.09375 0l0.109375 4.234375q3.078125 -4.90625 8.734375 -4.90625q1.828125 0 2.765625 0.46875l0 5.8125zm3.4227295 12.359375q0 -5.375 2.109375 -9.671875q2.125 -4.3125 5.890625 -6.640625q3.78125 -2.328125 8.625 -2.328125q7.484375 0 12.09375 5.171875q4.625 5.171875 4.625 13.78125l0 0.4375q0 5.34375 -2.046875 9.59375q-2.046875 4.25 -5.859375 6.625q-3.796875 2.359375 -8.75 2.359375q-7.4375 0 -12.0625 -5.171875q-4.625 -5.1875 -4.625 -13.71875l0 -0.4375zm6.296875 0.75q0 6.09375 2.828125 9.78125q2.828125 3.6875 7.5625 3.6875q4.78125 0 7.578125 -3.734375q2.8125 -3.75 2.8125 -10.484375q0 -6.015625 -2.859375 -9.75q-2.859375 -3.75 -7.59375 -3.75q-4.640625 0 -7.484375 3.6875q-2.84375 3.6875 -2.84375 10.5625zm43.39807 -27.59375l0 8.875l6.84375 0l0 4.84375l-6.84375 0l0 22.703125q0 2.203125 0.90625 3.3125q0.921875 1.09375 3.125 1.09375q1.078125 0 2.984375 -0.40625l0 5.078125q-2.484375 0.671875 -4.8125 0.671875q-4.203125 0 -6.34375 -2.53125q-2.125 -2.546875 -2.125 -7.21875l0 -22.703125l-6.671875 0l0 -4.84375l6.671875 0l0 -8.875l6.265625 0zm11.813416 26.84375q0 -5.375 2.109375 -9.671875q2.125 -4.3125 5.890625 -6.640625q3.78125 -2.328125 8.625 -2.328125q7.484375 0 12.09375 5.171875q4.625 5.171875 4.625 13.78125l0 0.4375q0 5.34375 -2.046875 9.59375q-2.046875 4.25 -5.859375 6.625q-3.796875 2.359375 -8.75 2.359375q-7.4375 0 -12.0625 -5.171875q-4.625 -5.1875 -4.625 -13.71875l0 -0.4375zm6.296875 0.75q0 6.09375 2.828125 9.78125q2.828125 3.6875 7.5625 3.6875q4.78125 0 7.578125 -3.734375q2.8125 -3.75 2.8125 -10.484375q0 -6.015625 -2.859375 -9.75q-2.859375 -3.75 -7.59375 -3.75q-4.640625 0 -7.484375 3.6875q-2.84375 3.6875 -2.84375 10.5625zm49.601196 13.46875q3.34375 0 5.84375 -2.03125q2.515625 -2.03125 2.78125 -5.078125l5.921875 0q-0.171875 3.15625 -2.171875 6.0q-1.984375 2.84375 -5.328125 4.53125q-3.328125 1.6875 -7.046875 1.6875q-7.484375 0 -11.90625 -4.984375q-4.421875 -5.0 -4.421875 -13.65625l0 -1.0625q0 -5.34375 1.96875 -9.5q1.96875 -4.171875 5.640625 -6.46875q3.671875 -2.296875 8.671875 -2.296875q6.171875 0 10.25 3.6875q4.078125 3.6875 4.34375 9.578125l-5.921875 0q-0.265625 -3.5625 -2.6875 -5.84375q-2.421875 -2.28125 -5.984375 -2.28125q-4.765625 0 -7.390625 3.4375q-2.625 3.4375 -2.625 9.9375l0 1.171875q0 6.34375 2.609375 9.765625q2.609375 3.40625 7.453125 3.40625zm19.929565 -14.21875q0 -5.375 2.109375 -9.671875q2.125 -4.3125 5.890625 -6.640625q3.78125 -2.328125 8.625 -2.328125q7.484375 0 12.09375 5.171875q4.625 5.171875 4.625 13.78125l0 0.4375q0 5.34375 -2.046875 9.59375q-2.046875 4.25 -5.859375 6.625q-3.796875 2.359375 -8.75 2.359375q-7.4375 0 -12.0625 -5.171875q-4.625 -5.1875 -4.625 -13.71875l0 -0.4375zm6.296875 0.75q0 6.09375 2.828125 9.78125q2.828125 3.6875 7.5625 3.6875q4.78125 0 7.578125 -3.734375q2.8125 -3.75 2.8125 -10.484375q0 -6.015625 -2.859375 -9.75q-2.859375 -3.75 -7.59375 -3.75q-4.640625 0 -7.484375 3.6875q-2.84375 3.6875 -2.84375 10.5625zm41.71057 17.90625l-6.265625 0l0 -52.0l6.265625 0l0 52.0zm48.815186 -49.28125l6.53125 0l0 34.890625q0 7.078125 -4.25 11.078125q-4.25 3.984375 -11.328125 3.984375q-7.34375 0 -11.4375 -3.75q-4.09375 -3.765625 -4.09375 -10.53125l6.5 0q0 4.234375 2.3125 6.609375q2.328125 2.359375 6.71875 2.359375q4.03125 0 6.515625 -2.53125q2.5 -2.546875 2.53125 -7.109375l0 -35.0zm24.56482 49.28125l-6.5 0l0 -49.28125l6.5 0l0 49.28125zm44.967346 -43.9375l-15.84375 0l0 43.9375l-6.46875 0l0 -43.9375l-15.8125 0l0 -5.34375l38.125 0l0 5.34375z" fill-rule="nonzero"/></g></svg>