<svg version="1.1" viewBox="0.0 0.0 960.0 540.0" fill="none" stroke="none" stroke-linecap="square" stroke-miterlimit="10" xmlns:xlink="http://www.w3.org/1999/xlink" xmlns="http://www.w3.org/2000/svg"><clipPath id="g131f26ff5ad_2_20.0"><path d="m0 0l960.0 0l0 540.0l-960.0 0l0 -540.0z" clip-rule="nonzero"/></clipPath><g clip-path="url(#g131f26ff5ad_2_20.0)"><path fill="#212121" d="m0 0l960.0 0l0 540.0l-960.0 0z" fill-rule="evenodd"/><path fill="#000000" fill-opacity="0.0" d="m32.72441 46.721786l894.55115 0l0 60.125984l-894.55115 0z" fill-rule="evenodd"/><path fill="#ffffff" d="m48.56816 64.08716l7.796875 19.5l7.8125 -19.5l4.09375 0l0 23.890625l-3.15625 0l0 -9.296875l0.296875 -10.046875l-7.84375 19.34375l-2.40625 0l-7.828125 -19.296875l0.3125 10.0l0 9.296875l-3.15625 0l0 -23.890625l4.078125 0zm23.985168 14.859375q0 -2.609375 1.015625 -4.6875q1.03125 -2.09375 2.859375 -3.21875q1.828125 -1.140625 4.171875 -1.140625q3.625 0 5.859375 2.515625q2.25 2.5 2.25 6.671875l0 0.21875q0 2.59375 -1.0 4.65625q-0.984375 2.046875 -2.84375 3.203125q-1.84375 1.140625 -4.234375 1.140625q-3.609375 0 -5.84375 -2.5q-2.234375 -2.515625 -2.234375 -6.65625l0 -0.203125zm3.046875 0.359375q0 2.953125 1.359375 4.734375q1.375 1.78125 3.671875 1.78125q2.3125 0 3.671875 -1.8125q1.359375 -1.8125 1.359375 -5.0625q0 -2.921875 -1.390625 -4.734375q-1.375 -1.8125 -3.671875 -1.8125q-2.25 0 -3.625 1.796875q-1.375 1.78125 -1.375 5.109375zm21.01831 -13.375l0 4.296875l3.328125 0l0 2.34375l-3.328125 0l0 11.015625q0 1.0625 0.4375 1.59375q0.453125 0.53125 1.515625 0.53125q0.53125 0 1.453125 -0.1875l0 2.453125q-1.203125 0.328125 -2.328125 0.328125q-2.03125 0 -3.078125 -1.21875q-1.03125 -1.234375 -1.03125 -3.5l0 -11.015625l-3.234375 0l0 -2.34375l3.234375 0l0 -4.296875l3.03125 0zm10.16124 22.046875l-3.03125 0l0 -17.75l3.03125 0l0 17.75zm-3.28125 -22.453125q0 -0.734375 0.453125 -1.25q0.453125 -0.515625 1.328125 -0.515625q0.890625 0 1.34375 0.515625q0.46875 0.515625 0.46875 1.25q0 0.734375 -0.46875 1.234375q-0.453125 0.484375 -1.34375 0.484375q-0.875 0 -1.328125 -0.484375q-0.453125 -0.5 -0.453125 -1.234375zm13.99614 18.328125l4.390625 -13.625l3.109375 0l-6.375 17.75l-2.3125 0l-6.421875 -17.75l3.09375 0l4.515625 13.625zm21.119629 4.125q-0.265625 -0.53125 -0.421875 -1.875q-2.109375 2.203125 -5.046875 2.203125q-2.625 0 -4.3125 -1.484375q-1.6875 -1.484375 -1.6875 -3.765625q0 -2.765625 2.109375 -4.296875q2.109375 -1.546875 5.9375 -1.546875l2.953125 0l0 -1.390625q0 -1.59375 -0.953125 -2.53125q-0.953125 -0.9375 -2.8125 -0.9375q-1.625 0 -2.71875 0.828125q-1.09375 0.8125 -1.09375 1.96875l-3.046875 0q0 -1.328125 0.9375 -2.5625q0.9375 -1.25 2.546875 -1.96875q1.625 -0.71875 3.5625 -0.71875q3.0625 0 4.796875 1.53125q1.75 1.53125 1.8125 4.234375l0 8.15625q0 2.453125 0.625 3.890625l0 0.265625l-3.1875 0zm-5.03125 -2.3125q1.421875 0 2.703125 -0.734375q1.28125 -0.75 1.859375 -1.921875l0 -3.640625l-2.375 0q-5.578125 0 -5.578125 3.265625q0 1.421875 0.9375 2.234375q0.953125 0.796875 2.453125 0.796875zm16.460663 -19.734375l0 4.296875l3.328125 0l0 2.34375l-3.328125 0l0 11.015625q0 1.0625 0.4375 1.59375q0.453125 0.53125 1.515625 0.53125q0.53125 0 1.453125 -0.1875l0 2.453125q-1.203125 0.328125 -2.328125 0.328125q-2.03125 0 -3.078125 -1.21875q-1.03125 -1.234375 -1.03125 -3.5l0 -11.015625l-3.234375 0l0 -2.34375l3.234375 0l0 -4.296875l3.03125 0zm10.16124 22.046875l-3.03125 0l0 -17.75l3.03125 0l0 17.75zm-3.28125 -22.453125q0 -0.734375 0.453125 -1.25q0.453125 -0.515625 1.328125 -0.515625q0.890625 0 1.34375 0.515625q0.46875 0.515625 0.46875 1.25q0 0.734375 -0.46875 1.234375q-0.453125 0.484375 -1.34375 0.484375q-0.875 0 -1.328125 -0.484375q-0.453125 -0.5 -0.453125 -1.234375zm7.3398895 13.421875q0 -2.609375 1.015625 -4.6875q1.03125 -2.09375 2.859375 -3.21875q1.828125 -1.140625 4.171875 -1.140625q3.625 0 5.859375 2.515625q2.25 2.5 2.25 6.671875l0 0.21875q0 2.59375 -1.0 4.65625q-0.984375 2.046875 -2.84375 3.203125q-1.84375 1.140625 -4.234375 1.140625q-3.609375 0 -5.84375 -2.5q-2.234375 -2.515625 -2.234375 -6.65625l0 -0.203125zm3.046875 0.359375q0 2.953125 1.359375 4.734375q1.375 1.78125 3.671875 1.78125q2.3125 0 3.671875 -1.8125q1.359375 -1.8125 1.359375 -5.0625q0 -2.921875 -1.390625 -4.734375q-1.375 -1.8125 -3.671875 -1.8125q-2.25 0 -3.625 1.796875q-1.375 1.78125 -1.375 5.109375zm19.783936 -9.078125l0.09375 2.234375q2.03125 -2.5625 5.3125 -2.5625q5.625 0 5.671875 6.34375l0 11.734375l-3.03125 0l0 -11.75q-0.015625 -1.90625 -0.875 -2.828125q-0.859375 -0.921875 -2.6875 -0.921875q-1.46875 0 -2.59375 0.796875q-1.109375 0.78125 -1.734375 2.0625l0 12.640625l-3.03125 0l0 -17.75l2.875 0z" fill-rule="nonzero"/><path fill="#000000" fill-opacity="0.0" d="m303.02887 465.55643l177.38583 -310.3307l177.38583 310.3307z" fill-rule="evenodd"/><path stroke="#ffffff" stroke-width="4.0" stroke-linejoin="round" stroke-linecap="butt" d="m303.02887 465.55643l177.38583 -310.3307l177.38583 310.3307z" fill-rule="evenodd"/><path fill="#000000" fill-opacity="0.0" d="m399.063 113.20998l162.39368 0l0 42.015747l-162.39368 0z" fill-rule="evenodd"/><path fill="#ffffff" d="m434.28815 129.0831l-4.0625 0l0 11.046875l-2.734375 0l0 -11.046875l-4.015625 0l0 -2.21875l10.8125 0l0 2.21875zm6.32428 3.65625q-0.53125 -0.0625 -0.9375 -0.0625q-1.5 0 -1.96875 1.0l0 6.453125l-2.625 0l0 -9.859375l2.484375 0l0.078125 1.171875q0.78125 -1.34375 2.1875 -1.34375q0.4375 0 0.828125 0.109375l-0.046875 2.53125zm6.7032166 7.390625q-0.171875 -0.359375 -0.265625 -0.890625q-0.953125 1.078125 -2.484375 1.078125q-1.453125 0 -2.40625 -0.84375q-0.9375 -0.84375 -0.9375 -2.109375q0 -1.578125 1.15625 -2.40625q1.15625 -0.84375 3.359375 -0.84375l1.203125 0l0 -0.578125q0 -0.671875 -0.359375 -1.078125q-0.34375 -0.421875 -1.09375 -0.421875q-0.65625 0 -1.046875 0.328125q-0.375 0.3125 -0.375 0.875l-2.625 0q0 -0.859375 0.515625 -1.578125q0.53125 -0.734375 1.5 -1.140625q0.96875 -0.421875 2.171875 -0.421875q1.8125 0 2.875 0.921875q1.078125 0.90625 1.078125 2.5625l0 4.265625q0.015625 1.40625 0.390625 2.125l0 0.15625l-2.65625 0zm-2.171875 -1.828125q0.578125 0 1.0625 -0.25q0.5 -0.265625 0.734375 -0.703125l0 -1.703125l-0.984375 0q-1.96875 0 -2.09375 1.375l-0.015625 0.15625q0 0.484375 0.34375 0.8125q0.34375 0.3125 0.953125 0.3125zm8.892853 -8.03125l0.078125 1.140625q1.0625 -1.3125 2.828125 -1.3125q1.578125 0 2.34375 0.921875q0.765625 0.90625 0.78125 2.734375l0 6.375l-2.640625 0l0 -6.296875q0 -0.84375 -0.359375 -1.21875q-0.359375 -0.375 -1.21875 -0.375q-1.109375 0 -1.65625 0.9375l0 6.953125l-2.640625 0l0 -9.859375l2.484375 0zm13.354858 7.140625q0 -0.484375 -0.484375 -0.765625q-0.46875 -0.28125 -1.515625 -0.5q-3.53125 -0.734375 -3.53125 -2.984375q0 -1.3125 1.09375 -2.1875q1.09375 -0.875 2.84375 -0.875q1.875 0 3.0 0.890625q1.125 0.875 1.125 2.28125l-2.625 0q0 -0.5625 -0.375 -0.921875q-0.359375 -0.375 -1.125 -0.375q-0.671875 0 -1.03125 0.296875q-0.359375 0.296875 -0.359375 0.765625q0 0.4375 0.40625 0.703125q0.421875 0.265625 1.40625 0.46875q0.984375 0.1875 1.65625 0.4375q2.078125 0.765625 2.078125 2.65625q0 1.34375 -1.15625 2.1875q-1.15625 0.828125 -2.984375 0.828125q-1.234375 0 -2.203125 -0.4375q-0.953125 -0.453125 -1.5 -1.21875q-0.546875 -0.765625 -0.546875 -1.671875l2.484375 0q0.046875 0.703125 0.53125 1.078125q0.484375 0.375 1.28125 0.375q0.765625 0 1.140625 -0.28125q0.390625 -0.296875 0.390625 -0.75zm13.13916 -2.125q0 2.28125 -1.046875 3.65625q-1.03125 1.375 -2.78125 1.375q-1.5 0 -2.421875 -1.046875l0 4.65625l-2.625 0l0 -13.65625l2.4375 0l0.09375 0.96875q0.953125 -1.140625 2.5 -1.140625q1.8125 0 2.828125 1.34375q1.015625 1.34375 1.015625 3.71875l0 0.125zm-2.640625 -0.1875q0 -1.375 -0.484375 -2.109375q-0.484375 -0.75 -1.421875 -0.75q-1.234375 0 -1.703125 0.9375l0 4.03125q0.484375 0.984375 1.71875 0.984375q1.890625 0 1.890625 -3.09375zm9.972015 5.03125q-0.171875 -0.359375 -0.265625 -0.890625q-0.953125 1.078125 -2.484375 1.078125q-1.453125 0 -2.40625 -0.84375q-0.9375 -0.84375 -0.9375 -2.109375q0 -1.578125 1.15625 -2.40625q1.15625 -0.84375 3.359375 -0.84375l1.203125 0l0 -0.578125q0 -0.671875 -0.359375 -1.078125q-0.34375 -0.421875 -1.09375 -0.421875q-0.65625 0 -1.046875 0.328125q-0.375 0.3125 -0.375 0.875l-2.625 0q0 -0.859375 0.515625 -1.578125q0.53125 -0.734375 1.5 -1.140625q0.96875 -0.421875 2.171875 -0.421875q1.8125 0 2.875 0.921875q1.078125 0.90625 1.078125 2.5625l0 4.265625q0.015625 1.40625 0.390625 2.125l0 0.15625l-2.65625 0zm-2.171875 -1.828125q0.578125 0 1.0625 -0.25q0.5 -0.265625 0.734375 -0.703125l0 -1.703125l-0.984375 0q-1.96875 0 -2.09375 1.375l-0.015625 0.15625q0 0.484375 0.34375 0.8125q0.34375 0.3125 0.953125 0.3125zm12.002228 -5.5625q-0.53125 -0.0625 -0.9375 -0.0625q-1.5 0 -1.96875 1.0l0 6.453125l-2.625 0l0 -9.859375l2.484375 0l0.078125 1.171875q0.78125 -1.34375 2.1875 -1.34375q0.4375 0 0.828125 0.109375l-0.046875 2.53125zm5.6316223 7.578125q-2.171875 0 -3.53125 -1.328125q-1.359375 -1.34375 -1.359375 -3.546875l0 -0.265625q0 -1.484375 0.5625 -2.640625q0.578125 -1.171875 1.625 -1.796875q1.0625 -0.640625 2.40625 -0.640625q2.03125 0 3.1875 1.28125q1.15625 1.265625 1.15625 3.609375l0 1.0625l-6.265625 0q0.125 0.96875 0.765625 1.5625q0.640625 0.578125 1.625 0.578125q1.515625 0 2.375 -1.109375l1.296875 1.453125q-0.59375 0.84375 -1.609375 1.3125q-1.0 0.46875 -2.234375 0.46875zm-0.296875 -8.09375q-0.78125 0 -1.28125 0.53125q-0.484375 0.53125 -0.609375 1.515625l3.65625 0l0 -0.21875q-0.015625 -0.875 -0.484375 -1.34375q-0.453125 -0.484375 -1.28125 -0.484375zm8.271698 -1.953125l0.078125 1.140625q1.0625 -1.3125 2.828125 -1.3125q1.578125 0 2.34375 0.921875q0.765625 0.90625 0.78125 2.734375l0 6.375l-2.640625 0l0 -6.296875q0 -0.84375 -0.359375 -1.21875q-0.359375 -0.375 -1.21875 -0.375q-1.109375 0 -1.65625 0.9375l0 6.953125l-2.640625 0l0 -9.859375l2.484375 0zm12.120483 7.921875q0.734375 0 1.1875 -0.390625q0.453125 -0.40625 0.46875 -1.078125l2.46875 0q0 1.0 -0.546875 1.84375q-0.53125 0.828125 -1.46875 1.296875q-0.9375 0.453125 -2.0625 0.453125q-2.109375 0 -3.34375 -1.34375q-1.21875 -1.34375 -1.21875 -3.71875l0 -0.171875q0 -2.28125 1.21875 -3.625q1.21875 -1.359375 3.328125 -1.359375q1.84375 0 2.953125 1.046875q1.125 1.046875 1.140625 2.796875l-2.46875 0q-0.015625 -0.765625 -0.46875 -1.234375q-0.453125 -0.484375 -1.203125 -0.484375q-0.921875 0 -1.390625 0.671875q-0.46875 0.671875 -0.46875 2.171875l0 0.265625q0 1.53125 0.453125 2.203125q0.46875 0.65625 1.421875 0.65625zm9.307068 -1.78125l1.828125 -6.140625l2.828125 0l-3.96875 11.390625l-0.21875 0.515625q-0.890625 1.9375 -2.921875 1.9375q-0.5625 0 -1.15625 -0.171875l0 -2.0l0.390625 0.015625q0.75 0 1.109375 -0.234375q0.375 -0.234375 0.59375 -0.75l0.3125 -0.8125l-3.453125 -9.890625l2.828125 0l1.828125 6.140625z" fill-rule="nonzero"/><path fill="#000000" fill-opacity="0.0" d="m662.9134 441.79266l118.04724 0l0 42.015747l-118.04724 0z" fill-rule="evenodd"/><path fill="#ffffff" d="m679.9759 465.22827q0 -0.765625 -0.546875 -1.171875q-0.546875 -0.421875 -1.96875 -0.875q-1.421875 -0.46875 -2.25 -0.921875q-2.265625 -1.21875 -2.265625 -3.28125q0 -1.078125 0.609375 -1.921875q0.609375 -0.84375 1.734375 -1.3125q1.140625 -0.484375 2.5625 -0.484375q1.40625 0 2.515625 0.515625q1.125 0.515625 1.734375 1.453125q0.609375 0.9375 0.609375 2.140625l-2.71875 0q0 -0.90625 -0.578125 -1.40625q-0.578125 -0.515625 -1.609375 -0.515625q-1.015625 0 -1.578125 0.421875q-0.546875 0.421875 -0.546875 1.109375q0 0.65625 0.65625 1.09375q0.65625 0.4375 1.921875 0.8125q2.328125 0.703125 3.390625 1.75q1.0625 1.03125 1.0625 2.578125q0 1.71875 -1.296875 2.703125q-1.296875 0.984375 -3.5 0.984375q-1.53125 0 -2.796875 -0.5625q-1.25 -0.5625 -1.921875 -1.53125q-0.65625 -0.984375 -0.65625 -2.265625l2.75 0q0 2.1875 2.625 2.1875q0.96875 0 1.515625 -0.390625q0.546875 -0.390625 0.546875 -1.109375zm13.296997 -1.359375q0 2.28125 -1.046875 3.65625q-1.03125 1.375 -2.78125 1.375q-1.5 0 -2.421875 -1.046875l0 4.65625l-2.625 0l0 -13.65625l2.4375 0l0.09375 0.96875q0.953125 -1.140625 2.5 -1.140625q1.8125 0 2.828125 1.34375q1.015625 1.34375 1.015625 3.71875l0 0.125zm-2.640625 -0.1875q0 -1.375 -0.484375 -2.109375q-0.484375 -0.75 -1.421875 -0.75q-1.234375 0 -1.703125 0.9375l0 4.03125q0.484375 0.984375 1.71875 0.984375q1.890625 0 1.890625 -3.09375zm8.80011 5.21875q-2.171875 0 -3.53125 -1.328125q-1.359375 -1.34375 -1.359375 -3.546875l0 -0.265625q0 -1.484375 0.5625 -2.640625q0.578125 -1.171875 1.625 -1.796875q1.0625 -0.640625 2.40625 -0.640625q2.03125 0 3.1875 1.28125q1.15625 1.265625 1.15625 3.609375l0 1.0625l-6.265625 0q0.125 0.96875 0.765625 1.5625q0.640625 0.578125 1.625 0.578125q1.515625 0 2.375 -1.109375l1.296875 1.453125q-0.59375 0.84375 -1.609375 1.3125q-1.0 0.46875 -2.234375 0.46875zm-0.296875 -8.09375q-0.78125 0 -1.28125 0.53125q-0.484375 0.53125 -0.609375 1.515625l3.65625 0l0 -0.21875q-0.015625 -0.875 -0.484375 -1.34375q-0.453125 -0.484375 -1.28125 -0.484375zm10.3811035 8.09375q-2.171875 0 -3.53125 -1.328125q-1.359375 -1.34375 -1.359375 -3.546875l0 -0.265625q0 -1.484375 0.5625 -2.640625q0.578125 -1.171875 1.625 -1.796875q1.0625 -0.640625 2.40625 -0.640625q2.03125 0 3.1875 1.28125q1.15625 1.265625 1.15625 3.609375l0 1.0625l-6.265625 0q0.125 0.96875 0.765625 1.5625q0.640625 0.578125 1.625 0.578125q1.515625 0 2.375 -1.109375l1.296875 1.453125q-0.59375 0.84375 -1.609375 1.3125q-1.0 0.46875 -2.234375 0.46875zm-0.296875 -8.09375q-0.78125 0 -1.28125 0.53125q-0.484375 0.53125 -0.609375 1.515625l3.65625 0l0 -0.21875q-0.015625 -0.875 -0.484375 -1.34375q-0.453125 -0.484375 -1.28125 -0.484375zm5.4279175 2.90625q0 -2.3125 1.03125 -3.671875q1.046875 -1.359375 2.84375 -1.359375q1.4375 0 2.375 1.0625l0 -5.03125l2.640625 0l0 14.0l-2.375 0l-0.125 -1.046875q-0.984375 1.234375 -2.53125 1.234375q-1.75 0 -2.8125 -1.375q-1.046875 -1.375 -1.046875 -3.8125zm2.640625 0.1875q0 1.390625 0.484375 2.125q0.484375 0.734375 1.40625 0.734375q1.21875 0 1.71875 -1.03125l0 -3.890625q-0.5 -1.015625 -1.703125 -1.015625q-1.90625 0 -1.90625 3.078125z" fill-rule="nonzero"/><path fill="#000000" fill-opacity="0.0" d="m125.20582 441.79266l243.55905 0l0 42.015747l-243.55905 0z" fill-rule="evenodd"/><path fill="#ffffff" d="m140.28395 465.4314l3.015625 -9.984375l3.046875 0l-4.625 13.265625l-2.84375 0l-4.609375 -13.265625l3.03125 0l2.984375 9.984375zm11.26532 3.46875q-2.171875 0 -3.53125 -1.328125q-1.359375 -1.34375 -1.359375 -3.546875l0 -0.265625q0 -1.484375 0.5625 -2.640625q0.578125 -1.171875 1.625 -1.796875q1.0625 -0.640625 2.40625 -0.640625q2.03125 0 3.1875 1.28125q1.15625 1.265625 1.15625 3.609375l0 1.0625l-6.265625 0q0.125 0.96875 0.765625 1.5625q0.640625 0.578125 1.625 0.578125q1.515625 0 2.375 -1.109375l1.296875 1.453125q-0.59375 0.84375 -1.609375 1.3125q-1.0 0.46875 -2.234375 0.46875zm-0.296875 -8.09375q-0.78125 0 -1.28125 0.53125q-0.484375 0.53125 -0.609375 1.515625l3.65625 0l0 -0.21875q-0.015625 -0.875 -0.484375 -1.34375q-0.453125 -0.484375 -1.28125 -0.484375zm11.381088 0.515625q-0.53125 -0.0625 -0.9375 -0.0625q-1.5 0 -1.96875 1.0l0 6.453125l-2.625 0l0 -9.859375l2.484375 0l0.078125 1.171875q0.78125 -1.34375 2.1875 -1.34375q0.4375 0 0.828125 0.109375l-0.046875 2.53125zm6.6016693 4.671875q0 -0.484375 -0.484375 -0.765625q-0.46875 -0.28125 -1.515625 -0.5q-3.53125 -0.734375 -3.53125 -2.984375q0 -1.3125 1.09375 -2.1875q1.09375 -0.875 2.84375 -0.875q1.875 0 3.0 0.890625q1.125 0.875 1.125 2.28125l-2.625 0q0 -0.5625 -0.375 -0.921875q-0.359375 -0.375 -1.125 -0.375q-0.671875 0 -1.03125 0.296875q-0.359375 0.296875 -0.359375 0.765625q0 0.4375 0.40625 0.703125q0.421875 0.265625 1.40625 0.46875q0.984375 0.1875 1.65625 0.4375q2.078125 0.765625 2.078125 2.65625q0 1.34375 -1.15625 2.1875q-1.15625 0.828125 -2.984375 0.828125q-1.234375 0 -2.203125 -0.4375q-0.953125 -0.453125 -1.5 -1.21875q-0.546875 -0.765625 -0.546875 -1.671875l2.484375 0q0.046875 0.703125 0.53125 1.078125q0.484375 0.375 1.28125 0.375q0.765625 0 1.140625 -0.28125q0.390625 -0.296875 0.390625 -0.75zm7.0454254 2.71875l-2.65625 0l0 -9.859375l2.65625 0l0 9.859375zm-2.796875 -12.40625q0 -0.59375 0.390625 -0.96875q0.390625 -0.390625 1.078125 -0.390625q0.671875 0 1.0625 0.390625q0.40625 0.375 0.40625 0.96875q0 0.59375 -0.40625 0.984375q-0.390625 0.375 -1.0625 0.375q-0.671875 0 -1.078125 -0.375q-0.390625 -0.390625 -0.390625 -0.984375zm4.540207 7.390625q0 -1.46875 0.5625 -2.609375q0.578125 -1.15625 1.640625 -1.78125q1.0625 -0.625 2.453125 -0.625q2.0 0 3.265625 1.21875q1.265625 1.21875 1.40625 3.3125l0.015625 0.671875q0 2.265625 -1.265625 3.640625q-1.265625 1.375 -3.40625 1.375q-2.125 0 -3.40625 -1.359375q-1.265625 -1.375 -1.265625 -3.734375l0 -0.109375zm2.640625 0.1875q0 1.40625 0.53125 2.15625q0.53125 0.734375 1.515625 0.734375q0.953125 0 1.484375 -0.734375q0.546875 -0.734375 0.546875 -2.34375q0 -1.375 -0.546875 -2.125q-0.53125 -0.765625 -1.515625 -0.765625q-0.953125 0 -1.484375 0.75q-0.53125 0.75 -0.53125 2.328125zm10.751923 -5.03125l0.078125 1.140625q1.0625 -1.3125 2.828125 -1.3125q1.578125 0 2.34375 0.921875q0.765625 0.90625 0.78125 2.734375l0 6.375l-2.640625 0l0 -6.296875q0 -0.84375 -0.359375 -1.21875q-0.359375 -0.375 -1.21875 -0.375q-1.109375 0 -1.65625 0.9375l0 6.953125l-2.640625 0l0 -9.859375l2.484375 0zm19.266312 -2.09375q-0.78125 -0.09375 -1.453125 -0.09375q-1.78125 0 -1.78125 1.53125l0 0.65625l1.953125 0l0 1.9375l-1.953125 0l0 7.921875l-2.640625 0l0 -7.921875l-1.46875 0l0 -1.9375l1.46875 0l0 -0.765625q0.015625 -1.703125 1.0625 -2.625q1.0625 -0.9375 3.0 -0.9375q1.375 0 4.453125 0.296875l0 13.890625l-2.640625 0l0 -11.953125zm9.369919 12.140625q-2.171875 0 -3.53125 -1.328125q-1.359375 -1.34375 -1.359375 -3.546875l0 -0.265625q0 -1.484375 0.5625 -2.640625q0.578125 -1.171875 1.625 -1.796875q1.0625 -0.640625 2.40625 -0.640625q2.03125 0 3.1875 1.28125q1.15625 1.265625 1.15625 3.609375l0 1.0625l-6.265625 0q0.125 0.96875 0.765625 1.5625q0.640625 0.578125 1.625 0.578125q1.515625 0 2.375 -1.109375l1.296875 1.453125q-0.59375 0.84375 -1.609375 1.3125q-1.0 0.46875 -2.234375 0.46875zm-0.296875 -8.09375q-0.78125 0 -1.28125 0.53125q-0.484375 0.53125 -0.609375 1.515625l3.65625 0l0 -0.21875q-0.015625 -0.875 -0.484375 -1.34375q-0.453125 -0.484375 -1.28125 -0.484375zm9.599838 0.984375l1.65625 -2.9375l2.8125 0l-2.796875 4.828125l2.921875 5.03125l-2.828125 0l-1.765625 -3.09375l-1.734375 3.09375l-2.84375 0l2.921875 -5.03125l-2.796875 -4.828125l2.828125 0l1.625 2.9375zm8.523346 6.921875l-2.65625 0l0 -9.859375l2.65625 0l0 9.859375zm-2.796875 -12.40625q0 -0.59375 0.390625 -0.96875q0.390625 -0.390625 1.078125 -0.390625q0.671875 0 1.0625 0.390625q0.40625 0.375 0.40625 0.96875q0 0.59375 -0.40625 0.984375q-0.390625 0.375 -1.0625 0.375q-0.671875 0 -1.078125 -0.375q-0.390625 -0.390625 -0.390625 -0.984375zm13.837082 7.5625q0 2.375 -1.015625 3.703125q-1.0 1.328125 -2.8125 1.328125q-1.609375 0 -2.5625 -1.234375l-0.125 1.046875l-2.359375 0l0 -14.0l2.625 0l0 5.03125q0.921875 -1.0625 2.40625 -1.0625q1.796875 0 2.8125 1.328125q1.03125 1.3125 1.03125 3.71875l0 0.140625zm-2.625 -0.1875q0 -1.484375 -0.484375 -2.171875q-0.46875 -0.6875 -1.40625 -0.6875q-1.25 0 -1.734375 1.015625l0 3.890625q0.484375 1.046875 1.75 1.046875q1.28125 0 1.671875 -1.265625q0.203125 -0.59375 0.203125 -1.828125zm7.0345 5.03125l-2.65625 0l0 -9.859375l2.65625 0l0 9.859375zm-2.796875 -12.40625q0 -0.59375 0.390625 -0.96875q0.390625 -0.390625 1.078125 -0.390625q0.671875 0 1.0625 0.390625q0.40625 0.375 0.40625 0.96875q0 0.59375 -0.40625 0.984375q-0.390625 0.375 -1.0625 0.375q-0.671875 0 -1.078125 -0.375q-0.390625 -0.390625 -0.390625 -0.984375zm7.7433167 12.40625l-2.6562347 0l0 -14.0l2.6562347 0l0 14.0zm4.946472 0l-2.65625 0l0 -9.859375l2.65625 0l0 9.859375zm-2.796875 -12.40625q0 -0.59375 0.390625 -0.96875q0.390625 -0.390625 1.078125 -0.390625q0.671875 0 1.0625 0.390625q0.40625 0.375 0.40625 0.96875q0 0.59375 -0.40625 0.984375q-0.390625 0.375 -1.0625 0.375q-0.671875 0 -1.078125 -0.375q-0.390625 -0.390625 -0.390625 -0.984375zm8.102692 0.125l0 2.421875l1.6875 0l0 1.9375l-1.6875 0l0 4.921875q0 0.546875 0.203125 0.78125q0.21875 0.234375 0.8125 0.234375q0.4375 0 0.78125 -0.0625l0 2.0q-0.78125 0.234375 -1.59375 0.234375q-2.78125 0 -2.828125 -2.796875l0 -5.3125l-1.4375 0l0 -1.9375l1.4375 0l0 -2.421875l2.625 0zm6.835022 8.5625l1.828125 -6.140625l2.828125 0l-3.96875 11.390625l-0.21875 0.515625q-0.890625 1.9375 -2.921875 1.9375q-0.5625 0 -1.15625 -0.171875l0 -2.0l0.390625 0.015625q0.75 0 1.109375 -0.234375q0.375 -0.234375 0.59375 -0.75l0.3125 -0.8125l-3.453125 -9.890625l2.828125 0l1.828125 6.140625z" fill-rule="nonzero"/><path fill="#93c47d" d="m307.40936 462.6285l173.11813 -302.86615l173.11807 302.86615z" fill-rule="evenodd"/><path fill="#000000" fill-opacity="0.0" d="m419.14435 326.59317l210.2992 0l0 42.015747l-210.2992 0z" fill-rule="evenodd"/><path fill="#ffffff" d="m432.06622 348.8413l0 4.671875l-2.734375 0l0 -13.265625l5.171875 0q1.5 0 2.625 0.546875q1.140625 0.546875 1.75 1.5625q0.609375 1.0 0.609375 2.28125q0 1.953125 -1.34375 3.078125q-1.328125 1.125 -3.6875 1.125l-2.390625 0zm0 -2.21875l2.4375 0q1.078125 0 1.640625 -0.5q0.578125 -0.515625 0.578125 -1.46875q0 -0.96875 -0.578125 -1.5625q-0.5625 -0.609375 -1.578125 -0.625l-2.5 0l0 4.15625zm14.658661 -0.5q-0.53125 -0.0625 -0.9375 -0.0625q-1.5 0 -1.96875 1.0l0 6.453125l-2.625 0l0 -9.859375l2.484375 0l0.078125 1.171875q0.78125 -1.34375 2.1875 -1.34375q0.4375 0 0.828125 0.109375l-0.046875 2.53125zm0.52352905 2.375q0 -1.46875 0.5625 -2.609375q0.578125 -1.15625 1.640625 -1.78125q1.0625 -0.625 2.453125 -0.625q2.0 0 3.265625 1.21875q1.265625 1.21875 1.40625 3.3125l0.015625 0.671875q0 2.265625 -1.265625 3.640625q-1.265625 1.375 -3.40625 1.375q-2.125 0 -3.40625 -1.359375q-1.265625 -1.375 -1.265625 -3.734375l0 -0.109375zm2.640625 0.1875q0 1.40625 0.53125 2.15625q0.53125 0.734375 1.515625 0.734375q0.953125 0 1.484375 -0.734375q0.546875 -0.734375 0.546875 -2.34375q0 -1.375 -0.546875 -2.125q-0.53125 -0.765625 -1.515625 -0.765625q-0.953125 0 -1.484375 0.75q-0.53125 0.75 -0.53125 2.328125zm11.470673 -7.453125l0 2.421875l1.6875 0l0 1.9375l-1.6875 0l0 4.921875q0 0.546875 0.203125 0.78125q0.21875 0.234375 0.8125 0.234375q0.4375 0 0.78125 -0.0625l0 2.0q-0.78125 0.234375 -1.59375 0.234375q-2.78125 0 -2.828125 -2.796875l0 -5.3125l-1.4375 0l0 -1.9375l1.4375 0l0 -2.421875l2.625 0zm2.4678345 7.265625q0 -1.46875 0.5625 -2.609375q0.578125 -1.15625 1.640625 -1.78125q1.0625 -0.625 2.453125 -0.625q2.0 0 3.265625 1.21875q1.265625 1.21875 1.40625 3.3125l0.015625 0.671875q0 2.265625 -1.265625 3.640625q-1.265625 1.375 -3.40625 1.375q-2.125 0 -3.40625 -1.359375q-1.265625 -1.375 -1.265625 -3.734375l0 -0.109375zm2.640625 0.1875q0 1.40625 0.53125 2.15625q0.53125 0.734375 1.515625 0.734375q0.953125 0 1.484375 -0.734375q0.546875 -0.734375 0.546875 -2.34375q0 -1.375 -0.546875 -2.125q-0.53125 -0.765625 -1.515625 -0.765625q-0.953125 0 -1.484375 0.75q-0.53125 0.75 -0.53125 2.328125zm12.423798 2.890625q0.734375 0 1.1875 -0.390625q0.453125 -0.40625 0.46875 -1.078125l2.46875 0q0 1.0 -0.546875 1.84375q-0.53125 0.828125 -1.46875 1.296875q-0.9375 0.453125 -2.0625 0.453125q-2.109375 0 -3.34375 -1.34375q-1.21875 -1.34375 -1.21875 -3.71875l0 -0.171875q0 -2.28125 1.21875 -3.625q1.21875 -1.359375 3.328125 -1.359375q1.84375 0 2.953125 1.046875q1.125 1.046875 1.140625 2.796875l-2.46875 0q-0.015625 -0.765625 -0.46875 -1.234375q-0.453125 -0.484375 -1.203125 -0.484375q-0.921875 0 -1.390625 0.671875q-0.46875 0.671875 -0.46875 2.171875l0 0.265625q0 1.53125 0.453125 2.203125q0.46875 0.65625 1.421875 0.65625zm5.213318 -3.078125q0 -1.46875 0.5625 -2.609375q0.578125 -1.15625 1.640625 -1.78125q1.0625 -0.625 2.453125 -0.625q2.0 0 3.265625 1.21875q1.265625 1.21875 1.40625 3.3125l0.015625 0.671875q0 2.265625 -1.265625 3.640625q-1.265625 1.375 -3.40625 1.375q-2.125 0 -3.40625 -1.359375q-1.265625 -1.375 -1.265625 -3.734375l0 -0.109375zm2.640625 0.1875q0 1.40625 0.53125 2.15625q0.53125 0.734375 1.515625 0.734375q0.953125 0 1.484375 -0.734375q0.546875 -0.734375 0.546875 -2.34375q0 -1.375 -0.546875 -2.125q-0.53125 -0.765625 -1.515625 -0.765625q-0.953125 0 -1.484375 0.75q-0.53125 0.75 -0.53125 2.328125zm11.111298 4.828125l-2.65625 0l0 -14.0l2.65625 0l0 14.0zm12.326691 -13.265625l2.734375 0l0 9.1875q0 1.265625 -0.5625 2.234375q-0.5625 0.96875 -1.578125 1.5q-1.015625 0.53125 -2.3125 0.53125q-2.09375 0 -3.28125 -1.0625q-1.171875 -1.078125 -1.171875 -3.046875l2.75 0q0 0.984375 0.40625 1.453125q0.421875 0.453125 1.296875 0.453125q0.796875 0 1.25 -0.53125q0.46875 -0.546875 0.46875 -1.53125l0 -9.1875zm7.9837646 13.265625l-2.734375 0l0 -13.265625l2.734375 0l0 13.265625zm12.252136 -11.046875l-4.0625 0l0 11.046875l-2.734375 0l0 -11.046875l-4.015625 0l0 -2.21875l10.8125 0l0 2.21875z" fill-rule="nonzero"/></g></svg>