<?xml version="1.0" encoding="UTF-8" standalone="no"?>
<svg
   xmlns:dc="http://purl.org/dc/elements/1.1/"
   xmlns:cc="http://creativecommons.org/ns#"
   xmlns:rdf="http://www.w3.org/1999/02/22-rdf-syntax-ns#"
   xmlns:svg="http://www.w3.org/2000/svg"
   xmlns="http://www.w3.org/2000/svg"
   xmlns:sodipodi="http://sodipodi.sourceforge.net/DTD/sodipodi-0.dtd"
   xmlns:inkscape="http://www.inkscape.org/namespaces/inkscape"
   version="1.1"
   viewBox="0.0 0.0 960.0 540.0"
   fill="none"
   stroke="none"
   stroke-linecap="square"
   stroke-miterlimit="10"
   id="svg59"
   sodipodi:docname="solutions.svg"
   inkscape:version="0.92.2 (5c3e80d, 2017-08-06)">
  <metadata
     id="metadata65">
    <rdf:RDF>
      <cc:Work
         rdf:about="">
        <dc:format>image/svg+xml</dc:format>
        <dc:type
           rdf:resource="http://purl.org/dc/dcmitype/StillImage" />
        <dc:title></dc:title>
      </cc:Work>
    </rdf:RDF>
  </metadata>
  <defs
     id="defs63" />
  <sodipodi:namedview
     pagecolor="#ffffff"
     bordercolor="#666666"
     borderopacity="1"
     objecttolerance="10"
     gridtolerance="10"
     guidetolerance="10"
     inkscape:pageopacity="0"
     inkscape:pageshadow="2"
     inkscape:window-width="3840"
     inkscape:window-height="2063"
     id="namedview61"
     showgrid="false"
     inkscape:zoom="1.979899"
     inkscape:cx="271.0608"
     inkscape:cy="252.04397"
     inkscape:window-x="0"
     inkscape:window-y="97"
     inkscape:window-maximized="0"
     inkscape:current-layer="layer1" />
  <clipPath
     id="g131f26ff5ad_2_38.0">
    <path
       d="m0 0l960.0 0l0 540.0l-960.0 0l0 -540.0z"
       clip-rule="nonzero"
       id="path2" />
  </clipPath>
  <g
     inkscape:groupmode="layer"
     id="layer2"
     inkscape:label="Background"
     style="display:inline"
     sodipodi:insensitive="true">
    <path
       style="fill:#212121;fill-rule:evenodd"
       inkscape:connector-curvature="0"
       id="path5"
       d="M 0,0 H 960 V 540 H 0 Z" />
  </g>
  <g
     inkscape:groupmode="layer"
     id="layer1"
     inkscape:label="Content">
    <path
       style="fill:#000000;fill-opacity:0;fill-rule:evenodd"
       inkscape:connector-curvature="0"
       id="path7"
       d="M 32.72441,46.721786 H 927.27556 V 106.84777 H 32.72441 Z" />
    <path
       style="fill:#ffffff;fill-rule:nonzero"
       inkscape:connector-curvature="0"
       id="path9"
       d="m 48.56816,64.08716 7.796875,19.5 7.8125,-19.5 h 4.09375 v 23.890625 h -3.15625 V 78.68091 l 0.296875,-10.046875 -7.84375,19.34375 h -2.40625 l -7.828125,-19.296875 0.3125,10 v 9.296875 h -3.15625 V 64.08716 Z m 23.985168,14.859375 q 0,-2.609375 1.015625,-4.6875 1.03125,-2.09375 2.859375,-3.21875 1.828125,-1.140625 4.171875,-1.140625 3.625,0 5.859375,2.515625 2.25,2.5 2.25,6.671875 v 0.21875 q 0,2.59375 -1,4.65625 -0.984375,2.046875 -2.84375,3.203125 -1.84375,1.140625 -4.234375,1.140625 -3.609375,0 -5.84375,-2.5 -2.234375,-2.515625 -2.234375,-6.65625 z m 3.046875,0.359375 q 0,2.953125 1.359375,4.734375 1.375,1.78125 3.671875,1.78125 2.3125,0 3.671875,-1.8125 1.359375,-1.8125 1.359375,-5.0625 0,-2.921875 -1.390625,-4.734375 -1.375,-1.8125 -3.671875,-1.8125 -2.25,0 -3.625,1.796875 -1.375,1.78125 -1.375,5.109375 z m 21.01831,-13.375 v 4.296875 h 3.328125 v 2.34375 H 96.618513 V 83.58716 q 0,1.0625 0.4375,1.59375 0.453125,0.53125 1.515625,0.53125 0.53125,0 1.453122,-0.1875 v 2.453125 q -1.203122,0.328125 -2.328122,0.328125 -2.03125,0 -3.078125,-1.21875 -1.03125,-1.234375 -1.03125,-3.5 V 72.571535 h -3.234375 v -2.34375 h 3.234375 V 65.93091 Z m 10.161237,22.046875 h -3.03125 v -17.75 h 3.03125 z M 103.4985,65.52466 q 0,-0.734375 0.45313,-1.25 0.45312,-0.515625 1.32812,-0.515625 0.89063,0 1.34375,0.515625 0.46875,0.515625 0.46875,1.25 0,0.734375 -0.46875,1.234375 -0.45312,0.484375 -1.34375,0.484375 -0.875,0 -1.32812,-0.484375 -0.45313,-0.5 -0.45313,-1.234375 z m 13.99614,18.328125 4.39063,-13.625 h 3.10937 l -6.375,17.75 h -2.3125 l -6.42187,-17.75 h 3.09375 z m 21.11963,4.125 q -0.26562,-0.53125 -0.42187,-1.875 -2.10938,2.203125 -5.04688,2.203125 -2.625,0 -4.3125,-1.484375 -1.6875,-1.484375 -1.6875,-3.765625 0,-2.765625 2.10938,-4.296875 2.10937,-1.546875 5.9375,-1.546875 h 2.95312 v -1.390625 q 0,-1.59375 -0.95312,-2.53125 -0.95313,-0.9375 -2.8125,-0.9375 -1.625,0 -2.71875,0.828125 -1.09375,0.8125 -1.09375,1.96875 h -3.04688 q 0,-1.328125 0.9375,-2.5625 0.9375,-1.25 2.54688,-1.96875 1.625,-0.71875 3.5625,-0.71875 3.0625,0 4.79687,1.53125 1.75,1.53125 1.8125,4.234375 v 8.15625 q 0,2.453125 0.625,3.890625 v 0.265625 z m -5.03125,-2.3125 q 1.42188,0 2.70313,-0.734375 1.28125,-0.75 1.85937,-1.921875 V 79.36841 h -2.375 q -5.57812,0 -5.57812,3.265625 0,1.421875 0.9375,2.234375 0.95312,0.796875 2.45312,0.796875 z M 150.04368,65.93091 v 4.296875 h 3.32813 v 2.34375 h -3.32813 V 83.58716 q 0,1.0625 0.4375,1.59375 0.45313,0.53125 1.51563,0.53125 0.53125,0 1.45312,-0.1875 v 2.453125 q -1.20312,0.328125 -2.32812,0.328125 -2.03125,0 -3.07813,-1.21875 -1.03125,-1.234375 -1.03125,-3.5 V 72.571535 h -3.23437 v -2.34375 h 3.23437 V 65.93091 Z m 10.16124,22.046875 h -3.03125 v -17.75 h 3.03125 z M 156.92367,65.52466 q 0,-0.734375 0.45313,-1.25 0.45312,-0.515625 1.32812,-0.515625 0.89063,0 1.34375,0.515625 0.46875,0.515625 0.46875,1.25 0,0.734375 -0.46875,1.234375 -0.45312,0.484375 -1.34375,0.484375 -0.875,0 -1.32812,-0.484375 -0.45313,-0.5 -0.45313,-1.234375 z m 7.33989,13.421875 q 0,-2.609375 1.01563,-4.6875 1.03125,-2.09375 2.85937,-3.21875 1.82813,-1.140625 4.17188,-1.140625 3.625,0 5.85937,2.515625 2.25,2.5 2.25,6.671875 v 0.21875 q 0,2.59375 -1,4.65625 -0.98437,2.046875 -2.84375,3.203125 -1.84375,1.140625 -4.23437,1.140625 -3.60938,0 -5.84375,-2.5 -2.23438,-2.515625 -2.23438,-6.65625 z m 3.04688,0.359375 q 0,2.953125 1.35937,4.734375 1.375,1.78125 3.67188,1.78125 2.3125,0 3.67187,-1.8125 1.35938,-1.8125 1.35938,-5.0625 0,-2.921875 -1.39063,-4.734375 -1.375,-1.8125 -3.67187,-1.8125 -2.25,0 -3.625,1.796875 -1.375,1.78125 -1.375,5.109375 z m 19.78394,-9.078125 0.0937,2.234375 q 2.03125,-2.5625 5.3125,-2.5625 5.625,0 5.67187,6.34375 v 11.734375 h -3.03125 v -11.75 q -0.0156,-1.90625 -0.875,-2.828125 -0.85937,-0.921875 -2.6875,-0.921875 -1.46875,0 -2.59375,0.796875 -1.10937,0.78125 -1.73437,2.0625 v 12.640625 h -3.03125 v -17.75 z" />
    <path
       style="fill:#000000;fill-opacity:0;fill-rule:evenodd"
       inkscape:connector-curvature="0"
       id="path11"
       d="M 303.02887,465.55643 480.4147,155.22573 657.80053,465.55643 Z" />
    <path
       style="fill-rule:evenodd;stroke:#ffffff;stroke-width:4;stroke-linecap:butt;stroke-linejoin:round"
       inkscape:connector-curvature="0"
       id="path13"
       d="M 303.02887,465.55643 480.4147,155.22573 657.80053,465.55643 Z" />
    <path
       style="fill:#000000;fill-opacity:0;fill-rule:evenodd"
       inkscape:connector-curvature="0"
       id="path15"
       d="m 399.063,113.20998 h 162.39368 v 42.01575 H 399.063 Z" />
    <path
       style="fill:#000000;fill-opacity:0;fill-rule:evenodd"
       inkscape:connector-curvature="0"
       id="path19"
       d="m 662.9134,441.79266 h 118.04724 v 42.01575 H 662.9134 Z" />
    <path
       style="fill:#000000;fill-opacity:0;fill-rule:evenodd"
       inkscape:connector-curvature="0"
       id="path23"
       d="M 470.43494,172.91339 308.04124,456.47244" />
    <path
       style="fill-rule:evenodd;stroke:#ff0000;stroke-width:4;stroke-linecap:butt;stroke-linejoin:round"
       inkscape:connector-curvature="0"
       id="path25"
       d="M 470.43494,172.91339 308.04124,456.47244" />
    <path
       style="fill:#000000;fill-opacity:0;fill-rule:evenodd"
       inkscape:connector-curvature="0"
       id="path27"
       d="m 321.6404,283 h 70.77167 v 42.01575 H 321.6404 Z" />
    <path
       style="fill:#ff0000;fill-rule:nonzero"
       inkscape:connector-curvature="0"
       id="path29"
       d="m 337.73416,296.65436 h 1.76562 v 9.39062 q 0,1.90625 -1.15625,2.98438 -1.14062,1.07812 -3.03125,1.07812 -1.98437,0 -3.09375,-1.01562 -1.09375,-1.01563 -1.09375,-2.82813 h 1.75 q 0,1.14063 0.625,1.78125 0.625,0.625 1.8125,0.625 1.07813,0 1.75,-0.67187 0.67188,-0.6875 0.67188,-1.92188 z m 8.65311,7.35937 q -2.25,-0.65625 -3.28125,-1.59375 -1.03125,-0.9375 -1.03125,-2.32812 0,-1.5625 1.25,-2.59375 1.26562,-1.03125 3.26562,-1.03125 1.35938,0 2.4375,0.53125 1.07813,0.53125 1.65625,1.46875 0.59375,0.92187 0.59375,2.03125 h -1.76562 q 0,-1.20313 -0.76563,-1.89063 -0.76562,-0.6875 -2.15625,-0.6875 -1.29687,0 -2.01562,0.5625 -0.71875,0.5625 -0.71875,1.57813 0,0.8125 0.6875,1.375 0.6875,0.5625 2.32812,1.03125 1.65625,0.45312 2.59375,1.01562 0.9375,0.5625 1.375,1.3125 0.45313,0.75 0.45313,1.75 0,1.60938 -1.25,2.59375 -1.25,0.96875 -3.35938,0.96875 -1.375,0 -2.5625,-0.51562 -1.17187,-0.53125 -1.8125,-1.4375 -0.64062,-0.92188 -0.64062,-2.07813 h 1.75 q 0,1.20313 0.89062,1.90625 0.89063,0.6875 2.375,0.6875 1.375,0 2.10938,-0.5625 0.75,-0.5625 0.75,-1.53125 0,-0.98437 -0.6875,-1.51562 -0.6875,-0.53125 -2.46875,-1.04688 z m 17.3493,-0.29687 q 0,1.95312 -0.65625,3.40625 -0.64062,1.45312 -1.84375,2.21875 -1.20312,0.76562 -2.8125,0.76562 -1.5625,0 -2.78125,-0.76562 -1.20312,-0.78125 -1.875,-2.20313 -0.67187,-1.42187 -0.6875,-3.29687 v -0.96875 q 0,-1.90625 0.65625,-3.375 0.67188,-1.46875 1.89063,-2.25 1.21875,-0.78125 2.78125,-0.78125 1.59375,0 2.8125,0.78125 1.21875,0.76562 1.85937,2.23437 0.65625,1.45313 0.65625,3.39063 z m -1.73437,-0.85938 q 0,-2.35937 -0.95313,-3.60937 -0.9375,-1.26563 -2.64062,-1.26563 -1.65625,0 -2.60938,1.26563 -0.95312,1.25 -0.98437,3.5 v 0.96875 q 0,2.28125 0.95312,3.59375 0.96875,1.3125 2.65625,1.3125 1.6875,0 2.60938,-1.23438 0.9375,-1.23437 0.96875,-3.54687 z m 14.56054,7.0625 h -1.76562 l -6.67188,-10.21875 v 10.21875 h -1.75 v -13.26562 h 1.75 l 6.70313,10.26562 v -10.26562 h 1.73437 z" />
    <path
       style="fill:#000000;fill-opacity:0;fill-rule:evenodd"
       inkscape:connector-curvature="0"
       id="path31"
       d="M 770.54694,460.0525 H 566.13752 v 42.01575 h 204.40942 z" />
    <path
       style="fill:#00ffff;fill-rule:nonzero"
       inkscape:connector-curvature="0"
       id="path33"
       d="m 577.9969,477.11313 0.0469,1.09375 q 1.07813,-1.26563 2.92188,-1.26563 2.0625,0 2.8125,1.57813 0.5,-0.71875 1.28125,-1.14063 0.79687,-0.4375 1.85937,-0.4375 3.25,0 3.29688,3.42188 v 6.60937 h -1.67188 v -6.5 q 0,-1.0625 -0.48437,-1.57812 -0.48438,-0.53125 -1.625,-0.53125 -0.9375,0 -1.5625,0.5625 -0.60938,0.5625 -0.71875,1.5 v 6.54687 h -1.6875 v -6.45312 q 0,-2.15625 -2.10938,-2.15625 -1.65625,0 -2.26562,1.40625 v 7.20312 h -1.6875 v -9.85937 z M 596.8484,487.16 q -2,0 -3.26562,-1.3125 -1.25,-1.32812 -1.25,-3.53125 v -0.3125 q 0,-1.46875 0.5625,-2.60937 0.5625,-1.15625 1.5625,-1.79688 1.01562,-0.65625 2.1875,-0.65625 1.92187,0 2.98437,1.26563 1.0625,1.26562 1.0625,3.625 v 0.6875 h -6.67187 q 0.0312,1.46875 0.84375,2.375 0.82812,0.89062 2.07812,0.89062 0.89063,0 1.51563,-0.35937 0.625,-0.375 1.07812,-0.96875 l 1.03125,0.79687 Q 599.33278,487.16 596.8484,487.16 Z m -0.20312,-8.84375 q -1.01563,0 -1.71875,0.75 -0.6875,0.73438 -0.84375,2.07813 h 4.9375 v -0.125 q -0.0781,-1.28125 -0.70313,-1.98438 -0.60937,-0.71875 -1.67187,-0.71875 z m 7.58697,-1.20312 0.0469,1.09375 q 1.07812,-1.26563 2.92187,-1.26563 2.0625,0 2.8125,1.57813 0.5,-0.71875 1.28125,-1.14063 0.79688,-0.4375 1.85938,-0.4375 3.25,0 3.29687,3.42188 v 6.60937 h -1.67187 v -6.5 q 0,-1.0625 -0.48438,-1.57812 -0.48437,-0.53125 -1.625,-0.53125 -0.9375,0 -1.5625,0.5625 -0.60937,0.5625 -0.71875,1.5 v 6.54687 h -1.6875 v -6.45312 q 0,-2.15625 -2.10937,-2.15625 -1.65625,0 -2.26563,1.40625 v 7.20312 h -1.6875 v -9.85937 z m 18.7265,8.67187 q 0.89063,0 1.5625,-0.54687 0.6875,-0.54688 0.75,-1.375 h 1.59375 q -0.0469,0.84375 -0.57812,1.60937 -0.53125,0.76563 -1.4375,1.23438 -0.89063,0.45312 -1.89063,0.45312 -2.01562,0 -3.20312,-1.34375 -1.1875,-1.34375 -1.1875,-3.6875 v -0.28125 q 0,-1.4375 0.51562,-2.54687 0.53125,-1.125 1.51563,-1.73438 1,-0.625 2.34375,-0.625 1.65625,0 2.75,1 1.10937,0.98438 1.17187,2.5625 h -1.59375 q -0.0625,-0.95312 -0.71875,-1.5625 -0.65625,-0.625 -1.60937,-0.625 -1.28125,0 -2,0.92188 Q 620.24,480.16 620.24,481.91 v 0.32813 q 0,1.70312 0.70313,2.625 0.70312,0.92187 2.01562,0.92187 z m 14.12476,-3.625 q 0,2.25 -1.03125,3.625 -1.01563,1.375 -2.78125,1.375 -1.79688,0 -2.82813,-1.14062 v 4.75 h -1.67187 v -13.65625 h 1.53125 l 0.0781,1.09375 q 1.03125,-1.26563 2.85938,-1.26563 1.78125,0 2.8125,1.34375 1.03125,1.32813 1.03125,3.71875 z m -1.67188,-0.20312 q 0,-1.65625 -0.71875,-2.625 -0.70312,-0.96875 -1.95312,-0.96875 -1.53125,0 -2.29688,1.35937 v 4.70313 q 0.76563,1.35937 2.32813,1.35937 1.20312,0 1.92187,-0.95312 0.71875,-0.96875 0.71875,-2.875 z m 6.94471,2.54687 2.29687,-7.39062 h 1.79688 l -3.95313,11.375 q -0.92187,2.46875 -2.92187,2.46875 l -0.32813,-0.0312 -0.625,-0.125 v -1.35938 l 0.45313,0.0312 q 0.85937,0 1.32812,-0.34375 0.48438,-0.34375 0.79688,-1.26562 l 0.375,-1 -3.51563,-9.75 h 1.84375 z" />
    <path
       style="fill:#00ffff;fill-rule:evenodd"
       inkscape:connector-curvature="0"
       id="path35"
       d="m 648.7848,461.72702 v 0 c 0,-3.90512 3.16571,-7.07086 7.07086,-7.07086 v 0 c 1.87531,0 3.67383,0.74496 4.99988,2.07101 1.32599,1.32605 2.07098,3.12454 2.07098,4.99985 v 0 c 0,3.90515 -3.16571,7.07089 -7.07086,7.07089 v 0 c -3.90515,0 -7.07086,-3.16574 -7.07086,-7.07089 z" />
    <path
       style="fill:#000000;fill-opacity:0;fill-rule:evenodd"
       inkscape:connector-curvature="0"
       id="path37"
       d="m 125.20582,441.79266 h 243.55905 v 42.01575 H 125.20582 Z" />
    <path
       style="fill:#000000;fill-opacity:0;fill-rule:evenodd"
       inkscape:connector-curvature="0"
       id="path41"
       d="m 458.5092,344.07874 h 70.77164 v 42.01575 H 458.5092 Z" />
    <path
       style="fill:#4a86e8;fill-rule:nonzero"
       inkscape:connector-curvature="0"
       id="path43"
       d="m 476.36856,367.53 h -5.54688 l -1.25,3.46875 h -1.8125 l 5.0625,-13.26563 h 1.53125 l 5.07813,13.26563 h -1.79688 z m -5.03125,-1.4375 h 4.51562 l -2.26562,-6.20313 z m 12.41769,2.625 2.4375,-7.57813 h 1.71875 l -3.53125,9.85938 h -1.28125 l -3.57812,-9.85938 h 1.71875 z m 10.55225,-6.0625 q -0.39063,-0.0625 -0.84375,-0.0625 -1.65625,0 -2.25,1.40625 v 7 h -1.67188 v -9.85938 h 1.64063 l 0.0156,1.14063 q 0.82813,-1.3125 2.35938,-1.3125 0.48437,0 0.75,0.125 z m 0.91183,3.32812 q 0,-1.45312 0.5625,-2.60937 0.57813,-1.15625 1.59375,-1.78125 1.01563,-0.625 2.3125,-0.625 2.01563,0 3.25,1.39062 1.25,1.39063 1.25,3.70313 v 0.125 q 0,1.4375 -0.54687,2.57812 -0.54688,1.14063 -1.57813,1.78125 -1.01562,0.64063 -2.35937,0.64063 -2,0 -3.25,-1.39063 -1.23438,-1.40625 -1.23438,-3.70312 z m 1.6875,0.20313 q 0,1.64062 0.76563,2.64062 0.76562,0.98438 2.03125,0.98438 1.29687,0 2.04687,-1 0.75,-1.01563 0.75,-2.82813 0,-1.625 -0.76562,-2.625 -0.76563,-1.01562 -2.04688,-1.01562 -1.25,0 -2.01562,1 -0.76563,0.98437 -0.76563,2.84375 z" />
    <path
       style="fill:#000000;fill-opacity:0;fill-rule:evenodd"
       inkscape:connector-curvature="0"
       id="path45"
       d="m 376.01837,460.0525 h 118.04724 v 42.01575 H 376.01837 Z" />
    <path
       style="fill:#ff9900;fill-rule:nonzero"
       inkscape:connector-curvature="0"
       id="path47"
       d="m 402.1632,481.785 v 5.1875 h -1.73437 v -13.26562 h 4.89062 q 2.17188,0 3.40625,1.10937 1.23438,1.10938 1.23438,2.95313 0,1.92187 -1.21875,2.96875 -1.20313,1.04687 -3.45313,1.04687 z m 0,-1.4375 h 3.15625 q 1.39063,0 2.14063,-0.65625 0.75,-0.65625 0.75,-1.90625 0,-1.1875 -0.75,-1.89062 -0.75,-0.71875 -2.04688,-0.75 h -3.25 z m 14.5351,-1.71875 q -0.39063,-0.0625 -0.84375,-0.0625 -1.65625,0 -2.25,1.40625 v 7 h -1.67188 v -9.85937 h 1.64063 l 0.0156,1.14062 q 0.82813,-1.3125 2.35938,-1.3125 0.48437,0 0.75,0.125 z m 0.91183,3.32813 q 0,-1.45313 0.5625,-2.60938 0.57812,-1.15625 1.59375,-1.78125 1.01562,-0.625 2.3125,-0.625 2.01562,0 3.25,1.39063 1.25,1.39062 1.25,3.70312 v 0.125 q 0,1.4375 -0.54688,2.57813 -0.54687,1.14062 -1.57812,1.78125 -1.01563,0.64062 -2.35938,0.64062 -2,0 -3.25,-1.39062 -1.23437,-1.40625 -1.23437,-3.70313 z m 1.6875,0.20312 q 0,1.64063 0.76562,2.64063 0.76563,0.98437 2.03125,0.98437 1.29688,0 2.04688,-1 0.75,-1.01562 0.75,-2.82812 0,-1.625 -0.76563,-2.625 -0.76562,-1.01563 -2.04687,-1.01563 -1.25,0 -2.01563,1 -0.76562,0.98438 -0.76562,2.84375 z m 11.68677,-7.4375 v 2.39063 h 1.84375 v 1.3125 h -1.84375 v 6.10937 q 0,0.59375 0.23437,0.89063 0.25,0.29687 0.84375,0.29687 0.29688,0 0.8125,-0.10937 v 1.35937 q -0.67187,0.1875 -1.29687,0.1875 -1.125,0 -1.70313,-0.6875 -0.57812,-0.6875 -0.57812,-1.9375 v -6.10937 h -1.79688 v -1.3125 h 1.79688 v -2.39063 z m 3.17758,7.23438 q 0,-1.45313 0.5625,-2.60938 0.57812,-1.15625 1.59375,-1.78125 1.01562,-0.625 2.3125,-0.625 2.01562,0 3.25,1.39063 1.25,1.39062 1.25,3.70312 v 0.125 q 0,1.4375 -0.54688,2.57813 -0.54687,1.14062 -1.57812,1.78125 -1.01563,0.64062 -2.35938,0.64062 -2,0 -3.25,-1.39062 -1.23437,-1.40625 -1.23437,-3.70313 z m 1.6875,0.20312 q 0,1.64063 0.76562,2.64063 0.76563,0.98437 2.03125,0.98437 1.29688,0 2.04688,-1 0.75,-1.01562 0.75,-2.82812 0,-1.625 -0.76563,-2.625 -0.76562,-1.01563 -2.04687,-1.01563 -1.25,0 -2.01563,1 -0.76562,0.98438 -0.76562,2.84375 z m 17.74927,0 q 0,2.25 -1.04688,3.625 -1.03125,1.375 -2.78125,1.375 -1.875,0 -2.89062,-1.32812 l -0.0781,1.14062 h -1.5469 v -14 h 1.67187 v 5.23438 q 1.03125,-1.26563 2.8125,-1.26563 1.79688,0 2.82813,1.35938 1.03125,1.34375 1.03125,3.70312 z m -1.6875,-0.20312 q 0,-1.71875 -0.67188,-2.65625 -0.65625,-0.9375 -1.90625,-0.9375 -1.67187,0 -2.40625,1.54687 v 4.26563 q 0.78125,1.54687 2.42188,1.54687 1.21875,0 1.89062,-0.9375 0.67188,-0.9375 0.67188,-2.82812 z m 9.88867,4.04687 q -0.98438,1.15625 -2.89063,1.15625 -1.57812,0 -2.40625,-0.92187 -0.8125,-0.92188 -0.82812,-2.70313 v -6.42187 h 1.6875 v 6.375 q 0,2.23437 1.82812,2.23437 1.92188,0 2.5625,-1.4375 v -7.17187 h 1.6875 v 9.85937 h -1.60937 z m 5.03464,0.96875 v -8.54687 h -1.5625 v -1.3125 h 1.5625 v -1.01563 q 0,-1.57812 0.84375,-2.4375 0.84375,-0.875 2.39062,-0.875 0.59375,0 1.15625,0.15625 l -0.0937,1.375 q -0.42187,-0.0937 -0.90625,-0.0937 -0.8125,0 -1.26562,0.48438 -0.4375,0.48437 -0.4375,1.375 v 1.03125 h 2.09375 v 1.3125 h -2.09375 v 8.54687 z" />
    <path
       style="fill:#000000;fill-opacity:0;fill-rule:evenodd"
       inkscape:connector-curvature="0"
       id="path49"
       d="M 488.4147,465.55643 373.58004,465.7139" />
    <path
       style="fill-rule:evenodd;stroke:#ff9900;stroke-width:4;stroke-linecap:butt;stroke-linejoin:round"
       inkscape:connector-curvature="0"
       id="path51"
       d="M 488.4147,465.55643 373.58004,465.7139" />
    <path
       style="fill:#4a86e8;fill-rule:evenodd"
       inkscape:connector-curvature="0"
       id="path53"
       d="M 310.40683,461.6824 478.35696,165.94226 459.00524,359.45145 Z" />
    <path
       style="fill-rule:evenodd;stroke:#303030;stroke-width:1;stroke-linecap:butt;stroke-linejoin:round"
       inkscape:connector-curvature="0"
       id="path55"
       d="M 310.40683,461.6824 478.35696,165.94226 459.00524,359.45145 Z" />
    <g
       transform="translate(4.332704e-4,-0.00521829)"
       id="g886">
      <text
         id="text844"
         y="143.41251"
         x="423.02472"
         style="font-style:italic;font-variant:normal;font-weight:normal;font-stretch:normal;font-size:18.66666603px;line-height:0;font-family:Hack;-inkscape-font-specification:'Hack, Italic';font-variant-ligatures:normal;font-variant-caps:normal;font-variant-numeric:normal;font-feature-settings:normal;text-align:start;writing-mode:lr-tb;text-anchor:start;fill:#ffffff;fill-opacity:1;stroke:#d5d5d5;stroke-width:1;stroke-linejoin:round;stroke-miterlimit:21;stroke-dasharray:0.5, 0.5;stroke-dashoffset:0;stroke-opacity:1"
         xml:space="preserve"><tspan
           style="font-style:normal;font-variant:normal;font-weight:bold;font-stretch:normal;font-size:18.66666603px;font-family:Roboto;-inkscape-font-specification:'Roboto, Bold';font-variant-ligatures:normal;font-variant-caps:normal;font-variant-numeric:normal;font-feature-settings:normal;text-align:start;writing-mode:lr-tb;text-anchor:start;stroke:none"
           y="143.41251"
           x="423.02472"
           id="tspan842"
           sodipodi:role="line">Transparency</tspan></text>
      <text
         xml:space="preserve"
         style="font-style:italic;font-variant:normal;font-weight:normal;font-stretch:normal;font-size:18.66666603px;line-height:0;font-family:Hack;-inkscape-font-specification:'Hack, Italic';font-variant-ligatures:normal;font-variant-caps:normal;font-variant-numeric:normal;font-feature-settings:normal;text-align:start;writing-mode:lr-tb;text-anchor:start;fill:#ffffff;fill-opacity:1;stroke:#d5d5d5;stroke-width:1;stroke-linejoin:round;stroke-miterlimit:21;stroke-dasharray:0.5, 0.5;stroke-dashoffset:0;stroke-opacity:1"
         x="139.10876"
         y="466.87415"
         id="text874"><tspan
           sodipodi:role="line"
           id="tspan872"
           x="139.10876"
           y="466.87415"
           style="font-style:normal;font-variant:normal;font-weight:bold;font-stretch:normal;font-size:18.66666603px;font-family:Roboto;-inkscape-font-specification:'Roboto, Bold';font-variant-ligatures:normal;font-variant-caps:normal;font-variant-numeric:normal;font-feature-settings:normal;text-align:start;writing-mode:lr-tb;text-anchor:start;stroke:none">Version Flexibility</tspan></text>
      <text
         id="text878"
         y="466.87415"
         x="677.52008"
         style="font-style:italic;font-variant:normal;font-weight:normal;font-stretch:normal;font-size:18.66666603px;line-height:0;font-family:Hack;-inkscape-font-specification:'Hack, Italic';font-variant-ligatures:normal;font-variant-caps:normal;font-variant-numeric:normal;font-feature-settings:normal;text-align:start;writing-mode:lr-tb;text-anchor:start;fill:#ffffff;fill-opacity:1;stroke:#d5d5d5;stroke-width:1;stroke-linejoin:round;stroke-miterlimit:21;stroke-dasharray:0.5, 0.5;stroke-dashoffset:0;stroke-opacity:1"
         xml:space="preserve"><tspan
           style="font-style:normal;font-variant:normal;font-weight:bold;font-stretch:normal;font-size:18.66666603px;font-family:Roboto;-inkscape-font-specification:'Roboto, Bold';font-variant-ligatures:normal;font-variant-caps:normal;font-variant-numeric:normal;font-feature-settings:normal;text-align:start;writing-mode:lr-tb;text-anchor:start;stroke:none"
           y="466.87415"
           x="677.52008"
           id="tspan876"
           sodipodi:role="line">Performance</tspan></text>
    </g>
  </g>
</svg>
