<?xml version="1.0" encoding="UTF-8" standalone="no"?>
<svg
   xmlns:dc="http://purl.org/dc/elements/1.1/"
   xmlns:cc="http://creativecommons.org/ns#"
   xmlns:rdf="http://www.w3.org/1999/02/22-rdf-syntax-ns#"
   xmlns:svg="http://www.w3.org/2000/svg"
   xmlns="http://www.w3.org/2000/svg"
   xmlns:sodipodi="http://sodipodi.sourceforge.net/DTD/sodipodi-0.dtd"
   xmlns:inkscape="http://www.inkscape.org/namespaces/inkscape"
   version="1.1"
   viewBox="0.0 0.0 960.0 540.0"
   fill="none"
   stroke="none"
   stroke-linecap="square"
   stroke-miterlimit="10"
   id="svg71"
   sodipodi:docname="structs.svg"
   inkscape:version="0.92.2 (5c3e80d, 2017-08-06)">
  <metadata
     id="metadata77">
    <rdf:RDF>
      <cc:Work
         rdf:about="">
        <dc:format>image/svg+xml</dc:format>
        <dc:type
           rdf:resource="http://purl.org/dc/dcmitype/StillImage" />
        <dc:title></dc:title>
      </cc:Work>
    </rdf:RDF>
  </metadata>
  <defs
     id="defs75">
    <marker
       inkscape:stockid="Arrow2Mend"
       orient="auto"
       refY="0"
       refX="0"
       id="Arrow2Mend"
       style="overflow:visible"
       inkscape:isstock="true">
      <path
         inkscape:connector-curvature="0"
         id="path1030"
         style="fill:#ffffff;fill-opacity:1;fill-rule:evenodd;stroke:#ffffff;stroke-width:0.625;stroke-linejoin:round;stroke-opacity:1"
         d="M 8.7185878,4.0337352 -2.2072895,0.01601326 8.7185884,-4.0017078 c -1.7454984,2.3720609 -1.7354408,5.6174519 -6e-7,8.035443 z"
         transform="scale(-0.6)" />
    </marker>
  </defs>
  <sodipodi:namedview
     pagecolor="#000000"
     bordercolor="#666666"
     borderopacity="1"
     objecttolerance="10"
     gridtolerance="10"
     guidetolerance="10"
     inkscape:pageopacity="0"
     inkscape:pageshadow="2"
     inkscape:window-width="3840"
     inkscape:window-height="2063"
     id="namedview73"
     showgrid="false"
     inkscape:zoom="1.979899"
     inkscape:cx="308.89582"
     inkscape:cy="287.2408"
     inkscape:window-x="0"
     inkscape:window-y="97"
     inkscape:window-maximized="0"
     inkscape:current-layer="layer1" />
  <clipPath
     id="g131f2da0398_0_411.0">
    <path
       d="m0 0l960.0 0l0 540.0l-960.0 0l0 -540.0z"
       clip-rule="nonzero"
       id="path2" />
  </clipPath>
  <g
     inkscape:groupmode="layer"
     id="layer2"
     inkscape:label="Background"
     sodipodi:insensitive="true">
    <path
       style="fill:#212121;fill-rule:evenodd"
       inkscape:connector-curvature="0"
       id="path5"
       d="M 0,0 H 960 V 540 H 0 Z" />
    <path
       style="fill:#303030;fill-rule:evenodd"
       inkscape:connector-curvature="0"
       id="path7"
       d="M 480,0.00262467 H 960 V 540.00262 H 480 Z" />
  </g>
  <g
     inkscape:groupmode="layer"
     id="layer1"
     inkscape:label="Content">
    <path
       style="fill:#000000;fill-opacity:0;fill-rule:evenodd"
       inkscape:connector-curvature="0"
       id="path9"
       d="M 27.874016,129.4672 H 452.56692 V 285.08924 H 27.874016 Z" />
    <path
       style="fill:#ffffff;fill-rule:nonzero"
       inkscape:connector-curvature="0"
       id="path11"
       d="m 198.39429,227.14925 h -12.79688 v 35.49998 h -5.21875 v -35.49998 h -12.76562 v -4.3125 h 30.78125 z m 12.83594,28.09375 6.89062,-22.1875 h 5.40625 l -11.89062,34.15623 q -2.76563,7.39063 -8.78125,7.39063 l -0.95313,-0.0781 -1.89062,-0.35937 v -4.10938 l 1.375,0.10938 q 2.5625,0 4,-1.04688 1.4375,-1.03125 2.35937,-3.78125 l 1.125,-3.01562 -10.54687,-29.26561 h 5.51562 z m 41.80859,-7.0625 q 0,6.75 -3.09375,10.89061 -3.09375,4.125 -8.375,4.125 -5.375,0 -8.46875,-3.42188 v 14.25 h -5.0625 V 233.0555 h 4.625 l 0.25,3.28125 q 3.07813,-3.82813 8.57813,-3.82813 5.32812,0 8.4375,4.03125 3.10937,4.01563 3.10937,11.17188 z m -5.0625,-0.57813 q 0,-5 -2.14062,-7.89062 -2.125,-2.90625 -5.84375,-2.90625 -4.59375,0 -6.89063,4.07812 v 14.14063 q 2.26563,4.04686 6.9375,4.04686 3.64063,0 5.78125,-2.89063 2.15625,-2.8906 2.15625,-8.57811 z m 23.76172,15.59374 q -6.01562,0 -9.79687,-3.95313 -3.76563,-3.9531 -3.76563,-10.56248 v -0.9375 q 0,-4.40625 1.67188,-7.85938 1.6875,-3.45312 4.70312,-5.40625 3.03125,-1.96875 6.5625,-1.96875 5.76563,0 8.95313,3.8125 3.20312,3.79688 3.20312,10.875 v 2.10938 h -20.03125 q 0.10938,4.375 2.54688,7.07811 2.45312,2.6875 6.21875,2.6875 2.6875,0 4.54687,-1.09375 1.85938,-1.09375 3.25,-2.90624 l 3.09375,2.40624 q -3.71875,5.71875 -11.15625,5.71875 z m -0.625,-26.53124 q -3.0625,0 -5.14062,2.23438 -2.07813,2.23437 -2.57813,6.25 h 14.82813 v -0.39063 q -0.21875,-3.84375 -2.07813,-5.96875 -1.85937,-2.125 -5.03125,-2.125 z m 35.24609,18.14063 q 0,-2.0625 -1.54687,-3.1875 -1.54688,-1.14063 -5.39063,-1.95313 -3.84375,-0.82812 -6.10937,-1.96875 -2.25,-1.15625 -3.32813,-2.73437 -1.07812,-1.59375 -1.07812,-3.78125 0,-3.64063 3.07812,-6.15625 3.07813,-2.51563 7.85938,-2.51563 5.03125,0 8.15625,2.60938 3.14062,2.59375 3.14062,6.64062 h -5.09375 q 0,-2.07812 -1.76562,-3.57812 -1.75,-1.51563 -4.4375,-1.51563 -2.76563,0 -4.32813,1.20313 -1.54687,1.20312 -1.54687,3.15625 0,1.82812 1.4375,2.76562 1.45312,0.92188 5.23437,1.76563 3.79688,0.84375 6.14063,2.03125 2.35937,1.17187 3.48437,2.82812 1.14063,1.65625 1.14063,4.03125 0,3.96874 -3.17188,6.35936 -3.17187,2.39063 -8.21875,2.39063 -3.5625,0 -6.29687,-1.25 -2.73438,-1.26563 -4.28125,-3.51563 -1.54688,-2.26562 -1.54688,-4.89061 h 5.0625 q 0.14063,2.54686 2.03125,4.04686 1.90625,1.48438 5.03125,1.48438 2.85938,0 4.59375,-1.15625 1.75,-1.17188 1.75,-3.10936 z" />
    <path
       style="fill:#000000;fill-opacity:0;fill-rule:evenodd"
       inkscape:connector-curvature="0"
       id="path13"
       d="m 518.5827,201.49869 h 402.8346 v 262.4567 H 518.5827 Z" />
    <path
       style="fill:#000000;fill-opacity:0;fill-rule:evenodd"
       inkscape:connector-curvature="0"
       id="path37"
       d="M 27.874016,294.2861 H 452.56692 V 423.95538 H 27.874016 Z" />
    <path
       style="fill:#adadad;fill-rule:nonzero"
       inkscape:connector-curvature="0"
       id="path39"
       d="m 203.93823,321.29108 q -3.375,-0.96875 -4.92188,-2.375 -1.53125,-1.42187 -1.53125,-3.5 0,-2.35937 1.875,-3.89062 1.89063,-1.54688 4.89063,-1.54688 2.0625,0 3.65625,0.79688 1.60937,0.79687 2.48437,2.1875 0.89063,1.39062 0.89063,3.04687 h -2.64063 q 0,-1.79687 -1.15625,-2.82812 -1.14062,-1.03125 -3.23437,-1.03125 -1.9375,0 -3.03125,0.85937 -1.07813,0.84375 -1.07813,2.35938 0,1.21875 1.03125,2.0625 1.03125,0.84375 3.51563,1.54687 2.48437,0.6875 3.875,1.53125 1.40625,0.84375 2.07812,1.96875 0.6875,1.10938 0.6875,2.625 0,2.42188 -1.89062,3.89063 -1.89063,1.45312 -5.04688,1.45312 -2.04687,0 -3.82812,-0.78125 -1.78125,-0.79687 -2.75,-2.15625 -0.95313,-1.375 -0.95313,-3.10937 h 2.64063 q 0,1.79687 1.32812,2.84375 1.34375,1.04687 3.5625,1.04687 2.07813,0 3.1875,-0.84375 1.10938,-0.84375 1.10938,-2.3125 0,-1.46875 -1.03125,-2.26562 -1.01563,-0.79688 -3.71875,-1.57813 z m 13.7832,-9.5 v 3.57813 h 2.76563 v 1.95312 h -2.76563 v 9.17188 q 0,0.89062 0.35938,1.34375 0.375,0.4375 1.26562,0.4375 0.4375,0 1.20313,-0.15625 v 2.04687 q -1,0.28125 -1.9375,0.28125 -1.6875,0 -2.5625,-1.03125 -0.85938,-1.03125 -0.85938,-2.92187 v -9.17188 h -2.6875 v -1.95312 h 2.6875 v -3.57813 z m 12.86524,5.84375 q -0.57813,-0.0937 -1.23438,-0.0937 -2.5,0 -3.39062,2.125 v 10.5 h -2.51563 v -14.79687 h 2.45313 l 0.0469,1.71875 q 1.23438,-1.98438 3.51563,-1.98438 0.75,0 1.125,0.1875 z m 11.45898,11.0625 q -1.46875,1.75 -4.32812,1.75 -2.375,0 -3.60938,-1.375 -1.23437,-1.375 -1.25,-4.07812 v -9.625 h 2.53125 v 9.5625 q 0,3.35937 2.73438,3.35937 2.89062,0 3.85937,-2.15625 v -10.76562 h 2.53125 v 14.79687 h -2.40625 z m 12.23242,-0.32812 q 1.35938,0 2.35938,-0.8125 1.01562,-0.82813 1.125,-2.04688 h 2.40625 q -0.0781,1.26563 -0.89063,2.42188 -0.79687,1.14062 -2.14062,1.82812 -1.34375,0.6875 -2.85938,0.6875 -3.01562,0 -4.79687,-2.01562 -1.78125,-2.03125 -1.78125,-5.53125 v -0.42188 q 0,-2.15625 0.78125,-3.82812 0.79687,-1.6875 2.28125,-2.60938 1.48437,-0.9375 3.5,-0.9375 2.5,0 4.14062,1.48438 1.65625,1.48437 1.76563,3.875 h -2.40625 q -0.10938,-1.4375 -1.09375,-2.35938 -0.96875,-0.92187 -2.40625,-0.92187 -1.92188,0 -2.98438,1.39062 -1.0625,1.375 -1.0625,4 v 0.48438 q 0,2.5625 1.04688,3.9375 1.0625,1.375 3.01562,1.375 z m 12.15625,-16.57813 v 3.57813 h 2.76563 v 1.95312 h -2.76563 v 9.17188 q 0,0.89062 0.35938,1.34375 0.375,0.4375 1.26562,0.4375 0.4375,0 1.20313,-0.15625 v 2.04687 q -1,0.28125 -1.9375,0.28125 -1.6875,0 -2.5625,-1.03125 -0.85938,-1.03125 -0.85938,-2.92187 v -9.17188 h -2.6875 v -1.95312 h 2.6875 v -3.57813 z m 14.33399,14.45313 q 0,-1.03125 -0.78125,-1.59375 -0.76563,-0.5625 -2.6875,-0.96875 -1.92188,-0.42188 -3.04688,-0.98438 -1.125,-0.57812 -1.67187,-1.375 -0.53125,-0.79687 -0.53125,-1.89062 0,-1.8125 1.53125,-3.0625 1.53125,-1.26563 3.9375,-1.26563 2.51562,0 4.07812,1.29688 1.5625,1.29687 1.5625,3.3125 h -2.54687 q 0,-1.03125 -0.89063,-1.78125 -0.875,-0.75 -2.20312,-0.75 -1.39063,0 -2.17188,0.60937 -0.78125,0.59375 -0.78125,1.5625 0,0.90625 0.71875,1.375 0.73438,0.46875 2.625,0.89063 1.90625,0.42187 3.07813,1.01562 1.17187,0.57813 1.73437,1.40625 0.57813,0.82813 0.57813,2.01563 0,1.98437 -1.59375,3.1875 -1.57813,1.20312 -4.10938,1.20312 -1.78125,0 -3.15625,-0.625 -1.35937,-0.64062 -2.14062,-1.76562 -0.76563,-1.125 -0.76563,-2.4375 h 2.53125 q 0.0625,1.26562 1.01563,2.01562 0.95312,0.73438 2.51562,0.73438 1.4375,0 2.29688,-0.57813 0.875,-0.57812 0.875,-1.54687 z" />
    <path
       style="fill:#000000;fill-opacity:0;fill-rule:evenodd"
       inkscape:connector-curvature="0"
       id="path41"
       d="m 609.74805,82.70079 h 220.5039 v 109.88975 h -220.5039 z" />
    <path
       style="fill:#ffffff;fill-rule:nonzero"
       inkscape:connector-curvature="0"
       id="path43"
       d="m 627.4512,107.12079 q 0,0.48438 -0.17188,0.875 -0.15625,0.375 -0.4375,0.67188 -0.28125,0.29687 -0.65625,0.51562 -0.375,0.20313 -0.79687,0.34375 -0.42188,0.125 -0.875,0.1875 -0.45313,0.0625 -0.875,0.0625 -0.92188,0 -1.70313,-0.0781 -0.78125,-0.0781 -1.53125,-0.26563 v -1.45312 q 0.79688,0.23437 1.59375,0.35937 0.79688,0.10938 1.57813,0.10938 1.14062,0 1.6875,-0.3125 0.54687,-0.3125 0.54687,-0.89063 0,-0.23437 -0.0937,-0.42187 -0.0781,-0.20313 -0.3125,-0.375 -0.21875,-0.1875 -0.70312,-0.375 -0.48438,-0.20313 -1.3125,-0.4375 -0.60938,-0.1875 -1.14063,-0.42188 -0.51562,-0.23437 -0.90625,-0.54687 -0.375,-0.32813 -0.59375,-0.75 -0.21875,-0.42188 -0.21875,-1.01563 0,-0.375 0.17188,-0.82812 0.17187,-0.45313 0.59375,-0.84375 0.4375,-0.40625 1.17187,-0.65625 0.73438,-0.26563 1.8125,-0.26563 0.54688,0 1.20313,0.0625 0.65625,0.0625 1.35937,0.20313 v 1.40625 q -0.75,-0.17188 -1.42187,-0.25 -0.65625,-0.0937 -1.15625,-0.0937 -0.59375,0 -1,0.0937 -0.39063,0.0781 -0.65625,0.25 -0.25,0.15625 -0.35938,0.375 -0.10937,0.20312 -0.10937,0.45312 0,0.25 0.0937,0.45313 0.10937,0.1875 0.35937,0.375 0.26563,0.1875 0.71875,0.375 0.46875,0.1875 1.21875,0.40625 0.8125,0.23437 1.35938,0.5 0.5625,0.25 0.90625,0.57812 0.35937,0.3125 0.5,0.71875 0.15625,0.40625 0.15625,0.90625 z m 10.38226,2.375 q -0.53125,0.14063 -1.10937,0.1875 -0.57813,0.0625 -1.17188,0.0625 -1.71875,0 -2.5625,-0.78125 -0.84375,-0.78125 -0.84375,-2.39062 v -4.76563 h -2.5625 v -1.32812 h 2.5625 v -2.51563 l 1.57813,-0.40625 v 2.92188 h 4.10937 v 1.32812 h -4.10937 v 4.64063 q 0,0.98437 0.51562,1.46875 0.53125,0.48437 1.54688,0.48437 0.4375,0 0.95312,-0.0625 0.53125,-0.0625 1.09375,-0.21875 z m 3.25733,-9.01562 h 1.45312 l 0.0469,1.6875 q 0.8125,-0.98438 1.59375,-1.42188 0.79687,-0.4375 1.59375,-0.4375 1.42187,0 2.15625,0.92188 0.73437,0.92187 0.67187,2.73437 h -1.59375 q 0.0156,-1.20312 -0.35937,-1.73437 -0.375,-0.54688 -1.10938,-0.54688 -0.3125,0 -0.64062,0.10938 -0.32813,0.10937 -0.67188,0.35937 -0.32812,0.25 -0.71875,0.64063 -0.375,0.39062 -0.8125,0.95312 v 5.875 h -1.60937 z m 17.24164,9.14062 h -1.42188 l -0.0625,-1.46875 q -0.40625,0.46875 -0.78125,0.78125 -0.35937,0.3125 -0.73437,0.51563 -0.35938,0.1875 -0.73438,0.25 -0.35937,0.0781 -0.76562,0.0781 -1.42188,0 -2.14063,-0.82812 -0.71875,-0.82813 -0.71875,-2.5 v -5.96875 h 1.59375 v 5.84375 q 0,2.10937 1.57813,2.10937 0.29687,0 0.5625,-0.0781 0.28125,-0.0937 0.57812,-0.3125 0.3125,-0.21875 0.65625,-0.57813 0.35938,-0.35937 0.79688,-0.92187 v -6.0625 h 1.59375 z m 10.00732,-0.34375 q -0.625,0.25 -1.28125,0.35938 -0.64063,0.10937 -1.32813,0.10937 -2.17187,0 -3.34375,-1.17187 -1.17187,-1.17188 -1.17187,-3.4375 0,-1.07813 0.32812,-1.95313 0.34375,-0.89062 0.95313,-1.51562 0.60937,-0.64063 1.45312,-0.98438 0.85938,-0.34375 1.875,-0.34375 0.71875,0 1.32813,0.10938 0.625,0.0937 1.1875,0.32812 v 1.51563 q -0.59375,-0.3125 -1.21875,-0.45313 -0.60938,-0.14062 -1.26563,-0.14062 -0.60937,0 -1.15625,0.23437 -0.53125,0.23438 -0.9375,0.67188 -0.40625,0.42187 -0.65625,1.0625 -0.23437,0.625 -0.23437,1.42187 0,1.65625 0.79687,2.48438 0.8125,0.8125 2.25,0.8125 0.64063,0 1.25,-0.14063 0.60938,-0.14062 1.17188,-0.4375 z m 10.52289,0.21875 q -0.53125,0.14063 -1.10938,0.1875 -0.57812,0.0625 -1.17187,0.0625 -1.71875,0 -2.5625,-0.78125 -0.84375,-0.78125 -0.84375,-2.39062 v -4.76563 h -2.5625 v -1.32812 h 2.5625 v -2.51563 l 1.57812,-0.40625 v 2.92188 h 4.10938 v 1.32812 h -4.10938 v 4.64063 q 0,0.98437 0.51563,1.46875 0.53125,0.48437 1.54687,0.48437 0.4375,0 0.95313,-0.0625 0.53125,-0.0625 1.09375,-0.21875 z m 20.76458,-3.09375 q 0,0.84375 -0.34375,1.48438 -0.34375,0.625 -0.96875,1.0625 -0.60937,0.42187 -1.48437,0.625 -0.875,0.20312 -1.92188,0.20312 -0.46875,0 -0.9375,-0.0312 -0.46875,-0.0312 -0.90625,-0.0937 -0.42187,-0.0469 -0.8125,-0.10937 -0.375,-0.0781 -0.6875,-0.17188 v -1.5625 q 0.67188,0.25 1.51563,0.40625 0.85937,0.14063 1.95312,0.14063 0.78125,0 1.32813,-0.125 0.5625,-0.125 0.90625,-0.35938 0.34375,-0.25 0.5,-0.59375 0.17187,-0.34375 0.17187,-0.79687 0,-0.46875 -0.28125,-0.8125 -0.26562,-0.34375 -0.70312,-0.60938 -0.4375,-0.28125 -1,-0.5 -0.54688,-0.21875 -1.14063,-0.45312 -0.57812,-0.23438 -1.14062,-0.51563 -0.5625,-0.28125 -1,-0.65625 -0.4375,-0.375 -0.70313,-0.89062 -0.26562,-0.51563 -0.26562,-1.21875 0,-0.60938 0.25,-1.187505 0.26562,-0.59375 0.79687,-1.046875 0.53125,-0.46875 1.375,-0.75 0.84375,-0.28125 2.01563,-0.28125 0.29687,0 0.64062,0.03125 0.35938,0.01563 0.71875,0.0625 0.35938,0.04687 0.70313,0.125 0.35937,0.0625 0.65625,0.125 v 1.46875 q -0.70313,-0.203125 -1.40625,-0.3125 -0.6875,-0.109375 -1.34375,-0.109375 -1.40625,0 -2.0625,0.46875 -0.65625,0.46875 -0.65625,1.250005 0,0.48437 0.26562,0.82812 0.28125,0.34375 0.71875,0.625 0.4375,0.26563 1,0.5 0.5625,0.21875 1.14063,0.45313 0.57812,0.23437 1.14062,0.51562 0.5625,0.28125 1,0.67188 0.4375,0.39062 0.70313,0.90625 0.26562,0.51562 0.26562,1.23437 z" />
    <path
       style="fill:#ffffff;fill-rule:nonzero"
       inkscape:connector-curvature="0"
       id="path45"
       d="m 713.68866,105.55829 q -0.0312,0.23438 -0.0625,0.45313 -0.0156,0.20312 -0.0156,0.40625 0,0.98437 0.57812,1.51562 0.59375,0.53125 1.84375,0.53125 0.79688,0 1.57813,-0.10937 0.79687,-0.125 1.42187,-0.28125 v 1.29687 q -0.6875,0.1875 -1.54687,0.29688 -0.84375,0.10937 -1.71875,0.10937 -1.9375,0 -2.85938,-0.85937 -0.92187,-0.85938 -0.92187,-2.48438 0,-1.26562 0.39062,-2.375 0.40625,-1.10937 1.09375,-1.9375 0.6875,-0.82812 1.64063,-1.3125 0.95312,-0.5 2.07812,-0.5 0.76563,0 1.375,0.1875 0.60938,0.17188 1.03125,0.5 0.42188,0.3125 0.625,0.75 0.21875,0.4375 0.21875,0.9375 0,0.65625 -0.28125,1.1875 -0.26562,0.51563 -0.875,0.90625 -0.60937,0.375 -1.5625,0.57813 -0.95312,0.20312 -2.3125,0.20312 z m 1.70313,-1.21875 q 1.01562,0 1.67187,-0.125 0.65625,-0.125 1.04688,-0.32812 0.39062,-0.21875 0.54687,-0.48438 0.15625,-0.28125 0.15625,-0.5625 0,-0.26562 -0.10937,-0.48437 -0.0937,-0.23438 -0.3125,-0.40625 -0.21875,-0.17188 -0.54688,-0.26563 -0.3125,-0.10937 -0.75,-0.10937 -0.59375,0 -1.07812,0.20312 -0.48438,0.1875 -0.875,0.54688 -0.39063,0.35937 -0.70313,0.875 -0.29687,0.51562 -0.5,1.14062 z m 14.69482,5.28125 h -2.03125 l -1.76563,-3.48437 -3.14062,3.48437 h -2.125 l 4.45312,-4.59375 -2.46875,-4.54687 h 1.96875 l 1.70313,3.51562 3.0625,-3.51562 h 2.03125 l -4.34375,4.57812 z m 9.55414,-0.125 q -0.57813,0.14063 -1.14063,0.1875 -0.54687,0.0625 -0.98437,0.0625 -0.9375,0 -1.59375,-0.20312 -0.65625,-0.20313 -1.04688,-0.64063 -0.375,-0.45312 -0.48437,-1.15625 -0.0937,-0.71875 0.125,-1.71875 l 0.82812,-4.21875 H 732.797 l 0.25,-1.32812 h 2.5625 l 0.5,-2.51563 1.6875,-0.40625 -0.60938,2.92188 h 4.10938 l -0.26563,1.32812 h -4.09375 l -0.85937,4.26563 q -0.125,0.625 -0.10938,1.07812 0.0312,0.4375 0.21875,0.71875 0.20313,0.28125 0.5625,0.40625 0.35938,0.125 0.9375,0.125 0.32813,0 0.82813,-0.0625 0.51562,-0.0625 1.125,-0.21875 z m 4.81982,-3.9375 q -0.0312,0.23438 -0.0625,0.45313 -0.0156,0.20312 -0.0156,0.40625 0,0.98437 0.57812,1.51562 0.59375,0.53125 1.84375,0.53125 0.79688,0 1.57813,-0.10937 0.79687,-0.125 1.42187,-0.28125 v 1.29687 q -0.6875,0.1875 -1.54687,0.29688 -0.84375,0.10937 -1.71875,0.10937 -1.9375,0 -2.85938,-0.85937 -0.92187,-0.85938 -0.92187,-2.48438 0,-1.26562 0.39062,-2.375 0.40625,-1.10937 1.09375,-1.9375 0.6875,-0.82812 1.64063,-1.3125 0.95312,-0.5 2.07812,-0.5 0.76563,0 1.375,0.1875 0.60938,0.17188 1.03125,0.5 0.42188,0.3125 0.625,0.75 0.21875,0.4375 0.21875,0.9375 0,0.65625 -0.28125,1.1875 -0.26562,0.51563 -0.875,0.90625 -0.60937,0.375 -1.5625,0.57813 -0.95312,0.20312 -2.3125,0.20312 z m 1.70313,-1.21875 q 1.01562,0 1.67187,-0.125 0.65625,-0.125 1.04688,-0.32812 0.39062,-0.21875 0.54687,-0.48438 0.15625,-0.28125 0.15625,-0.5625 0,-0.26562 -0.10937,-0.48437 -0.0937,-0.23438 -0.3125,-0.40625 -0.21875,-0.17188 -0.54688,-0.26563 -0.3125,-0.10937 -0.75,-0.10937 -0.59375,0 -1.07812,0.20312 -0.48438,0.1875 -0.875,0.54688 -0.39063,0.35937 -0.70313,0.875 -0.29687,0.51562 -0.5,1.14062 z m 7.81976,0.32813 q 0.0312,-0.17188 0.0625,-0.45313 0.0469,-0.28125 0.0937,-0.75 0.0625,-0.48437 0.14062,-1.20312 0.0937,-0.73438 0.20313,-1.78125 h 1.48437 l -0.21875,2.10937 q 0.3125,-0.46875 0.6875,-0.875 0.375,-0.42187 0.8125,-0.73437 0.45313,-0.3125 0.98438,-0.48438 0.53125,-0.1875 1.15625,-0.1875 1.5,0 2.07812,0.9375 0.57813,0.9375 0.1875,2.71875 h -1.625 q 0.14063,-0.625 0.14063,-1.0625 0,-0.4375 -0.125,-0.70312 -0.125,-0.28125 -0.375,-0.39063 -0.23438,-0.125 -0.5625,-0.125 -0.65625,0 -1.28125,0.39063 -0.60938,0.39062 -1.125,1.04687 -0.51563,0.64063 -0.89063,1.4375 -0.35937,0.79688 -0.53125,1.60938 l -0.6875,3.45312 h -1.60937 z m 9.88232,0 q 0.0312,-0.17188 0.0625,-0.45313 0.0469,-0.28125 0.0937,-0.75 0.0625,-0.48437 0.14063,-1.20312 0.0937,-0.73438 0.20312,-1.78125 h 1.48438 l -0.21875,2.10937 q 0.64062,-1.10937 1.51562,-1.6875 0.89063,-0.59375 1.9375,-0.59375 1.45313,0 2.04688,0.875 0.60937,0.875 0.26562,2.57813 l -1.17187,5.85937 h -1.59375 l 1.17187,-5.84375 q 0.23438,-1.10937 -0.0312,-1.59375 -0.25,-0.5 -0.98437,-0.5 -0.57813,0 -1.15625,0.40625 -0.57813,0.39063 -1.07813,1.03125 -0.5,0.64063 -0.875,1.45313 -0.375,0.79687 -0.53125,1.59375 l -0.6875,3.45312 h -1.59375 z m 14.81977,-4.29688 q 0.59375,0 1.125,0.0781 0.54687,0.0781 1.04687,0.21875 l 1.4375,-0.35938 -1.03125,5.10938 q -0.0312,0.17187 -0.0781,0.45312 -0.0469,0.28125 -0.10938,0.76563 -0.0469,0.48437 -0.125,1.20312 -0.0781,0.71875 -0.1875,1.78125 h -1.5 l 0.23438,-2.10937 q -0.625,1.09375 -1.53125,1.6875 -0.89063,0.57812 -1.9375,0.57812 -0.65625,0 -1.15625,-0.20312 -0.48438,-0.21875 -0.8125,-0.625 -0.3125,-0.40625 -0.46875,-0.96875 -0.14063,-0.57813 -0.14063,-1.26563 0,-1.3125 0.32813,-2.45312 0.34375,-1.15625 1,-2.01563 0.67187,-0.875 1.65625,-1.375 0.98437,-0.5 2.25,-0.5 z m -3.64063,6.1875 q 0,0.85938 0.29688,1.35938 0.3125,0.48437 0.98437,0.48437 0.39063,0 0.78125,-0.17187 0.39063,-0.1875 0.76563,-0.5 0.375,-0.32813 0.70312,-0.75 0.32813,-0.4375 0.60938,-0.9375 0.28125,-0.5 0.48437,-1.03125 0.20313,-0.54688 0.3125,-1.07813 l 0.375,-1.875 q -0.4375,-0.1875 -0.89062,-0.29687 -0.45313,-0.10938 -0.82813,-0.10938 -0.75,0 -1.3125,0.26563 -0.54687,0.25 -0.95312,0.67187 -0.39063,0.40625 -0.65625,0.9375 -0.25,0.51563 -0.40625,1.0625 -0.14063,0.54688 -0.20313,1.0625 -0.0625,0.51563 -0.0625,0.90625 z m 16.10108,2.4375 q -0.875,0.35938 -1.75,0.5625 -0.85938,0.1875 -1.78125,0.1875 -0.84375,0 -1.39063,-0.20312 -0.54687,-0.21875 -0.82812,-0.6875 -0.26563,-0.48438 -0.28125,-1.25 -0.0156,-0.78125 0.20312,-1.90625 l 1.8125,-8.95313 h 1.625 l -1.78125,8.95313 q -0.17187,0.8125 -0.21875,1.34375 -0.0312,0.51562 0.0625,0.8125 0.10938,0.29687 0.34375,0.42187 0.25,0.10938 0.65625,0.10938 0.67188,0 1.48438,-0.1875 0.82812,-0.1875 1.84375,-0.60938 z" />
    <path
       style="fill:#ffffff;fill-rule:nonzero"
       inkscape:connector-curvature="0"
       id="path47"
       d="m 811.5512,113.35516 h -0.67188 q -1.76562,0 -2.625,-0.82813 -0.84375,-0.8125 -0.84375,-2.5 v -3.125 q 0,-0.45312 -0.10937,-0.79687 -0.0937,-0.35938 -0.34375,-0.59375 -0.25,-0.25 -0.67188,-0.375 -0.40625,-0.125 -1.03125,-0.125 h -0.40625 v -1.26563 h 0.40625 q 0.65625,0 1.07813,-0.10937 0.42187,-0.10938 0.65625,-0.32813 0.23437,-0.23437 0.32812,-0.57812 0.0937,-0.34375 0.0937,-0.8125 v -2.15625 q 0,-0.765625 0.17188,-1.375 0.1875,-0.625 0.59375,-1.046875 0.42187,-0.4375 1.07812,-0.671875 0.67188,-0.234375 1.625,-0.234375 h 0.67188 v 1.265625 h -0.53125 q -2.125,0 -2.125,2.0625 v 2.10937 q 0,2.23438 -1.92188,2.51563 1.9375,0.1875 1.9375,2.5 v 3.10937 q 0,2.07813 2.10938,2.07813 h 0.53125 z" />
    <path
       style="fill:#ffffff;fill-rule:nonzero"
       inkscape:connector-curvature="0"
       id="path49"
       d="m 648.84076,120.63016 q -1.25,-0.26562 -2.15625,-0.26562 -2.14062,0 -2.14062,2.23437 v 1.60938 h 4.01562 v 1.3125 h -4.01562 v 6.49999 h -1.60938 v -6.5 h -2.9375 v -1.3125 h 2.9375 v -1.51562 q 0,-3.65625 3.8125,-3.65625 0.9375,0 2.09375,0.21875 z m -9.57812,2.25 z m 14.83538,1.3125 h -2.70312 v -1.3125 h 4.29687 v 7.8125 h 2.73438 v 1.32812 h -7.34375 v -1.32812 h 3.01562 z m 0.54688,-5.15625 q 0.26562,0 0.48437,0.0937 0.23438,0.0937 0.40625,0.28125 0.17188,0.17188 0.26563,0.39063 0.0937,0.21875 0.0937,0.48437 0,0.25 -0.0937,0.48438 -0.0937,0.23437 -0.26563,0.40625 -0.17187,0.17187 -0.40625,0.26562 -0.21875,0.0937 -0.48437,0.0937 -0.26563,0 -0.5,-0.0937 -0.21875,-0.0937 -0.39063,-0.26562 -0.15625,-0.17188 -0.26562,-0.40625 -0.0937,-0.23438 -0.0937,-0.48438 0,-0.26562 0.0937,-0.48437 0.10937,-0.21875 0.26562,-0.39063 0.17188,-0.1875 0.39063,-0.28125 0.23437,-0.0937 0.5,-0.0937 z m 14.31982,7.92188 q 0,0.34375 -0.0156,0.57812 0,0.21875 -0.0312,0.42188 h -6.42188 q 0,1.40624 0.78125,2.15624 0.79688,0.75 2.26563,0.75 0.40625,0 0.79687,-0.0312 0.40625,-0.0312 0.78125,-0.0781 0.375,-0.0625 0.71875,-0.125 0.34375,-0.0781 0.625,-0.15625 v 1.29687 q -0.64062,0.1875 -1.46875,0.29688 -0.8125,0.10937 -1.6875,0.10937 -1.17187,0 -2.01562,-0.3125 -0.84375,-0.3125 -1.39063,-0.92187 -0.54687,-0.60938 -0.8125,-1.48438 -0.25,-0.875 -0.25,-2 0,-0.95312 0.28125,-1.8125 0.28125,-0.85937 0.8125,-1.51562 0.53125,-0.65625 1.29688,-1.03125 0.78125,-0.39063 1.76562,-0.39063 0.95313,0 1.6875,0.3125 0.75,0.29688 1.25,0.84375 0.5,0.54688 0.76563,1.34375 0.26562,0.78125 0.26562,1.75001 z m -1.65625,-0.21875 q 0.0312,-0.60938 -0.125,-1.10938 -0.14062,-0.51562 -0.45312,-0.875 -0.29688,-0.375 -0.75,-0.57812 -0.45313,-0.20313 -1.0625,-0.20313 -0.51563,0 -0.95313,0.20313 -0.42187,0.20312 -0.73437,0.5625 -0.29688,0.35937 -0.5,0.875 -0.1875,0.51562 -0.23438,1.125 z m 7.30414,-6.28125 h -2.70312 v -1.3125 h 4.29687 v 11.54687 h 2.73438 v 1.32812 h -7.34375 v -1.32812 h 3.01562 z m 6.6792,7.1875 q 0,-1.17188 0.3125,-2.07813 0.3125,-0.90625 0.90625,-1.53125 0.59375,-0.625 1.40625,-0.9375 0.82812,-0.32812 1.84375,-0.32812 0.4375,0 0.85937,0.0625 0.42188,0.0469 0.82813,0.15625 v -3.84375 h 1.59375 v 12.87499 h -1.42188 l -0.0469,-1.73437 q -0.67188,0.96875 -1.45313,1.4375 -0.76562,0.45312 -1.67187,0.45312 -0.78125,0 -1.375,-0.3125 -0.59375,-0.32812 -1,-0.92187 -0.39063,-0.60938 -0.59375,-1.4375 -0.1875,-0.84375 -0.1875,-1.85937 z m 1.60937,-0.10938 q 0,1.65625 0.48438,2.48437 0.5,0.8125 1.39062,0.8125 0.59375,0 1.26563,-0.53125 0.67187,-0.54687 1.40625,-1.60937 v -4.23438 q -0.39063,-0.1875 -0.85938,-0.28125 -0.46875,-0.0937 -0.9375,-0.0937 -1.29687,0 -2.03125,0.84375 -0.71875,0.82813 -0.71875,2.60938 z m 12.77289,-4.82812 q 0.28125,0 0.53125,0.125 0.26563,0.10937 0.45313,0.29687 0.1875,0.1875 0.29687,0.45313 0.125,0.25 0.125,0.53125 0,0.29687 -0.125,0.54687 -0.10937,0.25 -0.29687,0.4375 -0.1875,0.1875 -0.45313,0.29688 -0.25,0.10937 -0.53125,0.10937 -0.28125,0 -0.53125,-0.10937 -0.25,-0.10938 -0.45312,-0.29688 -0.1875,-0.1875 -0.29688,-0.4375 -0.10937,-0.25 -0.10937,-0.54687 0,-0.28125 0.10937,-0.53125 0.10938,-0.26563 0.29688,-0.45313 0.20312,-0.1875 0.45312,-0.29687 0.25,-0.125 0.53125,-0.125 z m 0,6.68749 q 0.28125,0 0.53125,0.10938 0.26563,0.10937 0.45313,0.3125 0.1875,0.1875 0.29687,0.4375 0.125,0.25 0.125,0.53125 0,0.29687 -0.125,0.54687 -0.10937,0.25 -0.29687,0.45313 -0.1875,0.1875 -0.45313,0.28125 -0.25,0.10937 -0.53125,0.10937 -0.28125,0 -0.53125,-0.10937 -0.25,-0.0937 -0.45312,-0.28125 -0.1875,-0.20313 -0.29688,-0.45313 -0.10937,-0.25 -0.10937,-0.54687 0,-0.28125 0.10937,-0.53125 0.10938,-0.25 0.29688,-0.4375 0.20312,-0.20313 0.45312,-0.3125 0.25,-0.10938 0.53125,-0.10938 z m 24.85834,-7.89062 h -3.51563 v 10.51562 h -1.64062 v -10.51562 h -3.53125 v -1.39063 h 8.6875 z m 3.06982,12.39062 q 0.45313,0.0156 0.89063,-0.0937 0.4375,-0.0937 0.76562,-0.29687 0.34375,-0.1875 0.54688,-0.48438 0.20312,-0.29687 0.20312,-0.65625 0,-0.39062 -0.14062,-0.625 -0.125,-0.23437 -0.29688,-0.4375 -0.15625,-0.20312 -0.29687,-0.42187 -0.125,-0.23438 -0.125,-0.625 0,-0.1875 0.0625,-0.39063 0.0781,-0.21875 0.21875,-0.39062 0.15625,-0.17188 0.39062,-0.28125 0.23438,-0.10938 0.5625,-0.10938 0.3125,0 0.60938,0.14063 0.29687,0.125 0.51562,0.40625 0.21875,0.26562 0.34375,0.6875 0.14063,0.40625 0.14063,0.95312 0,0.76563 -0.28125,1.45313 -0.26563,0.70312 -0.82813,1.23437 -0.54687,0.54688 -1.375,0.85938 -0.8125,0.3125 -1.90625,0.3125 z m 2.84375,-11.1875 q 0.28125,0 0.53125,0.125 0.26563,0.10938 0.45313,0.29688 0.1875,0.1875 0.29687,0.45312 0.125,0.25 0.125,0.53125 0,0.29688 -0.125,0.54688 -0.10937,0.25 -0.29687,0.4375 -0.1875,0.1875 -0.45313,0.29687 -0.25,0.10938 -0.53125,0.10938 -0.28125,0 -0.53125,-0.10938 -0.25,-0.10937 -0.45312,-0.29687 -0.1875,-0.1875 -0.29688,-0.4375 -0.10937,-0.25 -0.10937,-0.54688 0,-0.28125 0.10937,-0.53125 0.10938,-0.26562 0.29688,-0.45312 0.20312,-0.1875 0.45312,-0.29688 0.25,-0.125 0.53125,-0.125 z" />
    <path
       style="fill:#ffffff;fill-rule:nonzero"
       inkscape:connector-curvature="0"
       id="path51"
       d="m 641.4345,154.42078 v -1.875 h 1.875 v 1.875 z m 6.23437,0 v -1.875 h 1.85938 v 1.875 z m 6.20313,0 v -1.875 h 1.875 v 1.875 z" />
    <path
       style="fill:#ffffff;fill-rule:nonzero"
       inkscape:connector-curvature="0"
       id="path53"
       d="m 620.8418,163.63329 h 0.67188 q 1.75,0 2.60937,0.82812 0.85938,0.8125 0.85938,2.5 v 2.09375 q 0,0.45313 0.0937,0.8125 0.10937,0.34375 0.35937,0.59375 0.25,0.23438 0.65625,0.35938 0.42188,0.125 1.0625,0.125 h 0.39063 v 1.26562 h -0.39063 q -0.67187,0 -1.09375,0.10938 -0.42187,0.10937 -0.67187,0.34375 -0.23438,0.21875 -0.32813,0.5625 -0.0781,0.34375 -0.0781,0.8125 v 3.1875 q 0,0.76562 -0.1875,1.375 -0.1875,0.625 -0.59375,1.04687 -0.40625,0.4375 -1.07813,0.67188 -0.65625,0.23437 -1.60937,0.23437 h -0.67188 v -1.28125 h 0.53125 q 2.10938,0 2.10938,-2.04687 v -3.14063 q 0,-2.23437 1.92187,-2.5 -1.9375,-0.21875 -1.9375,-2.51562 v -2.07813 q 0,-2.09375 -2.09375,-2.09375 h -0.53125 z" />
    <path
       style="fill:none;fill-opacity:1;stroke:#ffffff;stroke-width:1px;stroke-linecap:butt;stroke-linejoin:miter;stroke-opacity:1;marker-end:url(#Arrow2Mend)"
       d="m 727.09897,57.605299 c 14.57671,0 29.75193,11.440719 29.75193,30.254809"
       id="path1001"
       inkscape:connector-curvature="0"
       sodipodi:nodetypes="cc" />
    <text
       xml:space="preserve"
       style="font-style:normal;font-variant:normal;font-weight:normal;font-stretch:normal;font-size:18.66666603px;line-height:0;font-family:Roboto;-inkscape-font-specification:'Roboto, Normal';font-variant-ligatures:normal;font-variant-caps:normal;font-variant-numeric:normal;font-feature-settings:normal;text-align:start;writing-mode:lr-tb;text-anchor:start;fill:none;fill-opacity:1;stroke:#ffffff;stroke-width:1;stroke-linejoin:round;stroke-miterlimit:21;stroke-dasharray:0.5, 0.5;stroke-dashoffset:0;stroke-opacity:1"
       x="672.013"
       y="61.663769"
       id="text1571"><tspan
         sodipodi:role="line"
         id="tspan1569"
         x="672.013"
         y="61.663769"
         style="font-style:italic;font-variant:normal;font-weight:normal;font-stretch:normal;font-size:13.33333302px;font-family:Roboto;-inkscape-font-specification:'Roboto, Italic';font-variant-ligatures:normal;font-variant-caps:normal;font-variant-numeric:normal;font-feature-settings:normal;text-align:start;writing-mode:lr-tb;text-anchor:start;fill:#ffffff;fill-opacity:1;stroke:none">Optional</tspan></text>
    <g
       id="g3069">
      <text
         id="text2109"
         y="249.59767"
         x="556.65198"
         style="font-style:normal;font-variant:normal;font-weight:bold;font-stretch:normal;font-size:18.66666603px;line-height:1;font-family:Hack;-inkscape-font-specification:'Hack, Bold';font-variant-ligatures:normal;font-variant-caps:normal;font-variant-numeric:normal;font-feature-settings:normal;text-align:start;writing-mode:lr-tb;text-anchor:start;fill:#ffffff;fill-opacity:1;stroke:#ffffff;stroke-width:1;stroke-linejoin:round;stroke-miterlimit:21;stroke-dasharray:0.5, 0.5;stroke-dashoffset:0;stroke-opacity:1"
         xml:space="preserve"><tspan
           id="tspan2107"
           style="font-style:normal;font-variant:normal;font-weight:normal;font-stretch:normal;font-size:18.66666603px;font-family:Roboto;-inkscape-font-specification:'Roboto, Normal';font-variant-ligatures:normal;font-variant-caps:normal;font-variant-numeric:normal;font-feature-settings:normal;text-align:start;writing-mode:lr-tb;text-anchor:start;stroke:none"
           y="249.59767"
           x="556.65198"
           sodipodi:role="line">Represented as a struct in C++</tspan></text>
      <path
         style="fill:#ffffff;fill-rule:nonzero"
         inkscape:connector-curvature="0"
         id="path2111"
         d="m 528.58762,239.31883 q 1,0 1.96875,0.53125 0.96875,0.51562 1.5,1.48437 0.53125,0.96875 0.53125,2 0,1.67188 -1.17187,2.84375 -1.17188,1.17188 -2.82813,1.17188 -1.67187,0 -2.84375,-1.17188 -1.17187,-1.17187 -1.17187,-2.84375 0,-1.04687 0.53125,-2 0.54687,-0.96875 1.5,-1.48437 0.96875,-0.53125 1.98437,-0.53125 z" />
      <text
         xml:space="preserve"
         style="font-style:normal;font-variant:normal;font-weight:bold;font-stretch:normal;font-size:18.66666603px;line-height:1;font-family:Hack;-inkscape-font-specification:'Hack, Bold';font-variant-ligatures:normal;font-variant-caps:normal;font-variant-numeric:normal;font-feature-settings:normal;text-align:start;writing-mode:lr-tb;text-anchor:start;fill:#ffffff;fill-opacity:1;stroke:#ffffff;stroke-width:1;stroke-linejoin:round;stroke-miterlimit:21;stroke-dasharray:0.5, 0.5;stroke-dashoffset:0;stroke-opacity:1"
         x="556.65198"
         y="284.23792"
         id="text2117"><tspan
           sodipodi:role="line"
           x="556.65198"
           y="284.23792"
           style="font-style:normal;font-variant:normal;font-weight:bold;font-stretch:normal;font-size:18.66666603px;font-family:Roboto;-inkscape-font-specification:'Roboto, Normal';font-variant-ligatures:normal;font-variant-caps:normal;font-variant-numeric:normal;font-feature-settings:normal;text-align:start;writing-mode:lr-tb;text-anchor:start;stroke:none"
           id="tspan2115">Conversion<tspan
   id="tspan2119"
   style="font-weight:normal">: convert shared fields,</tspan></tspan><tspan
           id="tspan2121"
           sodipodi:role="line"
           x="556.65198"
           y="303.08688"
           style="font-style:normal;font-variant:normal;font-weight:normal;font-stretch:normal;font-size:18.66666603px;font-family:Roboto;-inkscape-font-specification:'Roboto, Normal';font-variant-ligatures:normal;font-variant-caps:normal;font-variant-numeric:normal;font-feature-settings:normal;text-align:start;writing-mode:lr-tb;text-anchor:start;stroke:none">default-fill other fields</tspan></text>
      <text
         id="text2131"
         y="334.11774"
         x="556.65198"
         style="font-style:normal;font-variant:normal;font-weight:bold;font-stretch:normal;font-size:18.66666603px;line-height:1;font-family:Hack;-inkscape-font-specification:'Hack, Bold';font-variant-ligatures:normal;font-variant-caps:normal;font-variant-numeric:normal;font-feature-settings:normal;text-align:start;writing-mode:lr-tb;text-anchor:start;fill:#ffffff;fill-opacity:1;stroke:#ffffff;stroke-width:1;stroke-linejoin:round;stroke-miterlimit:21;stroke-dasharray:0.5, 0.5;stroke-dashoffset:0;stroke-opacity:1"
         xml:space="preserve"><tspan
           style="font-style:normal;font-variant:normal;font-weight:normal;font-stretch:normal;font-size:18.66666603px;font-family:Roboto;-inkscape-font-specification:'Roboto, Normal';font-variant-ligatures:normal;font-variant-caps:normal;font-variant-numeric:normal;font-feature-settings:normal;text-align:start;writing-mode:lr-tb;text-anchor:start;stroke:none"
           y="334.11774"
           x="556.65198"
           sodipodi:role="line"
           id="tspan2129"><tspan
   style="font-style:normal;font-variant:normal;font-weight:bold;font-stretch:normal;font-size:18.66666603px;font-family:Roboto;-inkscape-font-specification:'Roboto, Normal';font-variant-ligatures:normal;font-variant-caps:normal;font-variant-numeric:normal;font-feature-settings:normal;text-align:start;writing-mode:lr-tb;text-anchor:start;stroke:none"
   id="tspan2135">Default</tspan>: default-fill all fields</tspan></text>
      <path
         d="m 528.58762,273.68695 q 1,0 1.96875,0.53125 0.96875,0.51562 1.5,1.48437 0.53125,0.96875 0.53125,2 0,1.67188 -1.17187,2.84375 -1.17188,1.17188 -2.82813,1.17188 -1.67187,0 -2.84375,-1.17188 -1.17187,-1.17187 -1.17187,-2.84375 0,-1.04687 0.53125,-2 0.54687,-0.96875 1.5,-1.48437 0.96875,-0.53125 1.98437,-0.53125 z"
         id="path2139"
         inkscape:connector-curvature="0"
         style="fill:#ffffff;fill-rule:nonzero" />
      <path
         style="fill:#ffffff;fill-rule:nonzero"
         inkscape:connector-curvature="0"
         id="path2141"
         d="m 528.58762,322.98798 q 1,0 1.96875,0.53125 0.96875,0.51562 1.5,1.48437 0.53125,0.96875 0.53125,2 0,1.67188 -1.17187,2.84375 -1.17188,1.17188 -2.82813,1.17188 -1.67187,0 -2.84375,-1.17188 -1.17187,-1.17187 -1.17187,-2.84375 0,-1.04687 0.53125,-2 0.54687,-0.96875 1.5,-1.48437 0.96875,-0.53125 1.98437,-0.53125 z" />
      <text
         xml:space="preserve"
         style="font-style:normal;font-variant:normal;font-weight:bold;font-stretch:normal;font-size:18.66666603px;line-height:1;font-family:Hack;-inkscape-font-specification:'Hack, Bold';font-variant-ligatures:normal;font-variant-caps:normal;font-variant-numeric:normal;font-feature-settings:normal;text-align:start;writing-mode:lr-tb;text-anchor:start;fill:#ffffff;fill-opacity:1;stroke:#ffffff;stroke-width:1;stroke-linejoin:round;stroke-miterlimit:21;stroke-dasharray:0.5, 0.5;stroke-dashoffset:0;stroke-opacity:1"
         x="556.65198"
         y="365.14859"
         id="text2173"><tspan
           id="tspan2171"
           sodipodi:role="line"
           x="556.65198"
           y="365.14859"
           style="font-style:italic;font-variant:normal;font-weight:normal;font-stretch:normal;font-size:18.66666603px;font-family:Roboto;-inkscape-font-specification:'Roboto, Normal';font-variant-ligatures:normal;font-variant-caps:normal;font-variant-numeric:normal;font-feature-settings:normal;text-align:start;writing-mode:lr-tb;text-anchor:start;stroke:none"><tspan
             id="tspan2183"
             style="font-style:italic;font-variant:normal;font-weight:normal;font-stretch:normal;font-size:18.66666603px;font-family:Hack;-inkscape-font-specification:'Hack, Italic';font-variant-ligatures:normal;font-variant-caps:normal;font-variant-numeric:normal;font-feature-settings:normal;text-align:start;writing-mode:lr-tb;text-anchor:start">external</tspan><tspan
             id="tspan2181"
             style="font-style:normal">: doesn't generate struct definition,</tspan></tspan><tspan
           id="tspan2177"
           sodipodi:role="line"
           x="556.65198"
           y="383.99756"
           style="font-style:normal;font-variant:normal;font-weight:normal;font-stretch:normal;font-size:18.66666603px;font-family:Roboto;-inkscape-font-specification:'Roboto, Normal';font-variant-ligatures:normal;font-variant-caps:normal;font-variant-numeric:normal;font-feature-settings:normal;text-align:start;writing-mode:lr-tb;text-anchor:start;stroke:none">only codegen routines that hook into an</tspan><tspan
           id="tspan2179"
           sodipodi:role="line"
           x="556.65198"
           y="402.8465"
           style="font-style:normal;font-variant:normal;font-weight:normal;font-stretch:normal;font-size:18.66666603px;font-family:Roboto;-inkscape-font-specification:'Roboto, Normal';font-variant-ligatures:normal;font-variant-caps:normal;font-variant-numeric:normal;font-feature-settings:normal;text-align:start;writing-mode:lr-tb;text-anchor:start;stroke:none">existing definition</tspan></text>
      <path
         d="m 528.58762,355.17924 q 1,0 1.96875,0.53125 0.96875,0.51562 1.5,1.48437 0.53125,0.96875 0.53125,2 0,1.67188 -1.17187,2.84375 -1.17188,1.17188 -2.82813,1.17188 -1.67187,0 -2.84375,-1.17188 -1.17187,-1.17187 -1.17187,-2.84375 0,-1.04687 0.53125,-2 0.54687,-0.96875 1.5,-1.48437 0.96875,-0.53125 1.98437,-0.53125 z"
         id="path2175"
         inkscape:connector-curvature="0"
         style="fill:#ffffff;fill-rule:nonzero" />
    </g>
  </g>
</svg>
