<?xml version="1.0" encoding="UTF-8" standalone="no"?>
<svg
   xmlns:dc="http://purl.org/dc/elements/1.1/"
   xmlns:cc="http://creativecommons.org/ns#"
   xmlns:rdf="http://www.w3.org/1999/02/22-rdf-syntax-ns#"
   xmlns:svg="http://www.w3.org/2000/svg"
   xmlns="http://www.w3.org/2000/svg"
   xmlns:sodipodi="http://sodipodi.sourceforge.net/DTD/sodipodi-0.dtd"
   xmlns:inkscape="http://www.inkscape.org/namespaces/inkscape"
   version="1.1"
   viewBox="0.0 0.0 960.0 540.0"
   fill="none"
   stroke="none"
   stroke-linecap="square"
   stroke-miterlimit="10"
   id="svg29"
   sodipodi:docname="triangle.svg"
   inkscape:version="0.92.2 (5c3e80d, 2017-08-06)">
  <metadata
     id="metadata35">
    <rdf:RDF>
      <cc:Work
         rdf:about="">
        <dc:format>image/svg+xml</dc:format>
        <dc:type
           rdf:resource="http://purl.org/dc/dcmitype/StillImage" />
        <dc:title></dc:title>
      </cc:Work>
    </rdf:RDF>
  </metadata>
  <defs
     id="defs33" />
  <sodipodi:namedview
     pagecolor="#ffffff"
     bordercolor="#666666"
     borderopacity="1"
     objecttolerance="10"
     gridtolerance="10"
     guidetolerance="10"
     inkscape:pageopacity="0"
     inkscape:pageshadow="2"
     inkscape:window-width="3840"
     inkscape:window-height="2087"
     id="namedview31"
     showgrid="false"
     inkscape:zoom="1.979899"
     inkscape:cx="352.3248"
     inkscape:cy="301.75696"
     inkscape:window-x="0"
     inkscape:window-y="73"
     inkscape:window-maximized="0"
     inkscape:current-layer="layer1" />
  <clipPath
     id="g131f26ff5ad_2_0.0">
    <path
       d="m0 0l960.0 0l0 540.0l-960.0 0l0 -540.0z"
       clip-rule="nonzero"
       id="path2" />
  </clipPath>
  <g
     inkscape:groupmode="layer"
     id="layer2"
     inkscape:label="Background"
     style="display:inline"
     sodipodi:insensitive="true">
    <path
       style="fill:#212121;fill-rule:evenodd"
       inkscape:connector-curvature="0"
       id="path5"
       d="M 0,0 H 960 V 540 H 0 Z" />
  </g>
  <g
     inkscape:groupmode="layer"
     id="layer1"
     inkscape:label="Content">
    <path
       style="fill:#000000;fill-opacity:0;fill-rule:evenodd"
       inkscape:connector-curvature="0"
       id="path7"
       d="M 32.72441,46.721786 H 927.27556 V 106.84777 H 32.72441 Z" />
    <path
       style="fill:#ffffff;fill-rule:nonzero"
       inkscape:connector-curvature="0"
       id="path9"
       d="m 48.56816,64.08716 7.796875,19.5 7.8125,-19.5 h 4.09375 v 23.890625 h -3.15625 V 78.68091 l 0.296875,-10.046875 -7.84375,19.34375 h -2.40625 l -7.828125,-19.296875 0.3125,10 v 9.296875 h -3.15625 V 64.08716 Z m 23.985168,14.859375 q 0,-2.609375 1.015625,-4.6875 1.03125,-2.09375 2.859375,-3.21875 1.828125,-1.140625 4.171875,-1.140625 3.625,0 5.859375,2.515625 2.25,2.5 2.25,6.671875 v 0.21875 q 0,2.59375 -1,4.65625 -0.984375,2.046875 -2.84375,3.203125 -1.84375,1.140625 -4.234375,1.140625 -3.609375,0 -5.84375,-2.5 -2.234375,-2.515625 -2.234375,-6.65625 z m 3.046875,0.359375 q 0,2.953125 1.359375,4.734375 1.375,1.78125 3.671875,1.78125 2.3125,0 3.671875,-1.8125 1.359375,-1.8125 1.359375,-5.0625 0,-2.921875 -1.390625,-4.734375 -1.375,-1.8125 -3.671875,-1.8125 -2.25,0 -3.625,1.796875 -1.375,1.78125 -1.375,5.109375 z m 21.01831,-13.375 v 4.296875 h 3.328125 v 2.34375 H 96.618513 V 83.58716 q 0,1.0625 0.4375,1.59375 0.453125,0.53125 1.515625,0.53125 0.53125,0 1.453122,-0.1875 v 2.453125 q -1.203122,0.328125 -2.328122,0.328125 -2.03125,0 -3.078125,-1.21875 -1.03125,-1.234375 -1.03125,-3.5 V 72.571535 h -3.234375 v -2.34375 h 3.234375 V 65.93091 Z m 10.161237,22.046875 h -3.03125 v -17.75 h 3.03125 z M 103.4985,65.52466 q 0,-0.734375 0.45313,-1.25 0.45312,-0.515625 1.32812,-0.515625 0.89063,0 1.34375,0.515625 0.46875,0.515625 0.46875,1.25 0,0.734375 -0.46875,1.234375 -0.45312,0.484375 -1.34375,0.484375 -0.875,0 -1.32812,-0.484375 -0.45313,-0.5 -0.45313,-1.234375 z m 13.99614,18.328125 4.39063,-13.625 h 3.10937 l -6.375,17.75 h -2.3125 l -6.42187,-17.75 h 3.09375 z m 21.11963,4.125 q -0.26562,-0.53125 -0.42187,-1.875 -2.10938,2.203125 -5.04688,2.203125 -2.625,0 -4.3125,-1.484375 -1.6875,-1.484375 -1.6875,-3.765625 0,-2.765625 2.10938,-4.296875 2.10937,-1.546875 5.9375,-1.546875 h 2.95312 v -1.390625 q 0,-1.59375 -0.95312,-2.53125 -0.95313,-0.9375 -2.8125,-0.9375 -1.625,0 -2.71875,0.828125 -1.09375,0.8125 -1.09375,1.96875 h -3.04688 q 0,-1.328125 0.9375,-2.5625 0.9375,-1.25 2.54688,-1.96875 1.625,-0.71875 3.5625,-0.71875 3.0625,0 4.79687,1.53125 1.75,1.53125 1.8125,4.234375 v 8.15625 q 0,2.453125 0.625,3.890625 v 0.265625 z m -5.03125,-2.3125 q 1.42188,0 2.70313,-0.734375 1.28125,-0.75 1.85937,-1.921875 V 79.36841 h -2.375 q -5.57812,0 -5.57812,3.265625 0,1.421875 0.9375,2.234375 0.95312,0.796875 2.45312,0.796875 z M 150.04368,65.93091 v 4.296875 h 3.32813 v 2.34375 h -3.32813 V 83.58716 q 0,1.0625 0.4375,1.59375 0.45313,0.53125 1.51563,0.53125 0.53125,0 1.45312,-0.1875 v 2.453125 q -1.20312,0.328125 -2.32812,0.328125 -2.03125,0 -3.07813,-1.21875 -1.03125,-1.234375 -1.03125,-3.5 V 72.571535 h -3.23437 v -2.34375 h 3.23437 V 65.93091 Z m 10.16124,22.046875 h -3.03125 v -17.75 h 3.03125 z M 156.92367,65.52466 q 0,-0.734375 0.45313,-1.25 0.45312,-0.515625 1.32812,-0.515625 0.89063,0 1.34375,0.515625 0.46875,0.515625 0.46875,1.25 0,0.734375 -0.46875,1.234375 -0.45312,0.484375 -1.34375,0.484375 -0.875,0 -1.32812,-0.484375 -0.45313,-0.5 -0.45313,-1.234375 z m 7.33989,13.421875 q 0,-2.609375 1.01563,-4.6875 1.03125,-2.09375 2.85937,-3.21875 1.82813,-1.140625 4.17188,-1.140625 3.625,0 5.85937,2.515625 2.25,2.5 2.25,6.671875 v 0.21875 q 0,2.59375 -1,4.65625 -0.98437,2.046875 -2.84375,3.203125 -1.84375,1.140625 -4.23437,1.140625 -3.60938,0 -5.84375,-2.5 -2.23438,-2.515625 -2.23438,-6.65625 z m 3.04688,0.359375 q 0,2.953125 1.35937,4.734375 1.375,1.78125 3.67188,1.78125 2.3125,0 3.67187,-1.8125 1.35938,-1.8125 1.35938,-5.0625 0,-2.921875 -1.39063,-4.734375 -1.375,-1.8125 -3.67187,-1.8125 -2.25,0 -3.625,1.796875 -1.375,1.78125 -1.375,5.109375 z m 19.78394,-9.078125 0.0937,2.234375 q 2.03125,-2.5625 5.3125,-2.5625 5.625,0 5.67187,6.34375 v 11.734375 h -3.03125 v -11.75 q -0.0156,-1.90625 -0.875,-2.828125 -0.85937,-0.921875 -2.6875,-0.921875 -1.46875,0 -2.59375,0.796875 -1.10937,0.78125 -1.73437,2.0625 v 12.640625 h -3.03125 v -17.75 z" />
    <path
       style="fill:#000000;fill-opacity:0;fill-rule:evenodd"
       inkscape:connector-curvature="0"
       id="path11"
       d="M 303.02887,465.55643 480.4147,155.22573 657.80053,465.55643 Z" />
    <path
       style="fill-rule:evenodd;stroke:#ffffff;stroke-width:4;stroke-linecap:butt;stroke-linejoin:round"
       inkscape:connector-curvature="0"
       id="path13"
       d="M 303.02887,465.55643 480.4147,155.22573 657.80053,465.55643 Z" />
    <path
       style="fill:#000000;fill-opacity:0;fill-rule:evenodd"
       inkscape:connector-curvature="0"
       id="path15"
       d="m 399.063,113.20998 h 162.39368 v 42.01575 H 399.063 Z" />
    <path
       style="fill:#000000;fill-opacity:0;fill-rule:evenodd"
       inkscape:connector-curvature="0"
       id="path19"
       d="m 662.9134,441.79266 h 118.04724 v 42.01575 H 662.9134 Z" />
    <path
       style="fill:#000000;fill-opacity:0;fill-rule:evenodd"
       inkscape:connector-curvature="0"
       id="path23"
       d="m 125.20582,441.79266 h 243.55905 v 42.01575 H 125.20582 Z" />
    <g
       id="g886">
      <text
         id="text844"
         y="143.41251"
         x="423.02472"
         style="font-style:italic;font-variant:normal;font-weight:normal;font-stretch:normal;font-size:18.66666603px;line-height:0;font-family:Hack;-inkscape-font-specification:'Hack, Italic';font-variant-ligatures:normal;font-variant-caps:normal;font-variant-numeric:normal;font-feature-settings:normal;text-align:start;writing-mode:lr-tb;text-anchor:start;fill:#ffffff;fill-opacity:1;stroke:#d5d5d5;stroke-width:1;stroke-linejoin:round;stroke-miterlimit:21;stroke-dasharray:0.5, 0.5;stroke-dashoffset:0;stroke-opacity:1"
         xml:space="preserve"><tspan
           style="font-style:normal;font-variant:normal;font-weight:bold;font-stretch:normal;font-size:18.66666603px;font-family:Roboto;-inkscape-font-specification:'Roboto, Bold';font-variant-ligatures:normal;font-variant-caps:normal;font-variant-numeric:normal;font-feature-settings:normal;text-align:start;writing-mode:lr-tb;text-anchor:start;stroke:none"
           y="143.41251"
           x="423.02472"
           id="tspan842"
           sodipodi:role="line">Transparency</tspan></text>
      <text
         xml:space="preserve"
         style="font-style:italic;font-variant:normal;font-weight:normal;font-stretch:normal;font-size:18.66666603px;line-height:0;font-family:Hack;-inkscape-font-specification:'Hack, Italic';font-variant-ligatures:normal;font-variant-caps:normal;font-variant-numeric:normal;font-feature-settings:normal;text-align:start;writing-mode:lr-tb;text-anchor:start;fill:#ffffff;fill-opacity:1;stroke:#d5d5d5;stroke-width:1;stroke-linejoin:round;stroke-miterlimit:21;stroke-dasharray:0.5, 0.5;stroke-dashoffset:0;stroke-opacity:1"
         x="139.10876"
         y="466.87415"
         id="text874"><tspan
           sodipodi:role="line"
           id="tspan872"
           x="139.10876"
           y="466.87415"
           style="font-style:normal;font-variant:normal;font-weight:bold;font-stretch:normal;font-size:18.66666603px;font-family:Roboto;-inkscape-font-specification:'Roboto, Bold';font-variant-ligatures:normal;font-variant-caps:normal;font-variant-numeric:normal;font-feature-settings:normal;text-align:start;writing-mode:lr-tb;text-anchor:start;stroke:none">Version Flexibility</tspan></text>
      <text
         id="text878"
         y="466.87415"
         x="677.52008"
         style="font-style:italic;font-variant:normal;font-weight:normal;font-stretch:normal;font-size:18.66666603px;line-height:0;font-family:Hack;-inkscape-font-specification:'Hack, Italic';font-variant-ligatures:normal;font-variant-caps:normal;font-variant-numeric:normal;font-feature-settings:normal;text-align:start;writing-mode:lr-tb;text-anchor:start;fill:#ffffff;fill-opacity:1;stroke:#d5d5d5;stroke-width:1;stroke-linejoin:round;stroke-miterlimit:21;stroke-dasharray:0.5, 0.5;stroke-dashoffset:0;stroke-opacity:1"
         xml:space="preserve"><tspan
           style="font-style:normal;font-variant:normal;font-weight:bold;font-stretch:normal;font-size:18.66666603px;font-family:Roboto;-inkscape-font-specification:'Roboto, Bold';font-variant-ligatures:normal;font-variant-caps:normal;font-variant-numeric:normal;font-feature-settings:normal;text-align:start;writing-mode:lr-tb;text-anchor:start;stroke:none"
           y="466.87415"
           x="677.52008"
           id="tspan876"
           sodipodi:role="line">Performance</tspan></text>
    </g>
  </g>
</svg>
