<svg version="1.1" viewBox="0.0 0.0 960.0 540.0" fill="none" stroke="none" stroke-linecap="square" stroke-miterlimit="10" xmlns:xlink="http://www.w3.org/1999/xlink" xmlns="http://www.w3.org/2000/svg"><clipPath id="g131f2da0398_0_397.0"><path d="m0 0l960.0 0l0 540.0l-960.0 0l0 -540.0z" clip-rule="nonzero"/></clipPath><g clip-path="url(#g131f2da0398_0_397.0)"><path fill="#212121" d="m0 0l960.0 0l0 540.0l-960.0 0z" fill-rule="evenodd"/><path fill="#303030" d="m480.0 0.002624672l480.0 0l0 540.0l-480.0 0z" fill-rule="evenodd"/><path fill="#000000" fill-opacity="0.0" d="m27.874016 129.4672l424.6929 0l0 155.62204l-424.6929 0z" fill-rule="evenodd"/><path fill="#ffffff" d="m198.39429 227.14925l-12.796875 0l0 35.499985l-5.21875 0l0 -35.499985l-12.765625 0l0 -4.3125l30.78125 0l0 4.3125zm12.8359375 28.09375l6.890625 -22.1875l5.40625 0l-11.890625 34.156235q-2.765625 7.390625 -8.78125 7.390625l-0.953125 -0.078125l-1.890625 -0.359375l0 -4.109375l1.375 0.109375q2.5625 0 4.0 -1.046875q1.4375 -1.03125 2.359375 -3.78125l1.125 -3.015625l-10.546875 -29.26561l5.515625 0l7.390625 22.1875zm41.808594 -7.0625q0 6.75 -3.09375 10.89061q-3.09375 4.125 -8.375 4.125q-5.375 0 -8.46875 -3.421875l0 14.25l-5.0625 0l0 -40.968735l4.625 0l0.25 3.28125q3.078125 -3.828125 8.578125 -3.828125q5.328125 0 8.4375 4.03125q3.109375 4.015625 3.109375 11.171875l0 0.46875zm-5.0625 -0.578125q0 -5.0 -2.140625 -7.890625q-2.125 -2.90625 -5.84375 -2.90625q-4.59375 0 -6.890625 4.078125l0 14.140625q2.265625 4.0468597 6.9375 4.0468597q3.640625 0 5.78125 -2.890625q2.15625 -2.8906097 2.15625 -8.57811zm23.761719 15.593735q-6.015625 0 -9.796875 -3.953125q-3.765625 -3.9531097 -3.765625 -10.562485l0 -0.9375q0 -4.40625 1.671875 -7.859375q1.6875 -3.453125 4.703125 -5.40625q3.03125 -1.96875 6.5625 -1.96875q5.765625 0 8.953125 3.8125q3.203125 3.796875 3.203125 10.875l0 2.109375l-20.03125 0q0.109375 4.375 2.546875 7.0781097q2.453125 2.6875 6.21875 2.6875q2.6875 0 4.546875 -1.09375q1.859375 -1.09375 3.25 -2.9062347l3.09375 2.4062347q-3.71875 5.71875 -11.15625 5.71875zm-0.625 -26.531235q-3.0625 0 -5.140625 2.234375q-2.078125 2.234375 -2.578125 6.25l14.828125 0l0 -0.390625q-0.21875 -3.84375 -2.078125 -5.96875q-1.859375 -2.125 -5.03125 -2.125zm35.246094 18.140625q0 -2.0625 -1.546875 -3.1875q-1.546875 -1.140625 -5.390625 -1.953125q-3.84375 -0.828125 -6.109375 -1.96875q-2.25 -1.15625 -3.328125 -2.734375q-1.078125 -1.59375 -1.078125 -3.78125q0 -3.640625 3.078125 -6.15625q3.078125 -2.515625 7.859375 -2.515625q5.03125 0 8.15625 2.609375q3.140625 2.59375 3.140625 6.640625l-5.09375 0q0 -2.078125 -1.765625 -3.578125q-1.75 -1.515625 -4.4375 -1.515625q-2.765625 0 -4.328125 1.203125q-1.546875 1.203125 -1.546875 3.15625q0 1.828125 1.4375 2.765625q1.453125 0.921875 5.234375 1.765625q3.796875 0.84375 6.140625 2.03125q2.359375 1.171875 3.484375 2.828125q1.140625 1.65625 1.140625 4.03125q0 3.9687347 -3.171875 6.3593597q-3.171875 2.390625 -8.21875 2.390625q-3.5625 0 -6.296875 -1.25q-2.734375 -1.265625 -4.28125 -3.515625q-1.546875 -2.265625 -1.546875 -4.8906097l5.0625 0q0.140625 2.5468597 2.03125 4.0468597q1.90625 1.484375 5.03125 1.484375q2.859375 0 4.59375 -1.15625q1.75 -1.171875 1.75 -3.1093597z" fill-rule="nonzero"/><path fill="#000000" fill-opacity="0.0" d="m518.5827 201.49869l402.8346 0l0 262.4567l-402.8346 0z" fill-rule="evenodd"/><path fill="#ffffff" d="m545.95483 278.64578q1.0 0 1.96875 0.53125q0.96875 0.515625 1.5 1.484375q0.53125 0.96875 0.53125 2.0q0 1.671875 -1.171875 2.84375q-1.171875 1.171875 -2.828125 1.171875q-1.671875 0 -2.84375 -1.171875q-1.171875 -1.171875 -1.171875 -2.84375q0 -1.046875 0.53125 -2.0q0.546875 -0.96875 1.5 -1.484375q0.96875 -0.53125 1.984375 -0.53125z" fill-rule="nonzero"/><path fill="#ffffff" d="m581.5202 285.5989l3.78125 -10.9375l1.921875 0l-4.921875 13.265625l-1.546875 0l-4.921875 -13.265625l1.90625 0l3.78125 10.9375zm12.872253 2.328125q-0.140625 -0.296875 -0.234375 -1.03125q-1.171875 1.21875 -2.8125 1.21875q-1.453125 0 -2.390625 -0.828125q-0.921875 -0.828125 -0.921875 -2.09375q0 -1.53125 1.15625 -2.375q1.171875 -0.859375 3.296875 -0.859375l1.640625 0l0 -0.78125q0 -0.890625 -0.53125 -1.40625q-0.515625 -0.53125 -1.546875 -0.53125q-0.90625 0 -1.515625 0.46875q-0.609375 0.453125 -0.609375 1.09375l-1.703125 0q0 -0.734375 0.515625 -1.421875q0.53125 -0.6875 1.421875 -1.078125q0.90625 -0.40625 1.984375 -0.40625q1.703125 0 2.671875 0.859375q0.96875 0.84375 1.0 2.328125l0 4.53125q0 1.359375 0.34375 2.171875l0 0.140625l-1.765625 0zm-2.796875 -1.28125q0.796875 0 1.5 -0.40625q0.71875 -0.421875 1.03125 -1.078125l0 -2.015625l-1.3125 0q-3.109375 0 -3.109375 1.8125q0 0.796875 0.53125 1.25q0.53125 0.4375 1.359375 0.4375zm11.632385 -7.0625q-0.390625 -0.0625 -0.84375 -0.0625q-1.65625 0 -2.25 1.40625l0 7.0l-1.671875 0l0 -9.859375l1.640625 0l0.015625 1.140625q0.828125 -1.3125 2.359375 -1.3125q0.484375 0 0.75 0.125l0 1.5625zm3.3753662 8.34375l-1.6875 0l0 -9.859375l1.6875 0l0 9.859375zm-1.828125 -12.46875q0 -0.40625 0.25 -0.6875q0.25 -0.296875 0.734375 -0.296875q0.5 0 0.75 0.296875q0.265625 0.28125 0.265625 0.6875q0 0.40625 -0.265625 0.6875q-0.25 0.265625 -0.75 0.265625q-0.484375 0 -0.734375 -0.265625q-0.25 -0.28125 -0.25 -0.6875zm10.60553 12.46875q-0.140625 -0.296875 -0.234375 -1.03125q-1.171875 1.21875 -2.8125 1.21875q-1.453125 0 -2.390625 -0.828125q-0.921875 -0.828125 -0.921875 -2.09375q0 -1.53125 1.15625 -2.375q1.171875 -0.859375 3.296875 -0.859375l1.640625 0l0 -0.78125q0 -0.890625 -0.53125 -1.40625q-0.515625 -0.53125 -1.546875 -0.53125q-0.90625 0 -1.515625 0.46875q-0.609375 0.453125 -0.609375 1.09375l-1.703125 0q0 -0.734375 0.515625 -1.421875q0.53125 -0.6875 1.421875 -1.078125q0.90625 -0.40625 1.984375 -0.40625q1.703125 0 2.671875 0.859375q0.96875 0.84375 1.0 2.328125l0 4.53125q0 1.359375 0.34375 2.171875l0 0.140625l-1.765625 0zm-2.796875 -1.28125q0.796875 0 1.5 -0.40625q0.71875 -0.421875 1.03125 -1.078125l0 -2.015625l-1.3125 0q-3.109375 0 -3.109375 1.8125q0 0.796875 0.53125 1.25q0.53125 0.4375 1.359375 0.4375zm15.21051 -3.53125q0 2.25 -1.046875 3.625q-1.03125 1.375 -2.78125 1.375q-1.875 0 -2.890625 -1.328125l-0.078125 1.140625l-1.546875 0l0 -14.0l1.671875 0l0 5.234375q1.03125 -1.265625 2.8125 -1.265625q1.796875 0 2.828125 1.359375q1.03125 1.34375 1.03125 3.703125l0 0.15625zm-1.6875 -0.203125q0 -1.71875 -0.671875 -2.65625q-0.65625 -0.9375 -1.90625 -0.9375q-1.671875 0 -2.40625 1.546875l0 4.265625q0.78125 1.546875 2.421875 1.546875q1.21875 0 1.890625 -0.9375q0.671875 -0.9375 0.671875 -2.828125zm5.638672 5.015625l-1.6875 0l0 -14.0l1.6875 0l0 14.0zm6.777405 0.1875q-2.0 0 -3.265625 -1.3125q-1.25 -1.328125 -1.25 -3.53125l0 -0.3125q0 -1.46875 0.5625 -2.609375q0.5625 -1.15625 1.5625 -1.796875q1.015625 -0.65625 2.1875 -0.65625q1.921875 0 2.984375 1.265625q1.0625 1.265625 1.0625 3.625l0 0.6875l-6.671875 0q0.03125 1.46875 0.84375 2.375q0.828125 0.890625 2.078125 0.890625q0.890625 0 1.515625 -0.359375q0.625 -0.375 1.078125 -0.96875l1.03125 0.796875q-1.234375 1.90625 -3.71875 1.90625zm-0.203125 -8.84375q-1.015625 0 -1.71875 0.75q-0.6875 0.734375 -0.84375 2.078125l4.9375 0l0 -0.125q-0.078125 -1.28125 -0.703125 -1.984375q-0.609375 -0.71875 -1.671875 -0.71875zm9.508789 3.703125l-4.4375 0l0 -1.375l4.4375 0l0 1.375zm7.3812866 2.34375q0 -0.6875 -0.515625 -1.0625q-0.515625 -0.375 -1.796875 -0.640625q-1.28125 -0.28125 -2.03125 -0.65625q-0.75 -0.390625 -1.109375 -0.921875q-0.359375 -0.53125 -0.359375 -1.265625q0 -1.203125 1.015625 -2.03125q1.03125 -0.84375 2.625 -0.84375q1.671875 0 2.71875 0.859375q1.046875 0.859375 1.046875 2.21875l-1.6875 0q0 -0.703125 -0.59375 -1.203125q-0.59375 -0.5 -1.484375 -0.5q-0.921875 0 -1.4375 0.40625q-0.515625 0.390625 -0.515625 1.046875q0 0.609375 0.484375 0.921875q0.484375 0.3125 1.734375 0.59375q1.265625 0.28125 2.046875 0.671875q0.78125 0.390625 1.15625 0.9375q0.390625 0.546875 0.390625 1.34375q0 1.328125 -1.0625 2.125q-1.046875 0.796875 -2.734375 0.796875q-1.1875 0 -2.109375 -0.421875q-0.90625 -0.421875 -1.421875 -1.171875q-0.515625 -0.75 -0.515625 -1.625l1.6875 0q0.046875 0.84375 0.671875 1.34375q0.640625 0.5 1.6875 0.5q0.953125 0 1.53125 -0.390625q0.578125 -0.390625 0.578125 -1.03125zm5.713379 2.609375l-1.6875 0l0 -9.859375l1.6875 0l0 9.859375zm-1.828125 -12.46875q0 -0.40625 0.25 -0.6875q0.25 -0.296875 0.734375 -0.296875q0.5 0 0.75 0.296875q0.265625 0.28125 0.265625 0.6875q0 0.40625 -0.265625 0.6875q-0.25 0.265625 -0.75 0.265625q-0.484375 0 -0.734375 -0.265625q-0.25 -0.28125 -0.25 -0.6875zm6.10553 11.09375l5.765625 0l0 1.375l-7.828125 0l0 -1.234375l5.4375 -7.234375l-5.34375 0l0 -1.390625l7.46875 0l0 1.203125l-5.5 7.28125zm11.600281 1.5625q-2.0 0 -3.265625 -1.3125q-1.25 -1.328125 -1.25 -3.53125l0 -0.3125q0 -1.46875 0.5625 -2.609375q0.5625 -1.15625 1.5625 -1.796875q1.015625 -0.65625 2.1875 -0.65625q1.921875 0 2.984375 1.265625q1.0625 1.265625 1.0625 3.625l0 0.6875l-6.671875 0q0.03125 1.46875 0.84375 2.375q0.828125 0.890625 2.078125 0.890625q0.890625 0 1.515625 -0.359375q0.625 -0.375 1.078125 -0.96875l1.03125 0.796875q-1.234375 1.90625 -3.71875 1.90625zm-0.203125 -8.84375q-1.015625 0 -1.71875 0.75q-0.6875 0.734375 -0.84375 2.078125l4.9375 0l0 -0.125q-0.078125 -1.28125 -0.703125 -1.984375q-0.609375 -0.71875 -1.671875 -0.71875zm5.586975 3.640625q0 -2.265625 1.078125 -3.640625q1.078125 -1.375 2.8125 -1.375q1.734375 0 2.75 1.171875l0 -5.140625l1.6875 0l0 14.0l-1.546875 0l-0.09375 -1.0625q-1.0 1.25 -2.8125 1.25q-1.703125 0 -2.796875 -1.40625q-1.078125 -1.40625 -1.078125 -3.65625l0 -0.140625zm1.6875 0.203125q0 1.671875 0.6875 2.625q0.703125 0.9375 1.921875 0.9375q1.609375 0 2.34375 -1.4375l0 -4.53125q-0.765625 -1.390625 -2.328125 -1.390625q-1.234375 0 -1.9375 0.953125q-0.6875 0.953125 -0.6875 2.84375zm19.608704 2.203125q0 -0.6875 -0.515625 -1.0625q-0.515625 -0.375 -1.796875 -0.640625q-1.28125 -0.28125 -2.03125 -0.65625q-0.75 -0.390625 -1.109375 -0.921875q-0.359375 -0.53125 -0.359375 -1.265625q0 -1.203125 1.015625 -2.03125q1.03125 -0.84375 2.625 -0.84375q1.671875 0 2.71875 0.859375q1.046875 0.859375 1.046875 2.21875l-1.6875 0q0 -0.703125 -0.59375 -1.203125q-0.59375 -0.5 -1.484375 -0.5q-0.921875 0 -1.4375 0.40625q-0.515625 0.390625 -0.515625 1.046875q0 0.609375 0.484375 0.921875q0.484375 0.3125 1.734375 0.59375q1.265625 0.28125 2.046875 0.671875q0.78125 0.390625 1.15625 0.9375q0.390625 0.546875 0.390625 1.34375q0 1.328125 -1.0625 2.125q-1.046875 0.796875 -2.734375 0.796875q-1.1875 0 -2.109375 -0.421875q-0.90625 -0.421875 -1.421875 -1.171875q-0.515625 -0.75 -0.515625 -1.625l1.6875 0q0.046875 0.84375 0.671875 1.34375q0.640625 0.5 1.6875 0.5q0.953125 0 1.53125 -0.390625q0.578125 -0.390625 0.578125 -1.03125zm7.963379 2.796875q-2.0 0 -3.265625 -1.3125q-1.25 -1.328125 -1.25 -3.53125l0 -0.3125q0 -1.46875 0.5625 -2.609375q0.5625 -1.15625 1.5625 -1.796875q1.015625 -0.65625 2.1875 -0.65625q1.921875 0 2.984375 1.265625q1.0625 1.265625 1.0625 3.625l0 0.6875l-6.671875 0q0.03125 1.46875 0.84375 2.375q0.828125 0.890625 2.078125 0.890625q0.890625 0 1.515625 -0.359375q0.625 -0.375 1.078125 -0.96875l1.03125 0.796875q-1.234375 1.90625 -3.71875 1.90625zm-0.203125 -8.84375q-1.015625 0 -1.71875 0.75q-0.6875 0.734375 -0.84375 2.078125l4.9375 0l0 -0.125q-0.078125 -1.28125 -0.703125 -1.984375q-0.609375 -0.71875 -1.671875 -0.71875zm5.586914 3.640625q0 -2.3125 1.0625 -3.65625q1.078125 -1.359375 2.875 -1.359375q1.75 0 2.75 1.171875l0.078125 -1.0l1.546875 0l0 13.65625l-1.6875 0l0 -4.703125q-1.015625 1.09375 -2.71875 1.09375q-1.78125 0 -2.84375 -1.390625q-1.0625 -1.390625 -1.0625 -3.6875l0 -0.125zm1.6875 0.203125q0 1.6875 0.71875 2.65625q0.71875 0.96875 1.921875 0.96875q1.515625 0 2.296875 -1.328125l0 -4.828125q-0.796875 -1.3125 -2.28125 -1.3125q-1.21875 0 -1.9375 0.96875q-0.71875 0.96875 -0.71875 2.875zm15.415955 3.84375q-0.984375 1.15625 -2.890625 1.15625q-1.578125 0 -2.40625 -0.921875q-0.8125 -0.921875 -0.828125 -2.703125l0 -6.421875l1.6875 0l0 6.375q0 2.234375 1.828125 2.234375q1.921875 0 2.5625 -1.4375l0 -7.171875l1.6875 0l0 9.859375l-1.609375 0l-0.03125 -0.96875zm8.284668 1.15625q-2.0 0 -3.265625 -1.3125q-1.25 -1.328125 -1.25 -3.53125l0 -0.3125q0 -1.46875 0.5625 -2.609375q0.5625 -1.15625 1.5625 -1.796875q1.015625 -0.65625 2.1875 -0.65625q1.921875 0 2.984375 1.265625q1.0625 1.265625 1.0625 3.625l0 0.6875l-6.671875 0q0.03125 1.46875 0.84375 2.375q0.828125 0.890625 2.078125 0.890625q0.890625 0 1.515625 -0.359375q0.625 -0.375 1.078125 -0.96875l1.03125 0.796875q-1.234375 1.90625 -3.71875 1.90625zm-0.203125 -8.84375q-1.015625 0 -1.71875 0.75q-0.6875 0.734375 -0.84375 2.078125l4.9375 0l0 -0.125q-0.078125 -1.28125 -0.703125 -1.984375q-0.609375 -0.71875 -1.671875 -0.71875zm7.602539 -1.203125l0.046875 1.234375q1.125 -1.40625 2.953125 -1.40625q3.125 0 3.15625 3.515625l0 6.515625l-1.6875 0l0 -6.515625q-0.015625 -1.078125 -0.5 -1.578125q-0.46875 -0.515625 -1.484375 -0.515625q-0.8125 0 -1.4375 0.4375q-0.609375 0.4375 -0.96875 1.15625l0 7.015625l-1.671875 0l0 -9.859375l1.59375 0zm12.653076 8.671875q0.890625 0 1.5625 -0.546875q0.6875 -0.546875 0.75 -1.375l1.59375 0q-0.046875 0.84375 -0.578125 1.609375q-0.53125 0.765625 -1.4375 1.234375q-0.890625 0.453125 -1.890625 0.453125q-2.015625 0 -3.203125 -1.34375q-1.1875 -1.34375 -1.1875 -3.6875l0 -0.28125q0 -1.4375 0.515625 -2.546875q0.53125 -1.125 1.515625 -1.734375q1.0 -0.625 2.34375 -0.625q1.65625 0 2.75 1.0q1.109375 0.984375 1.171875 2.5625l-1.59375 0q-0.0625 -0.953125 -0.71875 -1.5625q-0.65625 -0.625 -1.609375 -0.625q-1.28125 0 -2.0 0.921875q-0.703125 0.921875 -0.703125 2.671875l0 0.328125q0 1.703125 0.703125 2.625q0.703125 0.921875 2.015625 0.921875zm9.890381 1.375q-2.0 0 -3.265625 -1.3125q-1.25 -1.328125 -1.25 -3.53125l0 -0.3125q0 -1.46875 0.5625 -2.609375q0.5625 -1.15625 1.5625 -1.796875q1.015625 -0.65625 2.1875 -0.65625q1.921875 0 2.984436 1.265625q1.0625 1.265625 1.0625 3.625l0 0.6875l-6.671936 0q0.03125 1.46875 0.84375 2.375q0.828125 0.890625 2.078125 0.890625q0.890625 0 1.515625 -0.359375q0.625 -0.375 1.078186 -0.96875l1.03125 0.796875q-1.234375 1.90625 -3.718811 1.90625zm-0.203125 -8.84375q-1.015625 0 -1.71875 0.75q-0.6875 0.734375 -0.84375 2.078125l4.9375 0l0 -0.125q-0.078125 -1.28125 -0.703125 -1.984375q-0.609375 -0.71875 -1.671875 -0.71875zm10.174255 3.640625q0 -1.453125 0.5625 -2.609375q0.578125 -1.15625 1.59375 -1.78125q1.015625 -0.625 2.3125 -0.625q2.015625 0 3.25 1.390625q1.25 1.390625 1.25 3.703125l0 0.125q0 1.4375 -0.546875 2.578125q-0.546875 1.140625 -1.578125 1.78125q-1.015625 0.640625 -2.359375 0.640625q-2.0 0 -3.25 -1.390625q-1.234375 -1.40625 -1.234375 -3.703125l0 -0.109375zm1.6875 0.203125q0 1.640625 0.765625 2.640625q0.765625 0.984375 2.03125 0.984375q1.296875 0 2.046875 -1.0q0.75 -1.015625 0.75 -2.828125q0 -1.625 -0.765625 -2.625q-0.765625 -1.015625 -2.046875 -1.015625q-1.25 0 -2.015625 1.0q-0.765625 0.984375 -0.765625 2.84375zm10.233643 4.8125l0 -8.546875l-1.5625 0l0 -1.3125l1.5625 0l0 -1.015625q0 -1.578125 0.84375 -2.4375q0.84375 -0.875 2.390625 -0.875q0.59375 0 1.15625 0.15625l-0.09375 1.375q-0.421875 -0.09375 -0.90625 -0.09375q-0.8125 0 -1.265625 0.484375q-0.4375 0.484375 -0.4375 1.375l0 1.03125l2.09375 0l0 1.3125l-2.09375 0l0 8.546875l-1.6875 0zm12.548462 -12.25l0 2.390625l1.84375 0l0 1.3125l-1.84375 0l0 6.109375q0 0.59375 0.234375 0.890625q0.25 0.296875 0.84375 0.296875q0.296875 0 0.8125 -0.109375l0 1.359375q-0.671875 0.1875 -1.296875 0.1875q-1.125 0 -1.703125 -0.6875q-0.578125 -0.6875 -0.578125 -1.9375l0 -6.109375l-1.796875 0l0 -1.3125l1.796875 0l0 -2.390625l1.6875 0zm7.0317383 9.78125l2.296875 -7.390625l1.796875 0l-3.953125 11.375q-0.921875 2.46875 -2.921875 2.46875l-0.328125 -0.03125l-0.625 -0.125l0 -1.359375l0.453125 0.03125q0.859375 0 1.328125 -0.34375q0.484375 -0.34375 0.796875 -1.265625l0.375 -1.0l-3.515625 -9.75l1.84375 0l2.453125 7.390625zm13.920898 -2.34375q0 2.25 -1.03125 3.625q-1.015625 1.375 -2.78125 1.375q-1.796875 0 -2.828125 -1.140625l0 4.75l-1.671875 0l0 -13.65625l1.53125 0l0.078125 1.09375q1.03125 -1.265625 2.859375 -1.265625q1.78125 0 2.8125 1.34375q1.03125 1.328125 1.03125 3.71875l0 0.15625zm-1.671875 -0.203125q0 -1.65625 -0.71875 -2.625q-0.703125 -0.96875 -1.953125 -0.96875q-1.53125 0 -2.296875 1.359375l0 4.703125q0.765625 1.359375 2.328125 1.359375q1.203125 0 1.921875 -0.953125q0.71875 -0.96875 0.71875 -2.875zm7.904297 5.203125q-2.0 0 -3.265625 -1.3125q-1.25 -1.328125 -1.25 -3.53125l0 -0.3125q0 -1.46875 0.5625 -2.609375q0.5625 -1.15625 1.5625 -1.796875q1.015625 -0.65625 2.1875 -0.65625q1.921875 0 2.984375 1.265625q1.0625 1.265625 1.0625 3.625l0 0.6875l-6.671875 0q0.03125 1.46875 0.84375 2.375q0.828125 0.890625 2.078125 0.890625q0.890625 0 1.515625 -0.359375q0.625 -0.375 1.078125 -0.96875l1.03125 0.796875q-1.234375 1.90625 -3.71875 1.90625zm-0.203125 -8.84375q-1.015625 0 -1.71875 0.75q-0.6875 0.734375 -0.84375 2.078125l4.9375 0l0 -0.125q-0.078125 -1.28125 -0.703125 -1.984375q-0.609375 -0.71875 -1.671875 -0.71875zm19.68457 -3.171875l-4.265625 0l0 11.828125l-1.734375 0l0 -11.828125l-4.25 0l0 -1.4375l10.25 0l0 1.4375zm14.682678 9.5l1.890625 -7.53125l1.6875 0l-2.859375 9.859375l-1.375 0l-2.390625 -7.46875l-2.328125 7.46875l-1.375 0l-2.859375 -9.859375l1.671875 0l1.953125 7.375l2.28125 -7.375l1.359375 0l2.34375 7.53125zm7.1289062 2.328125l-1.6875 0l0 -9.859375l1.6875 0l0 9.859375zm-1.828125 -12.46875q0 -0.40625 0.25 -0.6875q0.25 -0.296875 0.734375 -0.296875q0.5 0 0.75 0.296875q0.265625 0.28125 0.265625 0.6875q0 0.40625 -0.265625 0.6875q-0.25 0.265625 -0.75 0.265625q-0.484375 0 -0.734375 -0.265625q-0.25 -0.28125 -0.25 -0.6875zm6.808655 0.21875l0 2.390625l1.84375 0l0 1.3125l-1.84375 0l0 6.109375q0 0.59375 0.234375 0.890625q0.25 0.296875 0.84375 0.296875q0.296875 0 0.8125 -0.109375l0 1.359375q-0.671875 0.1875 -1.296875 0.1875q-1.125 0 -1.703125 -0.6875q-0.578125 -0.6875 -0.578125 -1.9375l0 -6.109375l-1.796875 0l0 -1.3125l1.796875 0l0 -2.390625l1.6875 0zm5.4848633 3.59375q1.125 -1.375 2.921875 -1.375q3.125 0 3.15625 3.515625l0 6.515625l-1.6875 0l0 -6.515625q-0.015625 -1.078125 -0.5 -1.578125q-0.46875 -0.515625 -1.484375 -0.515625q-0.8125 0 -1.4375 0.4375q-0.609375 0.4375 -0.96875 1.15625l0 7.015625l-1.671875 0l0 -14.0l1.671875 0l0 5.34375z" fill-rule="nonzero"/><path fill="#ffffff" d="m582.9421 313.68704q-0.140625 -0.296875 -0.234375 -1.03125q-1.171875 1.21875 -2.8125 1.21875q-1.453125 0 -2.390625 -0.828125q-0.921875 -0.828125 -0.921875 -2.09375q0 -1.53125 1.15625 -2.375q1.171875 -0.859375 3.296875 -0.859375l1.640625 0l0 -0.78125q0 -0.890625 -0.53125 -1.40625q-0.515625 -0.53125 -1.546875 -0.53125q-0.90625 0 -1.515625 0.46875q-0.609375 0.453125 -0.609375 1.09375l-1.703125 0q0 -0.734375 0.515625 -1.421875q0.53125 -0.6875 1.421875 -1.078125q0.90625 -0.40625 1.984375 -0.40625q1.703125 0 2.671875 0.859375q0.96875 0.84375 1.0 2.328125l0 4.53125q0 1.359375 0.34375 2.171875l0 0.140625l-1.765625 0zm-2.796875 -1.28125q0.796875 0 1.5 -0.40625q0.71875 -0.421875 1.03125 -1.078125l0 -2.015625l-1.3125 0q-3.109375 0 -3.109375 1.8125q0 0.796875 0.53125 1.25q0.53125 0.4375 1.359375 0.4375zm9.147949 -10.96875l0 2.390625l1.84375 0l0 1.3125l-1.84375 0l0 6.109375q0 0.59375 0.234375 0.890625q0.25 0.296875 0.84375 0.296875q0.296875 0 0.8125 -0.109375l0 1.359375q-0.671875 0.1875 -1.296875 0.1875q-1.125 0 -1.703125 -0.6875q-0.578125 -0.6875 -0.578125 -1.9375l0 -6.109375l-1.796875 0l0 -1.3125l1.796875 0l0 -2.390625l1.6875 0zm10.009644 2.390625l0.046875 1.09375q1.078125 -1.265625 2.921875 -1.265625q2.0625 0 2.8125 1.578125q0.5 -0.71875 1.28125 -1.140625q0.796875 -0.4375 1.859375 -0.4375q3.25 0 3.296875 3.421875l0 6.609375l-1.671875 0l0 -6.5q0 -1.0625 -0.484375 -1.578125q-0.484375 -0.53125 -1.625 -0.53125q-0.9375 0 -1.5625 0.5625q-0.609375 0.5625 -0.71875 1.5l0 6.546875l-1.6875 0l0 -6.453125q0 -2.15625 -2.109375 -2.15625q-1.65625 0 -2.265625 1.40625l0 7.203125l-1.6875 0l0 -9.859375l1.59375 0zm14.3203125 4.84375q0 -1.453125 0.5625 -2.609375q0.578125 -1.15625 1.59375 -1.78125q1.015625 -0.625 2.3125 -0.625q2.015625 0 3.25 1.390625q1.25 1.390625 1.25 3.703125l0 0.125q0 1.4375 -0.546875 2.578125q-0.546875 1.140625 -1.578125 1.78125q-1.015625 0.640625 -2.359375 0.640625q-2.0 0 -3.25 -1.390625q-1.234375 -1.40625 -1.234375 -3.703125l0 -0.109375zm1.6875 0.203125q0 1.640625 0.765625 2.640625q0.765625 0.984375 2.03125 0.984375q1.296875 0 2.046875 -1.0q0.75 -1.015625 0.75 -2.828125q0 -1.625 -0.765625 -2.625q-0.765625 -1.015625 -2.046875 -1.015625q-1.25 0 -2.015625 1.0q-0.765625 0.984375 -0.765625 2.84375zm15.139893 2.203125q0 -0.6875 -0.515625 -1.0625q-0.515625 -0.375 -1.796875 -0.640625q-1.28125 -0.28125 -2.03125 -0.65625q-0.75 -0.390625 -1.109375 -0.921875q-0.359375 -0.53125 -0.359375 -1.265625q0 -1.203125 1.015625 -2.03125q1.03125 -0.84375 2.625 -0.84375q1.671875 0 2.71875 0.859375q1.046875 0.859375 1.046875 2.21875l-1.6875 0q0 -0.703125 -0.59375 -1.203125q-0.59375 -0.5 -1.484375 -0.5q-0.921875 0 -1.4375 0.40625q-0.515625 0.390625 -0.515625 1.046875q0 0.609375 0.484375 0.921875q0.484375 0.3125 1.734375 0.59375q1.265625 0.28125 2.046875 0.671875q0.78125 0.390625 1.15625 0.9375q0.390625 0.546875 0.390625 1.34375q0 1.328125 -1.0625 2.125q-1.046875 0.796875 -2.734375 0.796875q-1.1875 0 -2.109375 -0.421875q-0.90625 -0.421875 -1.421875 -1.171875q-0.515625 -0.75 -0.515625 -1.625l1.6875 0q0.046875 0.84375 0.671875 1.34375q0.640625 0.5 1.6875 0.5q0.953125 0 1.53125 -0.390625q0.578125 -0.390625 0.578125 -1.03125zm6.166504 -9.640625l0 2.390625l1.84375 0l0 1.3125l-1.84375 0l0 6.109375q0 0.59375 0.234375 0.890625q0.25 0.296875 0.84375 0.296875q0.296875 0 0.8125 -0.109375l0 1.359375q-0.671875 0.1875 -1.296875 0.1875q-1.125 0 -1.703125 -0.6875q-0.578125 -0.6875 -0.578125 -1.9375l0 -6.109375l-1.796875 0l0 -1.3125l1.796875 0l0 -2.390625l1.6875 0zm18.884644 12.25l-1.765625 0l-6.671875 -10.21875l0 10.21875l-1.75 0l0 -13.265625l1.75 0l6.703125 10.265625l0 -10.265625l1.734375 0l0 13.265625zm11.543396 0.1875q-2.0 0 -3.265625 -1.3125q-1.25 -1.328125 -1.25 -3.53125l0 -0.3125q0 -1.46875 0.5625 -2.609375q0.5625 -1.15625 1.5625 -1.796875q1.015625 -0.65625 2.1875 -0.65625q1.921875 0 2.984375 1.265625q1.0625 1.265625 1.0625 3.625l0 0.6875l-6.671875 0q0.03125 1.46875 0.84375 2.375q0.828125 0.890625 2.078125 0.890625q0.890625 0 1.515625 -0.359375q0.625 -0.375 1.078125 -0.96875l1.03125 0.796875q-1.234375 1.90625 -3.71875 1.90625zm-0.203125 -8.84375q-1.015625 0 -1.71875 0.75q-0.6875 0.734375 -0.84375 2.078125l4.9375 0l0 -0.125q-0.078125 -1.28125 -0.703125 -1.984375q-0.609375 -0.71875 -1.671875 -0.71875zm7.836914 8.65625l-1.6875 0l0 -14.0l1.6875 0l0 14.0zm6.777405 0.1875q-2.0 0 -3.265625 -1.3125q-1.25 -1.328125 -1.25 -3.53125l0 -0.3125q0 -1.46875 0.5625 -2.609375q0.5625 -1.15625 1.5625 -1.796875q1.015625 -0.65625 2.1875 -0.65625q1.921875 0 2.984375 1.265625q1.0625 1.265625 1.0625 3.625l0 0.6875l-6.671875 0q0.03125 1.46875 0.84375 2.375q0.828125 0.890625 2.078125 0.890625q0.890625 0 1.515625 -0.359375q0.625 -0.375 1.078125 -0.96875l1.03125 0.796875q-1.234375 1.90625 -3.71875 1.90625zm-0.203125 -8.84375q-1.015625 0 -1.71875 0.75q-0.6875 0.734375 -0.84375 2.078125l4.9375 0l0 -0.125q-0.078125 -1.28125 -0.703125 -1.984375q-0.609375 -0.71875 -1.671875 -0.71875zm7.586914 -1.203125l0.046875 1.09375q1.078125 -1.265625 2.921875 -1.265625q2.0625 0 2.8125 1.578125q0.5 -0.71875 1.28125 -1.140625q0.796875 -0.4375 1.859375 -0.4375q3.25 0 3.296875 3.421875l0 6.609375l-1.671875 0l0 -6.5q0 -1.0625 -0.484375 -1.578125q-0.484375 -0.53125 -1.625 -0.53125q-0.9375 0 -1.5625 0.5625q-0.609375 0.5625 -0.71875 1.5l0 6.546875l-1.6875 0l0 -6.453125q0 -2.15625 -2.109375 -2.15625q-1.65625 0 -2.265625 1.40625l0 7.203125l-1.6875 0l0 -9.859375l1.59375 0zm18.851562 10.046875q-2.0 0 -3.265625 -1.3125q-1.25 -1.328125 -1.25 -3.53125l0 -0.3125q0 -1.46875 0.5625 -2.609375q0.5625 -1.15625 1.5625 -1.796875q1.015625 -0.65625 2.1875 -0.65625q1.921875 0 2.984375 1.265625q1.0625 1.265625 1.0625 3.625l0 0.6875l-6.671875 0q0.03125 1.46875 0.84375 2.375q0.828125 0.890625 2.078125 0.890625q0.890625 0 1.515625 -0.359375q0.625 -0.375 1.078125 -0.96875l1.03125 0.796875q-1.234375 1.90625 -3.71875 1.90625zm-0.203125 -8.84375q-1.015625 0 -1.71875 0.75q-0.6875 0.734375 -0.84375 2.078125l4.9375 0l0 -0.125q-0.078125 -1.28125 -0.703125 -1.984375q-0.609375 -0.71875 -1.671875 -0.71875zm7.602539 -1.203125l0.046875 1.234375q1.125 -1.40625 2.953125 -1.40625q3.125 0 3.15625 3.515625l0 6.515625l-1.6875 0l0 -6.515625q-0.015625 -1.078125 -0.5 -1.578125q-0.46875 -0.515625 -1.484375 -0.515625q-0.8125 0 -1.4375 0.4375q-0.609375 0.4375 -0.96875 1.15625l0 7.015625l-1.671875 0l0 -9.859375l1.59375 0zm10.981262 -2.390625l0 2.390625l1.84375 0l0 1.3125l-1.84375 0l0 6.109375q0 0.59375 0.234375 0.890625q0.25 0.296875 0.84375 0.296875q0.296875 0 0.8125 -0.109375l0 1.359375q-0.671875 0.1875 -1.296875 0.1875q-1.125 0 -1.703125 -0.6875q-0.578125 -0.6875 -0.578125 -1.9375l0 -6.109375l-1.796875 0l0 -1.3125l1.796875 0l0 -2.390625l1.6875 0zm9.547363 9.640625q0 -0.6875 -0.515625 -1.0625q-0.515625 -0.375 -1.796875 -0.640625q-1.28125 -0.28125 -2.03125 -0.65625q-0.75 -0.390625 -1.109375 -0.921875q-0.359375 -0.53125 -0.359375 -1.265625q0 -1.203125 1.015625 -2.03125q1.03125 -0.84375 2.625 -0.84375q1.671875 0 2.71875 0.859375q1.046875 0.859375 1.046875 2.21875l-1.6875 0q0 -0.703125 -0.59375 -1.203125q-0.59375 -0.5 -1.484375 -0.5q-0.921875 0 -1.4375 0.40625q-0.515625 0.390625 -0.515625 1.046875q0 0.609375 0.484375 0.921875q0.484375 0.3125 1.734375 0.59375q1.265625 0.28125 2.046875 0.671875q0.78125 0.390625 1.15625 0.9375q0.390625 0.546875 0.390625 1.34375q0 1.328125 -1.0625 2.125q-1.046875 0.796875 -2.734375 0.796875q-1.1875 0 -2.109375 -0.421875q-0.90625 -0.421875 -1.421875 -1.171875q-0.515625 -0.75 -0.515625 -1.625l1.6875 0q0.046875 0.84375 0.671875 1.34375q0.640625 0.5 1.6875 0.5q0.953125 0 1.53125 -0.390625q0.578125 -0.390625 0.578125 -1.03125zm3.822754 5.25l-0.953125 -0.65625q0.859375 -1.1875 0.890625 -2.453125l0 -1.53125l1.65625 0l0 1.328125q0 0.921875 -0.453125 1.84375q-0.453125 0.921875 -1.140625 1.46875zm7.8898926 -7.65625q0 -1.453125 0.5625 -2.609375q0.578125 -1.15625 1.59375 -1.78125q1.015625 -0.625 2.3125 -0.625q2.015625 0 3.25 1.390625q1.25 1.390625 1.25 3.703125l0 0.125q0 1.4375 -0.546875 2.578125q-0.546875 1.140625 -1.578125 1.78125q-1.015625 0.640625 -2.359375 0.640625q-2.0 0 -3.25 -1.390625q-1.234375 -1.40625 -1.234375 -3.703125l0 -0.109375zm1.6875 0.203125q0 1.640625 0.765625 2.640625q0.765625 0.984375 2.03125 0.984375q1.296875 0 2.046875 -1.0q0.75 -1.015625 0.75 -2.828125q0 -1.625 -0.765625 -2.625q-0.765625 -1.015625 -2.046875 -1.015625q-1.25 0 -2.015625 1.0q-0.765625 0.984375 -0.765625 2.84375zm14.171143 -3.53125q-0.390625 -0.0625 -0.84375 -0.0625q-1.65625 0 -2.25 1.40625l0 7.0l-1.671875 0l0 -9.859375l1.640625 0l0.015625 1.140625q0.828125 -1.3125 2.359375 -1.3125q0.484375 0 0.75 0.125l0 1.5625zm7.7595215 -1.515625l0.046875 1.234375q1.125 -1.40625 2.953125 -1.40625q3.125061 0 3.156311 3.515625l0 6.515625l-1.6875 0l0 -6.515625q-0.015625 -1.078125 -0.5 -1.578125q-0.46881104 -0.515625 -1.484436 -0.515625q-0.8125 0 -1.4375 0.4375q-0.609375 0.4375 -0.96875 1.15625l0 7.015625l-1.671875 0l0 -9.859375l1.59375 0zm8.246887 4.84375q0 -1.453125 0.5625 -2.609375q0.578125 -1.15625 1.59375 -1.78125q1.015625 -0.625 2.3125 -0.625q2.015625 0 3.25 1.390625q1.25 1.390625 1.25 3.703125l0 0.125q0 1.4375 -0.546875 2.578125q-0.546875 1.140625 -1.578125 1.78125q-1.015625 0.640625 -2.359375 0.640625q-2.0 0 -3.25 -1.390625q-1.234375 -1.40625 -1.234375 -3.703125l0 -0.109375zm1.6875 0.203125q0 1.640625 0.765625 2.640625q0.765625 0.984375 2.03125 0.984375q1.296875 0 2.046875 -1.0q0.75 -1.015625 0.75 -2.828125q0 -1.625 -0.765625 -2.625q-0.765625 -1.015625 -2.046875 -1.015625q-1.25 0 -2.015625 1.0q-0.765625 0.984375 -0.765625 2.84375zm15.602173 -5.046875l0.046875 1.09375q1.078125 -1.265625 2.921875 -1.265625q2.0625 0 2.8125 1.578125q0.5 -0.71875 1.28125 -1.140625q0.796875 -0.4375 1.859375 -0.4375q3.25 0 3.296875 3.421875l0 6.609375l-1.671875 0l0 -6.5q0 -1.0625 -0.484375 -1.578125q-0.484375 -0.53125 -1.625 -0.53125q-0.9375 0 -1.5625 0.5625q-0.609375 0.5625 -0.71875 1.5l0 6.546875l-1.6875 0l0 -6.453125q0 -2.15625 -2.109375 -2.15625q-1.65625 0 -2.265625 1.40625l0 7.203125l-1.6875 0l0 -9.859375l1.59375 0zm20.851562 9.859375q-0.140625 -0.296875 -0.234375 -1.03125q-1.171875 1.21875 -2.8125 1.21875q-1.453125 0 -2.390625 -0.828125q-0.921875 -0.828125 -0.921875 -2.09375q0 -1.53125 1.15625 -2.375q1.171875 -0.859375 3.296875 -0.859375l1.640625 0l0 -0.78125q0 -0.890625 -0.53125 -1.40625q-0.515625 -0.53125 -1.546875 -0.53125q-0.90625 0 -1.515625 0.46875q-0.609375 0.453125 -0.609375 1.09375l-1.703125 0q0 -0.734375 0.515625 -1.421875q0.53125 -0.6875 1.421875 -1.078125q0.90625 -0.40625 1.984375 -0.40625q1.703125 0 2.671875 0.859375q0.96875 0.84375 1.0 2.328125l0 4.53125q0 1.359375 0.34375 2.171875l0 0.140625l-1.765625 0zm-2.796875 -1.28125q0.796875 0 1.5 -0.40625q0.71875 -0.421875 1.03125 -1.078125l0 -2.015625l-1.3125 0q-3.109375 0 -3.109375 1.8125q0 0.796875 0.53125 1.25q0.53125 0.4375 1.359375 0.4375zm10.163574 -4.984375l2.1875 -3.59375l1.96875 0l-3.21875 4.875l3.328125 4.984375l-1.953125 0l-2.28125 -3.6875l-2.28125 3.6875l-1.953125 0l3.328125 -4.984375l-3.234375 -4.875l1.953125 0l2.15625 3.59375zm7.777405 6.265625l-1.6875 0l0 -9.859375l1.6875 0l0 9.859375zm-1.828125 -12.46875q0 -0.40625 0.25 -0.6875q0.25 -0.296875 0.734375 -0.296875q0.5 0 0.75 0.296875q0.265625 0.28125 0.265625 0.6875q0 0.40625 -0.265625 0.6875q-0.25 0.265625 -0.75 0.265625q-0.484375 0 -0.734375 -0.265625q-0.25 -0.28125 -0.25 -0.6875zm6.10553 2.609375l0.046875 1.09375q1.078125 -1.265625 2.921875 -1.265625q2.0625 0 2.8125 1.578125q0.5 -0.71875 1.28125 -1.140625q0.796875 -0.4375 1.859375 -0.4375q3.25 0 3.296875 3.421875l0 6.609375l-1.671875 0l0 -6.5q0 -1.0625 -0.484375 -1.578125q-0.484375 -0.53125 -1.625 -0.53125q-0.9375 0 -1.5625 0.5625q-0.609375 0.5625 -0.71875 1.5l0 6.546875l-1.6875 0l0 -6.453125q0 -2.15625 -2.109375 -2.15625q-1.65625 0 -2.265625 1.40625l0 7.203125l-1.6875 0l0 -9.859375l1.59375 0zm20.851562 8.890625q-0.984375 1.15625 -2.890625 1.15625q-1.578125 0 -2.40625 -0.921875q-0.8125 -0.921875 -0.828125 -2.703125l0 -6.421875l1.6875 0l0 6.375q0 2.234375 1.828125 2.234375q1.921875 0 2.5625 -1.4375l0 -7.171875l1.6875 0l0 9.859375l-1.609375 0l-0.03125 -0.96875zm5.784607 -8.890625l0.046875 1.09375q1.078125 -1.265625 2.921875 -1.265625q2.0625 0 2.8125 1.578125q0.5 -0.71875 1.28125 -1.140625q0.796875 -0.4375 1.859375 -0.4375q3.25 0 3.296875 3.421875l0 6.609375l-1.671875 0l0 -6.5q0 -1.0625 -0.484375 -1.578125q-0.484375 -0.53125 -1.625 -0.53125q-0.9375 0 -1.5625 0.5625q-0.609375 0.5625 -0.71875 1.5l0 6.546875l-1.6875 0l0 -6.453125q0 -2.15625 -2.109375 -2.15625q-1.65625 0 -2.265625 1.40625l0 7.203125l-1.6875 0l0 -9.859375l1.59375 0zm21.220093 9.859375l-1.6875 0l0 -9.859375l1.6875 0l0 9.859375zm-1.828125 -12.46875q0 -0.40625 0.25 -0.6875q0.25 -0.296875 0.734375 -0.296875q0.5 0 0.75 0.296875q0.265625 0.28125 0.265625 0.6875q0 0.40625 -0.265625 0.6875q-0.25 0.265625 -0.75 0.265625q-0.484375 0 -0.734375 -0.265625q-0.25 -0.28125 -0.25 -0.6875zm5.35553 12.46875l0 -8.546875l-1.5625 0l0 -1.3125l1.5625 0l0 -1.015625q0 -1.578125 0.84375 -2.4375q0.84375 -0.875 2.390625 -0.875q0.59375 0 1.15625 0.15625l-0.09375 1.375q-0.421875 -0.09375 -0.90625 -0.09375q-0.8125 0 -1.265625 0.484375q-0.4375 0.484375 -0.4375 1.375l0 1.03125l2.09375 0l0 1.3125l-2.09375 0l0 8.546875l-1.6875 0zm20.720398 0l-1.765625 0l-6.671875 -10.21875l0 10.21875l-1.75 0l0 -13.265625l1.75 0l6.703125 10.265625l0 -10.265625l1.734375 0l0 13.265625z" fill-rule="nonzero"/><path fill="#ffffff" d="m578.6921 339.44702l-1.6875 0l0 -9.859375l1.6875 0l0 9.859375zm-1.828125 -12.46875q0 -0.40625 0.25 -0.6875q0.25 -0.296875 0.734375 -0.296875q0.5 0 0.75 0.296875q0.265625 0.28125 0.265625 0.6875q0 0.40625 -0.265625 0.6875q-0.25 0.265625 -0.75 0.265625q-0.484375 0 -0.734375 -0.265625q-0.25 -0.28125 -0.25 -0.6875zm10.26178 9.859375q0 -0.6875 -0.515625 -1.0625q-0.515625 -0.375 -1.796875 -0.640625q-1.28125 -0.28125 -2.03125 -0.65625q-0.75 -0.390625 -1.109375 -0.921875q-0.359375 -0.53125 -0.359375 -1.265625q0 -1.203125 1.015625 -2.03125q1.03125 -0.84375 2.625 -0.84375q1.671875 0 2.71875 0.859375q1.046875 0.859375 1.046875 2.21875l-1.6875 0q0 -0.703125 -0.59375 -1.203125q-0.59375 -0.5 -1.484375 -0.5q-0.921875 0 -1.4375 0.40625q-0.515625 0.390625 -0.515625 1.046875q0 0.609375 0.484375 0.921875q0.484375 0.3125 1.734375 0.59375q1.265625 0.28125 2.046875 0.671875q0.78125 0.390625 1.15625 0.9375q0.390625 0.546875 0.390625 1.34375q0 1.328125 -1.0625 2.125q-1.046875 0.796875 -2.734375 0.796875q-1.1875 0 -2.109375 -0.421875q-0.90625 -0.421875 -1.421875 -1.171875q-0.515625 -0.75 -0.515625 -1.625l1.6875 0q0.046875 0.84375 0.671875 1.34375q0.640625 0.5 1.6875 0.5q0.953125 0 1.53125 -0.390625q0.578125 -0.390625 0.578125 -1.03125zm14.581909 1.640625q-0.984375 1.15625 -2.890625 1.15625q-1.578125 0 -2.40625 -0.921875q-0.8125 -0.921875 -0.828125 -2.703125l0 -6.421875l1.6875 0l0 6.375q0 2.234375 1.828125 2.234375q1.921875 0 2.5625 -1.4375l0 -7.171875l1.6875 0l0 9.859375l-1.609375 0l-0.03125 -0.96875zm5.800232 -8.890625l0.046875 1.234375q1.125 -1.40625 2.953125 -1.40625q3.125 0 3.15625 3.515625l0 6.515625l-1.6875 0l0 -6.515625q-0.015625 -1.078125 -0.5 -1.578125q-0.46875 -0.515625 -1.484375 -0.515625q-0.8125 0 -1.4375 0.4375q-0.609375 0.4375 -0.96875 1.15625l0 7.015625l-1.671875 0l0 -9.859375l1.59375 0zm14.434326 7.25q0 -0.6875 -0.515625 -1.0625q-0.515625 -0.375 -1.796875 -0.640625q-1.28125 -0.28125 -2.03125 -0.65625q-0.75 -0.390625 -1.109375 -0.921875q-0.359375 -0.53125 -0.359375 -1.265625q0 -1.203125 1.015625 -2.03125q1.03125 -0.84375 2.625 -0.84375q1.671875 0 2.71875 0.859375q1.046875 0.859375 1.046875 2.21875l-1.6875 0q0 -0.703125 -0.59375 -1.203125q-0.59375 -0.5 -1.484375 -0.5q-0.921875 0 -1.4375 0.40625q-0.515625 0.390625 -0.515625 1.046875q0 0.609375 0.484375 0.921875q0.484375 0.3125 1.734375 0.59375q1.265625 0.28125 2.046875 0.671875q0.78125 0.390625 1.15625 0.9375q0.390625 0.546875 0.390625 1.34375q0 1.328125 -1.0625 2.125q-1.046875 0.796875 -2.734375 0.796875q-1.1875 0 -2.109375 -0.421875q-0.90625 -0.421875 -1.421875 -1.171875q-0.515625 -0.75 -0.515625 -1.625l1.6875 0q0.046875 0.84375 0.671875 1.34375q0.640625 0.5 1.6875 0.5q0.953125 0 1.53125 -0.390625q0.578125 -0.390625 0.578125 -1.03125zm12.197754 -2.203125q0 2.25 -1.03125 3.625q-1.015625 1.375 -2.78125 1.375q-1.796875 0 -2.828125 -1.140625l0 4.75l-1.671875 0l0 -13.65625l1.53125 0l0.078125 1.09375q1.03125 -1.265625 2.859375 -1.265625q1.78125 0 2.8125 1.34375q1.03125 1.328125 1.03125 3.71875l0 0.15625zm-1.671875 -0.203125q0 -1.65625 -0.71875 -2.625q-0.703125 -0.96875 -1.953125 -0.96875q-1.53125 0 -2.296875 1.359375l0 4.703125q0.765625 1.359375 2.328125 1.359375q1.203125 0 1.921875 -0.953125q0.71875 -0.96875 0.71875 -2.875zm7.904358 5.203125q-2.0 0 -3.265625 -1.3125q-1.25 -1.328125 -1.25 -3.53125l0 -0.3125q0 -1.46875 0.5625 -2.609375q0.5625 -1.15625 1.5625 -1.796875q1.015625 -0.65625 2.1875 -0.65625q1.921875 0 2.984375 1.265625q1.0625 1.265625 1.0625 3.625l0 0.6875l-6.671875 0q0.03125 1.46875 0.84375 2.375q0.828125 0.890625 2.078125 0.890625q0.890625 0 1.515625 -0.359375q0.625 -0.375 1.078125 -0.96875l1.03125 0.796875q-1.234375 1.90625 -3.71875 1.90625zm-0.203125 -8.84375q-1.015625 0 -1.71875 0.75q-0.6875 0.734375 -0.84375 2.078125l4.9375 0l0 -0.125q-0.078125 -1.28125 -0.703125 -1.984375q-0.609375 -0.71875 -1.671875 -0.71875zm9.961914 7.46875q0.890625 0 1.5625 -0.546875q0.6875 -0.546875 0.75 -1.375l1.59375 0q-0.046875 0.84375 -0.578125 1.609375q-0.53125 0.765625 -1.4375 1.234375q-0.890625 0.453125 -1.890625 0.453125q-2.015625 0 -3.203125 -1.34375q-1.1875 -1.34375 -1.1875 -3.6875l0 -0.28125q0 -1.4375 0.515625 -2.546875q0.53125 -1.125 1.515625 -1.734375q1.0 -0.625 2.34375 -0.625q1.65625 0 2.75 1.0q1.109375 0.984375 1.171875 2.5625l-1.59375 0q-0.0625 -0.953125 -0.71875 -1.5625q-0.65625 -0.625 -1.609375 -0.625q-1.28125 0 -2.0 0.921875q-0.703125 0.921875 -0.703125 2.671875l0 0.328125q0 1.703125 0.703125 2.625q0.703125 0.921875 2.015625 0.921875zm7.640381 1.1875l-1.6875 0l0 -9.859375l1.6875 0l0 9.859375zm-1.828125 -12.46875q0 -0.40625 0.25 -0.6875q0.25 -0.296875 0.734375 -0.296875q0.5 0 0.75 0.296875q0.265625 0.28125 0.265625 0.6875q0 0.40625 -0.265625 0.6875q-0.25 0.265625 -0.75 0.265625q-0.484375 0 -0.734375 -0.265625q-0.25 -0.28125 -0.25 -0.6875zm5.089905 12.46875l0 -8.546875l-1.5625 0l0 -1.3125l1.5625 0l0 -0.828125q0 -1.65625 0.9375 -2.578125q0.9375 -0.921875 2.671875 -0.921875q1.015625 0 2.578125 0.5625l-0.28125 1.421875q-1.140625 -0.453125 -2.171875 -0.453125q-1.09375 0 -1.578125 0.484375q-0.46875 0.484375 -0.46875 1.453125l0 0.859375l2.015625 0l0 1.3125l-2.015625 0l0 8.546875l-1.6875 0zm7.015625 0l-1.6875 0l0 -9.859375l1.6875 0l0 9.859375zm6.8302 0.1875q-2.0 0 -3.265625 -1.3125q-1.25 -1.328125 -1.25 -3.53125l0 -0.3125q0 -1.46875 0.5625 -2.609375q0.5625 -1.15625 1.5625 -1.796875q1.015625 -0.65625 2.1875 -0.65625q1.921875 0 2.984375 1.265625q1.0625 1.265625 1.0625 3.625l0 0.6875l-6.671875 0q0.03125 1.46875 0.84375 2.375q0.828125 0.890625 2.078125 0.890625q0.890625 0 1.515625 -0.359375q0.625 -0.375 1.078125 -0.96875l1.03125 0.796875q-1.234375 1.90625 -3.71875 1.90625zm-0.203125 -8.84375q-1.015625 0 -1.71875 0.75q-0.6875 0.734375 -0.84375 2.078125l4.9375 0l0 -0.125q-0.078125 -1.28125 -0.703125 -1.984375q-0.609375 -0.71875 -1.671875 -0.71875zm5.586914 3.640625q0 -2.265625 1.078125 -3.640625q1.078125 -1.375 2.8125 -1.375q1.734375 0 2.75 1.171875l0 -5.140625l1.6875 0l0 14.0l-1.546875 0l-0.09375 -1.0625q-1.0 1.25 -2.8125 1.25q-1.703125 0 -2.796875 -1.40625q-1.078125 -1.40625 -1.078125 -3.65625l0 -0.140625zm1.6875 0.203125q0 1.671875 0.6875 2.625q0.703125 0.9375 1.921875 0.9375q1.609375 0 2.34375 -1.4375l0 -4.53125q-0.765625 -1.390625 -2.328125 -1.390625q-1.234375 0 -1.9375 0.953125q-0.6875 0.953125 -0.6875 2.84375z" fill-rule="nonzero"/><path fill="#ffffff" d="m545.95483 355.92575q1.0 0 1.96875 0.53125q0.96875 0.515625 1.5 1.484375q0.53125 0.96875 0.53125 2.0q0 1.671875 -1.171875 2.84375q-1.171875 1.171875 -2.828125 1.171875q-1.671875 0 -2.84375 -1.171875q-1.171875 -1.171875 -1.171875 -2.84375q0 -1.046875 0.53125 -2.0q0.546875 -0.96875 1.5 -1.484375q0.96875 -0.53125 1.984375 -0.53125z" fill-rule="nonzero"/><path fill="#ffffff" d="m579.3796 351.94138l4.34375 10.828125l4.328125 -10.828125l2.265625 0l0 13.265625l-1.75 0l0 -5.171875l0.171875 -5.5625l-4.359375 10.734375l-1.34375 0l-4.34375 -10.71875l0.171875 5.546875l0 5.171875l-1.734375 0l0 -13.265625l2.25 0zm20.21875 13.265625l-1.6875 0l0 -9.859375l1.6875 0l0 9.859375zm-1.828125 -12.46875q0 -0.40625 0.25 -0.6875q0.25 -0.296875 0.734375 -0.296875q0.5 0 0.75 0.296875q0.265625 0.28125 0.265625 0.6875q0 0.40625 -0.265625 0.6875q-0.25 0.265625 -0.75 0.265625q-0.484375 0 -0.734375 -0.265625q-0.25 -0.28125 -0.25 -0.6875zm10.261841 9.859375q0 -0.6875 -0.515625 -1.0625q-0.515625 -0.375 -1.796875 -0.640625q-1.28125 -0.28125 -2.03125 -0.65625q-0.75 -0.390625 -1.109375 -0.921875q-0.359375 -0.53125 -0.359375 -1.265625q0 -1.203125 1.015625 -2.03125q1.03125 -0.84375 2.625 -0.84375q1.671875 0 2.71875 0.859375q1.046875 0.859375 1.046875 2.21875l-1.6875 0q0 -0.703125 -0.59375 -1.203125q-0.59375 -0.5 -1.484375 -0.5q-0.921875 0 -1.4375 0.40625q-0.515625 0.390625 -0.515625 1.046875q0 0.609375 0.484375 0.921875q0.484375 0.3125 1.734375 0.59375q1.265625 0.28125 2.046875 0.671875q0.78125 0.390625 1.15625 0.9375q0.390625 0.546875 0.390625 1.34375q0 1.328125 -1.0625 2.125q-1.046875 0.796875 -2.734375 0.796875q-1.1875 0 -2.109375 -0.421875q-0.90625 -0.421875 -1.421875 -1.171875q-0.515625 -0.75 -0.515625 -1.625l1.6875 0q0.046875 0.84375 0.671875 1.34375q0.640625 0.5 1.6875 0.5q0.953125 0 1.53125 -0.390625q0.578125 -0.390625 0.578125 -1.03125zm14.581848 2.609375q-0.140625 -0.296875 -0.234375 -1.03125q-1.171875 1.21875 -2.8125 1.21875q-1.453125 0 -2.390625 -0.828125q-0.921875 -0.828125 -0.921875 -2.09375q0 -1.53125 1.15625 -2.375q1.171875 -0.859375 3.296875 -0.859375l1.640625 0l0 -0.78125q0 -0.890625 -0.53125 -1.40625q-0.515625 -0.53125 -1.546875 -0.53125q-0.90625 0 -1.515625 0.46875q-0.609375 0.453125 -0.609375 1.09375l-1.703125 0q0 -0.734375 0.515625 -1.421875q0.53125 -0.6875 1.421875 -1.078125q0.90625 -0.40625 1.984375 -0.40625q1.703125 0 2.671875 0.859375q0.96875 0.84375 1.0 2.328125l0 4.53125q0 1.359375 0.34375 2.171875l0 0.140625l-1.765625 0zm-2.796875 -1.28125q0.796875 0 1.5 -0.40625q0.71875 -0.421875 1.03125 -1.078125l0 -2.015625l-1.3125 0q-3.109375 0 -3.109375 1.8125q0 0.796875 0.53125 1.25q0.53125 0.4375 1.359375 0.4375zm13.157166 -7.375q1.125 -1.375 2.921875 -1.375q3.125 0 3.15625 3.515625l0 6.515625l-1.6875 0l0 -6.515625q-0.015625 -1.078125 -0.5 -1.578125q-0.46875 -0.515625 -1.484375 -0.515625q-0.8125 0 -1.4375 0.4375q-0.609375 0.4375 -0.96875 1.15625l0 7.015625l-1.671875 0l0 -14.0l1.671875 0l0 5.34375zm10.431763 8.65625l-1.6875 0l0 -9.859375l1.6875 0l0 9.859375zm-1.828125 -12.46875q0 -0.40625 0.25 -0.6875q0.25 -0.296875 0.734375 -0.296875q0.5 0 0.75 0.296875q0.265625 0.28125 0.265625 0.6875q0 0.40625 -0.265625 0.6875q-0.25 0.265625 -0.75 0.265625q-0.484375 0 -0.734375 -0.265625q-0.25 -0.28125 -0.25 -0.6875zm6.121155 2.609375l0.046875 1.234375q1.125 -1.40625 2.953125 -1.40625q3.125 0 3.15625 3.515625l0 6.515625l-1.6875 0l0 -6.515625q-0.015625 -1.078125 -0.5 -1.578125q-0.46875 -0.515625 -1.484375 -0.515625q-0.8125 0 -1.4375 0.4375q-0.609375 0.4375 -0.96875 1.15625l0 7.015625l-1.671875 0l0 -9.859375l1.59375 0zm10.981201 -2.390625l0 2.390625l1.84375 0l0 1.3125l-1.84375 0l0 6.109375q0 0.59375 0.234375 0.890625q0.25 0.296875 0.84375 0.296875q0.296875 0 0.8125 -0.109375l0 1.359375q-0.671875 0.1875 -1.296875 0.1875q-1.125 0 -1.703125 -0.6875q-0.578125 -0.6875 -0.578125 -1.9375l0 -6.109375l-1.796875 0l0 -1.3125l1.796875 0l0 -2.390625l1.6875 0zm10.712769 0l0 2.390625l1.84375 0l0 1.3125l-1.84375 0l0 6.109375q0 0.59375 0.234375 0.890625q0.25 0.296875 0.84375 0.296875q0.296875 0 0.8125 -0.109375l0 1.359375q-0.671875 0.1875 -1.296875 0.1875q-1.125 0 -1.703125 -0.6875q-0.578125 -0.6875 -0.578125 -1.9375l0 -6.109375l-1.796875 0l0 -1.3125l1.796875 0l0 -2.390625l1.6875 0zm3.1776123 7.234375q0 -1.453125 0.5625 -2.609375q0.578125 -1.15625 1.59375 -1.78125q1.015625 -0.625 2.3125 -0.625q2.015625 0 3.25 1.390625q1.25 1.390625 1.25 3.703125l0 0.125q0 1.4375 -0.546875 2.578125q-0.546875 1.140625 -1.578125 1.78125q-1.015625 0.640625 -2.359375 0.640625q-2.0 0 -3.25 -1.390625q-1.234375 -1.40625 -1.234375 -3.703125l0 -0.109375zm1.6875 0.203125q0 1.640625 0.765625 2.640625q0.765625 0.984375 2.03125 0.984375q1.296875 0 2.046875 -1.0q0.75 -1.015625 0.75 -2.828125q0 -1.625 -0.765625 -2.625q-0.765625 -1.015625 -2.046875 -1.015625q-1.25 0 -2.015625 1.0q-0.765625 0.984375 -0.765625 2.84375zm16.305298 -7.4375l0 2.390625l1.84375 0l0 1.3125l-1.84375 0l0 6.109375q0 0.59375 0.234375 0.890625q0.25 0.296875 0.84375 0.296875q0.296875 0 0.8125 -0.109375l0 1.359375q-0.671875 0.1875 -1.296875 0.1875q-1.125 0 -1.703125 -0.6875q-0.578125 -0.6875 -0.578125 -1.9375l0 -6.109375l-1.796875 0l0 -1.3125l1.796875 0l0 -2.390625l1.6875 0zm5.4848633 3.59375q1.125 -1.375 2.921875 -1.375q3.125 0 3.15625 3.515625l0 6.515625l-1.6875 0l0 -6.515625q-0.015625 -1.078125 -0.5 -1.578125q-0.46875 -0.515625 -1.484375 -0.515625q-0.8125 0 -1.4375 0.4375q-0.609375 0.4375 -0.96875 1.15625l0 7.015625l-1.671875 0l0 -14.0l1.671875 0l0 5.34375zm12.681763 8.84375q-2.0 0 -3.265625 -1.3125q-1.25 -1.328125 -1.25 -3.53125l0 -0.3125q0 -1.46875 0.5625 -2.609375q0.5625 -1.15625 1.5625 -1.796875q1.015625 -0.65625 2.1875 -0.65625q1.921875 0 2.984375 1.265625q1.0625 1.265625 1.0625 3.625l0 0.6875l-6.671875 0q0.03125 1.46875 0.84375 2.375q0.828125 0.890625 2.078125 0.890625q0.890625 0 1.515625 -0.359375q0.625 -0.375 1.078125 -0.96875l1.03125 0.796875q-1.234375 1.90625 -3.71875 1.90625zm-0.203125 -8.84375q-1.015625 0 -1.71875 0.75q-0.6875 0.734375 -0.84375 2.078125l4.9375 0l0 -0.125q-0.078125 -1.28125 -0.703125 -1.984375q-0.609375 -0.71875 -1.671875 -0.71875zm14.580444 7.46875q0.890625 0 1.5625 -0.546875q0.6875 -0.546875 0.75 -1.375l1.59375 0q-0.046875 0.84375 -0.578125 1.609375q-0.53125 0.765625 -1.4375 1.234375q-0.890625 0.453125 -1.890625 0.453125q-2.015625 0 -3.203125 -1.34375q-1.1875 -1.34375 -1.1875 -3.6875l0 -0.28125q0 -1.4375 0.515625 -2.546875q0.53125 -1.125 1.515625 -1.734375q1.0 -0.625 2.34375 -0.625q1.65625 0 2.75 1.0q1.109375 0.984375 1.171875 2.5625l-1.59375 0q-0.0625 -0.953125 -0.71875 -1.5625q-0.65625 -0.625 -1.609375 -0.625q-1.28125 0 -2.0 0.921875q-0.703125 0.921875 -0.703125 2.671875l0 0.328125q0 1.703125 0.703125 2.625q0.703125 0.921875 2.015625 0.921875zm5.359131 -3.828125q0 -1.453125 0.5625 -2.609375q0.578125 -1.15625 1.59375 -1.78125q1.015625 -0.625 2.3125 -0.625q2.015625 0 3.25 1.390625q1.25 1.390625 1.25 3.703125l0 0.125q0 1.4375 -0.546875 2.578125q-0.546875 1.140625 -1.578125 1.78125q-1.015625 0.640625 -2.359375 0.640625q-2.0 0 -3.25 -1.390625q-1.234375 -1.40625 -1.234375 -3.703125l0 -0.109375zm1.6875 0.203125q0 1.640625 0.765625 2.640625q0.765625 0.984375 2.03125 0.984375q1.296875 0 2.046875 -1.0q0.75 -1.015625 0.75 -2.828125q0 -1.625 -0.765625 -2.625q-0.765625 -1.015625 -2.046875 -1.015625q-1.25 0 -2.015625 1.0q-0.765625 0.984375 -0.765625 2.84375zm10.983643 -5.046875l0.046875 1.09375q1.078125 -1.265625 2.921875 -1.265625q2.0625 0 2.8125 1.578125q0.5 -0.71875 1.28125 -1.140625q0.796875 -0.4375 1.859375 -0.4375q3.25 0 3.296875 3.421875l0 6.609375l-1.671875 0l0 -6.5q0 -1.0625 -0.484375 -1.578125q-0.484375 -0.53125 -1.625 -0.53125q-0.9375 0 -1.5625 0.5625q-0.609375 0.5625 -0.71875 1.5l0 6.546875l-1.6875 0l0 -6.453125q0 -2.15625 -2.109375 -2.15625q-1.65625 0 -2.265625 1.40625l0 7.203125l-1.6875 0l0 -9.859375l1.59375 0zm23.085938 5.046875q0 2.25 -1.03125 3.625q-1.015625 1.375 -2.78125 1.375q-1.796875 0 -2.828125 -1.140625l0 4.75l-1.671875 0l0 -13.65625l1.53125 0l0.078125 1.09375q1.03125 -1.265625 2.859375 -1.265625q1.78125 0 2.8125 1.34375q1.03125 1.328125 1.03125 3.71875l0 0.15625zm-1.671875 -0.203125q0 -1.65625 -0.71875 -2.625q-0.703125 -0.96875 -1.953125 -0.96875q-1.53125 0 -2.296875 1.359375l0 4.703125q0.765625 1.359375 2.328125 1.359375q1.203125 0 1.921875 -0.953125q0.71875 -0.96875 0.71875 -2.875zm5.654297 5.015625l-1.6875 0l0 -9.859375l1.6875 0l0 9.859375zm-1.828125 -12.46875q0 -0.40625 0.25 -0.6875q0.25 -0.296875 0.734375 -0.296875q0.5 0 0.75 0.296875q0.265625 0.28125 0.265625 0.6875q0 0.40625 -0.265625 0.6875q-0.25 0.265625 -0.75 0.265625q-0.484375 0 -0.734375 -0.265625q-0.25 -0.28125 -0.25 -0.6875zm6.35553 12.46875l-1.6875 0l0 -14.0l1.6875 0l0 14.0zm6.777466 0.1875q-2.0 0 -3.265625 -1.3125q-1.25 -1.328125 -1.25 -3.53125l0 -0.3125q0 -1.46875 0.5625 -2.609375q0.5625 -1.15625 1.5625 -1.796875q1.015625 -0.65625 2.1875 -0.65625q1.921875 0 2.984375 1.265625q1.0625 1.265625 1.0625 3.625l0 0.6875l-6.671875 0q0.03125 1.46875 0.84375 2.375q0.828125 0.890625 2.078125 0.890625q0.890625 0 1.515625 -0.359375q0.625 -0.375 1.078125 -0.96875l1.03125 0.796875q-1.234375 1.90625 -3.71875 1.90625zm-0.203125 -8.84375q-1.015625 0 -1.71875 0.75q-0.6875 0.734375 -0.84375 2.078125l4.9375 0l0 -0.125q-0.078125 -1.28125 -0.703125 -1.984375q-0.609375 -0.71875 -1.671875 -0.71875zm10.774414 0.3125q-0.390625 -0.0625 -0.84375 -0.0625q-1.65625 0 -2.25 1.40625l0 7.0l-1.671875 0l0 -9.859375l1.640625 0l0.015625 1.140625q0.828125 -1.3125 2.359375 -1.3125q0.484375 0 0.75 0.125l0 1.5625zm8.4470215 -3.90625l0 2.390625l1.84375 0l0 1.3125l-1.84375 0l0 6.109375q0 0.59375 0.234375 0.890625q0.25 0.296875 0.84375 0.296875q0.296875 0 0.8125 -0.109375l0 1.359375q-0.671875 0.1875 -1.296875 0.1875q-1.125 0 -1.703125 -0.6875q-0.578125 -0.6875 -0.578125 -1.9375l0 -6.109375l-1.796875 0l0 -1.3125l1.796875 0l0 -2.390625l1.6875 0zm5.4848633 3.59375q1.125 -1.375 2.921875 -1.375q3.125 0 3.15625 3.515625l0 6.515625l-1.6875 0l0 -6.515625q-0.015625 -1.078125 -0.5 -1.578125q-0.46875 -0.515625 -1.484375 -0.515625q-0.8125 0 -1.4375 0.4375q-0.609375 0.4375 -0.96875 1.15625l0 7.015625l-1.671875 0l0 -14.0l1.671875 0l0 5.34375zm14.681763 8.65625q-0.140625 -0.296875 -0.234375 -1.03125q-1.171875 1.21875 -2.8125 1.21875q-1.453125 0 -2.390625 -0.828125q-0.921875 -0.828125 -0.921875 -2.09375q0 -1.53125 1.15625 -2.375q1.171875 -0.859375 3.296875 -0.859375l1.640625 0l0 -0.78125q0 -0.890625 -0.53125 -1.40625q-0.515625 -0.53125 -1.546875 -0.53125q-0.90625 0 -1.515625 0.46875q-0.609375 0.453125 -0.609375 1.09375l-1.703125 0q0 -0.734375 0.515625 -1.421875q0.53125 -0.6875 1.421875 -1.078125q0.90625 -0.40625 1.984375 -0.40625q1.703125 0 2.671875 0.859375q0.96875 0.84375 1.0 2.328125l0 4.53125q0 1.359375 0.34375 2.171875l0 0.140625l-1.765625 0zm-2.796875 -1.28125q0.796875 0 1.5 -0.40625q0.71875 -0.421875 1.03125 -1.078125l0 -2.015625l-1.3125 0q-3.109375 0 -3.109375 1.8125q0 0.796875 0.53125 1.25q0.53125 0.4375 1.359375 0.4375zm9.14801 -10.96875l0 2.390625l1.84375 0l0 1.3125l-1.84375 0l0 6.109375q0 0.59375 0.234375 0.890625q0.25 0.296875 0.84375 0.296875q0.296875 0 0.8125 -0.109375l0 1.359375q-0.671875 0.1875 -1.296875 0.1875q-1.125 0 -1.703125 -0.6875q-0.578125 -0.6875 -0.578125 -1.9375l0 -6.109375l-1.796875 0l0 -1.3125l1.796875 0l0 -2.390625l1.6875 0zm10.259644 12.25l-1.6875 0l0 -9.859375l1.6875 0l0 9.859375zm-1.828125 -12.46875q0 -0.40625 0.25 -0.6875q0.25 -0.296875 0.734375 -0.296875q0.5 0 0.75 0.296875q0.265625 0.28125 0.265625 0.6875q0 0.40625 -0.265625 0.6875q-0.25 0.265625 -0.75 0.265625q-0.484375 0 -0.734375 -0.265625q-0.25 -0.28125 -0.25 -0.6875zm6.808655 0.21875l0 2.390625l1.84375 0l0 1.3125l-1.84375 0l0 6.109375q0 0.59375 0.234375 0.890625q0.25 0.296875 0.84375 0.296875q0.296875 0 0.8125 -0.109375l0 1.359375q-0.671875 0.1875 -1.296875 0.1875q-1.125 0 -1.703125 -0.6875q-0.578125 -0.6875 -0.578125 -1.9375l0 -6.109375l-1.796875 0l0 -1.3125l1.796875 0l0 -2.390625l1.6875 0zm17.150269 9.921875l1.890625 -7.53125l1.6875 0l-2.859375 9.859375l-1.375 0l-2.390625 -7.46875l-2.328125 7.46875l-1.375 0l-2.859375 -9.859375l1.671875 0l1.953125 7.375l2.28125 -7.375l1.359375 0l2.34375 7.53125zm7.1289062 2.328125l-1.6875 0l0 -9.859375l1.6875 0l0 9.859375zm-1.828125 -12.46875q0 -0.40625 0.25 -0.6875q0.25 -0.296875 0.734375 -0.296875q0.5 0 0.75 0.296875q0.265625 0.28125 0.265625 0.6875q0 0.40625 -0.265625 0.6875q-0.25 0.265625 -0.75 0.265625q-0.484375 0 -0.734375 -0.265625q-0.25 -0.28125 -0.25 -0.6875zm6.35553 12.46875l-1.6875 0l0 -14.0l1.6875 0l0 14.0zm4.527405 0l-1.6875 0l0 -14.0l1.6875 0l0 14.0z" fill-rule="nonzero"/><path fill="#ffffff" d="m581.6296 382.62326q-0.390625 -0.0625 -0.84375 -0.0625q-1.65625 0 -2.25 1.40625l0 7.0l-1.671875 0l0 -9.859375l1.640625 0l0.015625 1.140625q0.828125 -1.3125 2.359375 -1.3125q0.484375 0 0.75 0.125l0 1.5625zm7.260803 8.34375q-0.140625 -0.296875 -0.234375 -1.03125q-1.171875 1.21875 -2.8125 1.21875q-1.453125 0 -2.390625 -0.828125q-0.921875 -0.828125 -0.921875 -2.09375q0 -1.53125 1.15625 -2.375q1.171875 -0.859375 3.296875 -0.859375l1.640625 0l0 -0.78125q0 -0.890625 -0.53125 -1.40625q-0.515625 -0.53125 -1.546875 -0.53125q-0.90625 0 -1.515625 0.46875q-0.609375 0.453125 -0.609375 1.09375l-1.703125 0q0 -0.734375 0.515625 -1.421875q0.53125 -0.6875 1.421875 -1.078125q0.90625 -0.40625 1.984375 -0.40625q1.703125 0 2.671875 0.859375q0.96875 0.84375 1.0 2.328125l0 4.53125q0 1.359375 0.34375 2.171875l0 0.140625l-1.765625 0zm-2.796875 -1.28125q0.796875 0 1.5 -0.40625q0.71875 -0.421875 1.03125 -1.078125l0 -2.015625l-1.3125 0q-3.109375 0 -3.109375 1.8125q0 0.796875 0.53125 1.25q0.53125 0.4375 1.359375 0.4375zm11.632324 -7.0625q-0.390625 -0.0625 -0.84375 -0.0625q-1.65625 0 -2.25 1.40625l0 7.0l-1.671875 0l0 -9.859375l1.640625 0l0.015625 1.140625q0.828125 -1.3125 2.359375 -1.3125q0.484375 0 0.75 0.125l0 1.5625zm5.4522095 8.53125q-2.0 0 -3.265625 -1.3125q-1.25 -1.328125 -1.25 -3.53125l0 -0.3125q0 -1.46875 0.5625 -2.609375q0.5625 -1.15625 1.5625 -1.796875q1.015625 -0.65625 2.1875 -0.65625q1.921875 0 2.984375 1.265625q1.0625 1.265625 1.0625 3.625l0 0.6875l-6.671875 0q0.03125 1.46875 0.84375 2.375q0.828125 0.890625 2.078125 0.890625q0.890625 0 1.515625 -0.359375q0.625 -0.375 1.078125 -0.96875l1.03125 0.796875q-1.234375 1.90625 -3.71875 1.90625zm-0.203125 -8.84375q-1.015625 0 -1.71875 0.75q-0.6875 0.734375 -0.84375 2.078125l4.9375 0l0 -0.125q-0.078125 -1.28125 -0.703125 -1.984375q-0.609375 -0.71875 -1.671875 -0.71875zm7.836914 8.65625l-1.6875 0l0 -14.0l1.6875 0l0 14.0zm5.918091 -2.46875l2.296875 -7.390625l1.796875 0l-3.953125 11.375q-0.921875 2.46875 -2.921875 2.46875l-0.328125 -0.03125l-0.625 -0.125l0 -1.359375l0.453125 0.03125q0.859375 0 1.328125 -0.34375q0.484375 -0.34375 0.796875 -1.265625l0.375 -1.0l-3.515625 -9.75l1.84375 0l2.453125 7.390625zm14.179993 1.28125q0.890625 0 1.5625 -0.546875q0.6875 -0.546875 0.75 -1.375l1.59375 0q-0.046875 0.84375 -0.578125 1.609375q-0.53125 0.765625 -1.4375 1.234375q-0.890625 0.453125 -1.890625 0.453125q-2.015625 0 -3.203125 -1.34375q-1.1875 -1.34375 -1.1875 -3.6875l0 -0.28125q0 -1.4375 0.515625 -2.546875q0.53125 -1.125 1.515625 -1.734375q1.0 -0.625 2.34375 -0.625q1.65625 0 2.75 1.0q1.109375 0.984375 1.171875 2.5625l-1.59375 0q-0.0625 -0.953125 -0.71875 -1.5625q-0.65625 -0.625 -1.609375 -0.625q-1.28125 0 -2.0 0.921875q-0.703125 0.921875 -0.703125 2.671875l0 0.328125q0 1.703125 0.703125 2.625q0.703125 0.921875 2.015625 0.921875zm5.359131 -3.828125q0 -1.453125 0.5625 -2.609375q0.578125 -1.15625 1.59375 -1.78125q1.015625 -0.625 2.3125 -0.625q2.015625 0 3.25 1.390625q1.25 1.390625 1.25 3.703125l0 0.125q0 1.4375 -0.546875 2.578125q-0.546875 1.140625 -1.578125 1.78125q-1.015625 0.640625 -2.359375 0.640625q-2.0 0 -3.25 -1.390625q-1.234375 -1.40625 -1.234375 -3.703125l0 -0.109375zm1.6875 0.203125q0 1.640625 0.765625 2.640625q0.765625 0.984375 2.03125 0.984375q1.296875 0 2.046875 -1.0q0.75 -1.015625 0.75 -2.828125q0 -1.625 -0.765625 -2.625q-0.765625 -1.015625 -2.046875 -1.015625q-1.25 0 -2.015625 1.0q-0.765625 0.984375 -0.765625 2.84375zm10.999268 -5.046875l0.046875 1.234375q1.125 -1.40625 2.953125 -1.40625q3.125 0 3.15625 3.515625l0 6.515625l-1.6875 0l0 -6.515625q-0.015625 -1.078125 -0.5 -1.578125q-0.46875 -0.515625 -1.484375 -0.515625q-0.8125 0 -1.4375 0.4375q-0.609375 0.4375 -0.96875 1.15625l0 7.015625l-1.671875 0l0 -9.859375l1.59375 0zm10.981201 -2.390625l0 2.390625l1.84375 0l0 1.3125l-1.84375 0l0 6.109375q0 0.59375 0.234375 0.890625q0.25 0.296875 0.84375 0.296875q0.296875 0 0.8125 -0.109375l0 1.359375q-0.671875 0.1875 -1.296875 0.1875q-1.125 0 -1.703125 -0.6875q-0.578125 -0.6875 -0.578125 -1.9375l0 -6.109375l-1.796875 0l0 -1.3125l1.796875 0l0 -2.390625l1.6875 0zm9.891113 12.25q-0.140625 -0.296875 -0.234375 -1.03125q-1.171875 1.21875 -2.8125 1.21875q-1.453125 0 -2.390625 -0.828125q-0.921875 -0.828125 -0.921875 -2.09375q0 -1.53125 1.15625 -2.375q1.171875 -0.859375 3.296875 -0.859375l1.640625 0l0 -0.78125q0 -0.890625 -0.53125 -1.40625q-0.515625 -0.53125 -1.546875 -0.53125q-0.90625 0 -1.515625 0.46875q-0.609375 0.453125 -0.609375 1.09375l-1.703125 0q0 -0.734375 0.515625 -1.421875q0.53125 -0.6875 1.421875 -1.078125q0.90625 -0.40625 1.984375 -0.40625q1.703125 0 2.671875 0.859375q0.96875 0.84375 1.0 2.328125l0 4.53125q0 1.359375 0.34375 2.171875l0 0.140625l-1.765625 0zm-2.796875 -1.28125q0.796875 0 1.5 -0.40625q0.71875 -0.421875 1.03125 -1.078125l0 -2.015625l-1.3125 0q-3.109375 0 -3.109375 1.8125q0 0.796875 0.53125 1.25q0.53125 0.4375 1.359375 0.4375zm8.694885 1.28125l-1.6875 0l0 -9.859375l1.6875 0l0 9.859375zm-1.828125 -12.46875q0 -0.40625 0.25 -0.6875q0.25 -0.296875 0.734375 -0.296875q0.5 0 0.75 0.296875q0.265625 0.28125 0.265625 0.6875q0 0.40625 -0.265625 0.6875q-0.25 0.265625 -0.75 0.265625q-0.484375 0 -0.734375 -0.265625q-0.25 -0.28125 -0.25 -0.6875zm6.121155 2.609375l0.046875 1.234375q1.125 -1.40625 2.953125 -1.40625q3.125 0 3.15625 3.515625l0 6.515625l-1.6875 0l0 -6.515625q-0.015625 -1.078125 -0.5 -1.578125q-0.46875 -0.515625 -1.484375 -0.515625q-0.8125 0 -1.4375 0.4375q-0.609375 0.4375 -0.96875 1.15625l0 7.015625l-1.671875 0l0 -9.859375l1.59375 0zm14.896606 0l0.046875 1.09375q1.078125 -1.265625 2.921875 -1.265625q2.0625 0 2.8125 1.578125q0.5 -0.71875 1.28125 -1.140625q0.796875 -0.4375 1.859375 -0.4375q3.25 0 3.296875 3.421875l0 6.609375l-1.671875 0l0 -6.5q0 -1.0625 -0.484375 -1.578125q-0.484375 -0.53125 -1.625 -0.53125q-0.9375 0 -1.5625 0.5625q-0.609375 0.5625 -0.71875 1.5l0 6.546875l-1.6875 0l0 -6.453125q0 -2.15625 -2.109375 -2.15625q-1.65625 0 -2.265625 1.40625l0 7.203125l-1.6875 0l0 -9.859375l1.59375 0zm14.3203125 4.84375q0 -1.453125 0.5625 -2.609375q0.578125 -1.15625 1.59375 -1.78125q1.015625 -0.625 2.3125 -0.625q2.015625 0 3.25 1.390625q1.25 1.390625 1.25 3.703125l0 0.125q0 1.4375 -0.546875 2.578125q-0.546875 1.140625 -1.578125 1.78125q-1.015625 0.640625 -2.359375 0.640625q-2.0 0 -3.25 -1.390625q-1.234375 -1.40625 -1.234375 -3.703125l0 -0.109375zm1.6875 0.203125q0 1.640625 0.765625 2.640625q0.765625 0.984375 2.03125 0.984375q1.296875 0 2.046875 -1.0q0.75 -1.015625 0.75 -2.828125q0 -1.625 -0.765625 -2.625q-0.765625 -1.015625 -2.046875 -1.015625q-1.25 0 -2.015625 1.0q-0.765625 0.984375 -0.765625 2.84375zm14.171143 -3.53125q-0.390625 -0.0625 -0.84375 -0.0625q-1.65625 0 -2.25 1.40625l0 7.0l-1.671875 0l0 -9.859375l1.640625 0l0.015625 1.140625q0.828125 -1.3125 2.359375 -1.3125q0.484375 0 0.75 0.125l0 1.5625zm5.4522095 8.53125q-2.0 0 -3.265625 -1.3125q-1.25 -1.328125 -1.25 -3.53125l0 -0.3125q0 -1.46875 0.5625 -2.609375q0.5625 -1.15625 1.5625 -1.796875q1.015625 -0.65625 2.1875 -0.65625q1.921875 0 2.984375 1.265625q1.0625 1.265625 1.0625 3.625l0 0.6875l-6.671875 0q0.03125 1.46875 0.84375 2.375q0.828125 0.890625 2.078125 0.890625q0.890625 0 1.515625 -0.359375q0.625 -0.375 1.078125 -0.96875l1.03125 0.796875q-1.234375 1.90625 -3.71875 1.90625zm-0.203125 -8.84375q-1.015625 0 -1.71875 0.75q-0.6875 0.734375 -0.84375 2.078125l4.9375 0l0 -0.125q-0.078125 -1.28125 -0.703125 -1.984375q-0.609375 -0.71875 -1.671875 -0.71875zm12.908569 -3.59375l0 2.390625l1.84375 0l0 1.3125l-1.84375 0l0 6.109375q0 0.59375 0.234375 0.890625q0.25 0.296875 0.84375 0.296875q0.296875 0 0.8125 -0.109375l0 1.359375q-0.671875 0.1875 -1.296875 0.1875q-1.125 0 -1.703125 -0.6875q-0.578125 -0.6875 -0.578125 -1.9375l0 -6.109375l-1.796875 0l0 -1.3125l1.796875 0l0 -2.390625l1.6875 0zm5.4848633 3.59375q1.125 -1.375 2.921875 -1.375q3.125 0 3.15625 3.515625l0 6.515625l-1.6875 0l0 -6.515625q-0.015625 -1.078125 -0.5 -1.578125q-0.46875 -0.515625 -1.484375 -0.515625q-0.8125 0 -1.4375 0.4375q-0.609375 0.4375 -0.96875 1.15625l0 7.015625l-1.671875 0l0 -14.0l1.671875 0l0 5.34375zm14.681763 8.65625q-0.140625 -0.296875 -0.234375 -1.03125q-1.171875 1.21875 -2.8125 1.21875q-1.453125 0 -2.390625 -0.828125q-0.921875 -0.828125 -0.921875 -2.09375q0 -1.53125 1.15625 -2.375q1.171875 -0.859375 3.296875 -0.859375l1.640625 0l0 -0.78125q0 -0.890625 -0.53125 -1.40625q-0.515625 -0.53125 -1.546875 -0.53125q-0.90625 0 -1.515625 0.46875q-0.609375 0.453125 -0.609375 1.09375l-1.703125 0q0 -0.734375 0.515625 -1.421875q0.53125 -0.6875 1.421875 -1.078125q0.90625 -0.40625 1.984375 -0.40625q1.703125 0 2.671875 0.859375q0.96875 0.84375 1.0 2.328125l0 4.53125q0 1.359375 0.34375 2.171875l0 0.140625l-1.765625 0zm-2.796875 -1.28125q0.796875 0 1.5 -0.40625q0.71875 -0.421875 1.03125 -1.078125l0 -2.015625l-1.3125 0q-3.109375 0 -3.109375 1.8125q0 0.796875 0.53125 1.25q0.53125 0.4375 1.359375 0.4375zm8.46051 -8.578125l0.046875 1.234375q1.125 -1.40625 2.953125 -1.40625q3.125 0 3.15625 3.515625l0 6.515625l-1.6875 0l0 -6.515625q-0.015625 -1.078125 -0.5 -1.578125q-0.46875 -0.515625 -1.484375 -0.515625q-0.8125 0 -1.4375 0.4375q-0.609375 0.4375 -0.96875 1.15625l0 7.015625l-1.671875 0l0 -9.859375l1.59375 0zm15.834106 -3.40625l4.34375 10.828125l4.328125 -10.828125l2.265625 0l0 13.265625l-1.75 0l0 -5.171875l0.171875 -5.5625l-4.359375 10.734375l-1.34375 0l-4.34375 -10.71875l0.171875 5.546875l0 5.171875l-1.734375 0l0 -13.265625l2.25 0zm22.468811 13.453125q-2.0 0 -3.265625 -1.3125q-1.25 -1.328125 -1.25 -3.53125l0 -0.3125q0 -1.46875 0.5625 -2.609375q0.5625 -1.15625 1.5625 -1.796875q1.015625 -0.65625 2.1875 -0.65625q1.921875 0 2.984375 1.265625q1.0625 1.265625 1.0625 3.625l0 0.6875l-6.671875 0q0.03125 1.46875 0.84375 2.375q0.828125 0.890625 2.078125 0.890625q0.890625 0 1.515625 -0.359375q0.625 -0.375 1.078125 -0.96875l1.03125 0.796875q-1.234375 1.90625 -3.71875 1.90625zm-0.203125 -8.84375q-1.015625 0 -1.71875 0.75q-0.6875 0.734375 -0.84375 2.078125l4.9375 0l0 -0.125q-0.078125 -1.28125 -0.703125 -1.984375q-0.609375 -0.71875 -1.671875 -0.71875zm7.836914 8.65625l-1.6875 0l0 -14.0l1.6875 0l0 14.0zm6.777466 0.1875q-2.0 0 -3.265625 -1.3125q-1.25 -1.328125 -1.25 -3.53125l0 -0.3125q0 -1.46875 0.5625 -2.609375q0.5625 -1.15625 1.5625 -1.796875q1.015625 -0.65625 2.1875 -0.65625q1.921875 0 2.984375 1.265625q1.0625 1.265625 1.0625 3.625l0 0.6875l-6.671875 0q0.03125 1.46875 0.84375 2.375q0.828125 0.890625 2.078125 0.890625q0.890625 0 1.515625 -0.359375q0.625 -0.375 1.078125 -0.96875l1.03125 0.796875q-1.234375 1.90625 -3.71875 1.90625zm-0.203125 -8.84375q-1.015625 0 -1.71875 0.75q-0.6875 0.734375 -0.84375 2.078125l4.9375 0l0 -0.125q-0.078125 -1.28125 -0.703125 -1.984375q-0.609375 -0.71875 -1.671875 -0.71875zm7.586914 -1.203125l0.046875 1.09375q1.078125 -1.265625 2.921875 -1.265625q2.0625 0 2.8125 1.578125q0.5 -0.71875 1.28125 -1.140625q0.796875 -0.4375 1.859375 -0.4375q3.25 0 3.296875 3.421875l0 6.609375l-1.671875 0l0 -6.5q0 -1.0625 -0.484375 -1.578125q-0.484375 -0.53125 -1.625 -0.53125q-0.9375 0 -1.5625 0.5625q-0.609375 0.5625 -0.71875 1.5l0 6.546875l-1.6875 0l0 -6.453125q0 -2.15625 -2.109375 -2.15625q-1.65625 0 -2.265625 1.40625l0 7.203125l-1.6875 0l0 -9.859375l1.59375 0zm18.851562 10.046875q-2.0 0 -3.265625 -1.3125q-1.25 -1.328125 -1.25 -3.53125l0 -0.3125q0 -1.46875 0.5625 -2.609375q0.5625 -1.15625 1.5625 -1.796875q1.015625 -0.65625 2.1875 -0.65625q1.921875 0 2.984375 1.265625q1.0625 1.265625 1.0625 3.625l0 0.6875l-6.671875 0q0.03125 1.46875 0.84375 2.375q0.828125 0.890625 2.078125 0.890625q0.890625 0 1.515625 -0.359375q0.625 -0.375 1.078125 -0.96875l1.03125 0.796875q-1.234375 1.90625 -3.71875 1.90625zm-0.203125 -8.84375q-1.015625 0 -1.71875 0.75q-0.6875 0.734375 -0.84375 2.078125l4.9375 0l0 -0.125q-0.078125 -1.28125 -0.703125 -1.984375q-0.609375 -0.71875 -1.671875 -0.71875zm7.602539 -1.203125l0.046875 1.234375q1.125 -1.40625 2.953125 -1.40625q3.125 0 3.15625 3.515625l0 6.515625l-1.6875 0l0 -6.515625q-0.015625 -1.078125 -0.5 -1.578125q-0.46875 -0.515625 -1.484375 -0.515625q-0.8125 0 -1.4375 0.4375q-0.609375 0.4375 -0.96875 1.15625l0 7.015625l-1.671875 0l0 -9.859375l1.59375 0zm10.981201 -2.390625l0 2.390625l1.84375 0l0 1.3125l-1.84375 0l0 6.109375q0 0.59375 0.234375 0.890625q0.25 0.296875 0.84375 0.296875q0.296875 0 0.8125 -0.109375l0 1.359375q-0.671875 0.1875 -1.296875 0.1875q-1.125 0 -1.703125 -0.6875q-0.578125 -0.6875 -0.578125 -1.9375l0 -6.109375l-1.796875 0l0 -1.3125l1.796875 0l0 -2.390625l1.6875 0zm9.547424 9.640625q0 -0.6875 -0.515625 -1.0625q-0.515625 -0.375 -1.796875 -0.640625q-1.28125 -0.28125 -2.03125 -0.65625q-0.75 -0.390625 -1.109375 -0.921875q-0.359375 -0.53125 -0.359375 -1.265625q0 -1.203125 1.015625 -2.03125q1.03125 -0.84375 2.625 -0.84375q1.671875 0 2.71875 0.859375q1.046875 0.859375 1.046875 2.21875l-1.6875 0q0 -0.703125 -0.59375 -1.203125q-0.59375 -0.5 -1.484375 -0.5q-0.921875 0 -1.4375 0.40625q-0.515625 0.390625 -0.515625 1.046875q0 0.609375 0.484375 0.921875q0.484375 0.3125 1.734375 0.59375q1.265625 0.28125 2.046875 0.671875q0.78125 0.390625 1.15625 0.9375q0.390625 0.546875 0.390625 1.34375q0 1.328125 -1.0625 2.125q-1.046875 0.796875 -2.734375 0.796875q-1.1875 0 -2.109375 -0.421875q-0.90625 -0.421875 -1.421875 -1.171875q-0.515625 -0.75 -0.515625 -1.625l1.6875 0q0.046875 0.84375 0.671875 1.34375q0.640625 0.5 1.6875 0.5q0.953125 0 1.53125 -0.390625q0.578125 -0.390625 0.578125 -1.03125z" fill-rule="nonzero"/><path fill="#000000" fill-opacity="0.0" d="m27.874016 294.2861l424.6929 0l0 129.66928l-424.6929 0z" fill-rule="evenodd"/><path fill="#adadad" d="m201.3982 326.6817l5.6875 -16.421875l2.859375 0l-7.375 19.90625l-2.328125 0l-7.359375 -19.90625l2.84375 0l5.671875 16.421875zm16.353516 3.765625q-3.0 0 -4.890625 -1.96875q-1.890625 -1.984375 -1.890625 -5.296875l0 -0.46875q0 -2.203125 0.84375 -3.921875q0.84375 -1.734375 2.34375 -2.703125q1.515625 -0.984375 3.28125 -0.984375q2.890625 0 4.484375 1.90625q1.609375 1.890625 1.609375 5.4375l0 1.046875l-10.03125 0q0.0625 2.1875 1.28125 3.53125q1.21875 1.34375 3.109375 1.34375q1.34375 0 2.265625 -0.546875q0.9375 -0.546875 1.640625 -1.4375l1.53125 1.203125q-1.859375 2.859375 -5.578125 2.859375zm-0.3125 -13.265625q-1.53125 0 -2.578125 1.109375q-1.03125 1.109375 -1.265625 3.125l7.40625 0l0 -0.1875q-0.109375 -1.9375 -1.046875 -2.984375q-0.921875 -1.0625 -2.515625 -1.0625zm14.943359 11.1875q1.359375 0 2.359375 -0.8125q1.015625 -0.828125 1.125 -2.046875l2.40625 0q-0.078125 1.265625 -0.890625 2.421875q-0.796875 1.140625 -2.140625 1.828125q-1.34375 0.6875 -2.859375 0.6875q-3.015625 0 -4.796875 -2.015625q-1.78125 -2.03125 -1.78125 -5.53125l0 -0.421875q0 -2.15625 0.78125 -3.828125q0.796875 -1.6875 2.28125 -2.609375q1.484375 -0.9375 3.5 -0.9375q2.5 0 4.140625 1.484375q1.65625 1.484375 1.765625 3.875l-2.40625 0q-0.109375 -1.4375 -1.09375 -2.359375q-0.96875 -0.921875 -2.40625 -0.921875q-1.921875 0 -2.984375 1.390625q-1.0625 1.375 -1.0625 4.0l0 0.484375q0 2.5625 1.046875 3.9375q1.0625 1.375 3.015625 1.375zm12.15625 -16.578125l0 3.578125l2.765625 0l0 1.953125l-2.765625 0l0 9.171875q0 0.890625 0.359375 1.34375q0.375 0.4375 1.265625 0.4375q0.4375 0 1.203125 -0.15625l0 2.046875q-1.0 0.28125 -1.9375 0.28125q-1.6875 0 -2.5625 -1.03125q-0.859375 -1.03125 -0.859375 -2.921875l0 -9.171875l-2.6875 0l0 -1.953125l2.6875 0l0 -3.578125l2.53125 0zm4.779297 10.84375q0 -2.171875 0.84375 -3.90625q0.859375 -1.75 2.375 -2.6875q1.53125 -0.9375 3.484375 -0.9375q3.03125 0 4.890625 2.09375q1.875 2.078125 1.875 5.5625l0 0.171875q0 2.15625 -0.828125 3.875q-0.828125 1.71875 -2.375 2.6875q-1.53125 0.953125 -3.53125 0.953125q-3.0 0 -4.875 -2.09375q-1.859375 -2.09375 -1.859375 -5.546875l0 -0.171875zm2.53125 0.296875q0 2.46875 1.140625 3.953125q1.15625 1.484375 3.0625 1.484375q1.921875 0 3.0625 -1.5q1.140625 -1.515625 1.140625 -4.234375q0 -2.4375 -1.15625 -3.9375q-1.15625 -1.515625 -3.078125 -1.515625q-1.875 0 -3.03125 1.484375q-1.140625 1.484375 -1.140625 4.265625zm21.25 -5.296875q-0.578125 -0.09375 -1.234375 -0.09375q-2.5 0 -3.390625 2.125l0 10.5l-2.515625 0l0 -14.796875l2.453125 0l0.046875 1.71875q1.234375 -1.984375 3.515625 -1.984375q0.75 0 1.125 0.1875l0 2.34375zm10.943359 8.609375q0 -1.03125 -0.78125 -1.59375q-0.765625 -0.5625 -2.6875 -0.96875q-1.921875 -0.421875 -3.046875 -0.984375q-1.125 -0.578125 -1.671875 -1.375q-0.53125 -0.796875 -0.53125 -1.890625q0 -1.8125 1.53125 -3.0625q1.53125 -1.265625 3.9375 -1.265625q2.515625 0 4.078125 1.296875q1.5625 1.296875 1.5625 3.3125l-2.546875 0q0 -1.03125 -0.890625 -1.78125q-0.875 -0.75 -2.203125 -0.75q-1.390625 0 -2.171875 0.609375q-0.78125 0.59375 -0.78125 1.5625q0 0.90625 0.71875 1.375q0.734375 0.46875 2.625 0.890625q1.90625 0.421875 3.078125 1.015625q1.171875 0.578125 1.734375 1.40625q0.578125 0.828125 0.578125 2.015625q0 1.984375 -1.59375 3.1875q-1.578125 1.203125 -4.109375 1.203125q-1.78125 0 -3.15625 -0.625q-1.359375 -0.640625 -2.140625 -1.765625q-0.765625 -1.125 -0.765625 -2.4375l2.53125 0q0.0625 1.265625 1.015625 2.015625q0.953125 0.734375 2.515625 0.734375q1.4375 0 2.296875 -0.578125q0.875 -0.578125 0.875 -1.546875z" fill-rule="nonzero"/><path fill="#000000" fill-opacity="0.0" d="m517.4488 121.65092l405.10242 0l0 42.015755l-405.10242 0z" fill-rule="evenodd"/><path fill="#ffffff" d="m698.69684 138.0553l-3.515625 0l0 10.515625l-1.640625 0l0 -10.515625l-3.53125 0l0 -1.390625l8.6875 0l0 1.390625zm8.429199 14.25l-4.5 0l0 -16.921875l4.5 0l0 1.265625l-2.984375 0l0 14.375l2.984375 0l0 1.28125z" fill-rule="nonzero"/><path fill="#ffffff" d="m718.6177 148.57092l-1.578125 0l1.25 -7.421875l0.46875 -2.859375l-0.90625 1.65625l-2.6875 4.75l-1.109375 0l-0.78125 -4.5625l-0.1875 -1.84375l-0.640625 2.984375l-1.65625 7.296875l-1.53125 0l2.96875 -11.90625l1.84375 0l0.703125 4.484375l0.203125 1.515625l0.828125 -1.515625l2.578125 -4.484375l2.046875 0l-1.8125 11.90625z" fill-rule="nonzero"/><path fill="#ffffff" d="m725.125 139.25842q0.28125 0 0.53125 0.125q0.265625 0.109375 0.453125 0.296875q0.1875 0.1875 0.296875 0.453125q0.125 0.25 0.125 0.53125q0 0.296875 -0.125 0.546875q-0.109375 0.25 -0.296875 0.4375q-0.1875 0.1875 -0.453125 0.296875q-0.25 0.109375 -0.53125 0.109375q-0.28125 0 -0.53125 -0.109375q-0.25 -0.109375 -0.453125 -0.296875q-0.1875 -0.1875 -0.296875 -0.4375q-0.109375 -0.25 -0.109375 -0.546875q0 -0.28125 0.109375 -0.53125q0.109375 -0.265625 0.296875 -0.453125q0.203125 -0.1875 0.453125 -0.296875q0.25 -0.125 0.53125 -0.125zm0 6.6875q0.28125 0 0.53125 0.109375q0.265625 0.109375 0.453125 0.3125q0.1875 0.1875 0.296875 0.4375q0.125 0.25 0.125 0.53125q0 0.296875 -0.125 0.546875q-0.109375 0.25 -0.296875 0.453125q-0.1875 0.1875 -0.453125 0.28125q-0.25 0.109375 -0.53125 0.109375q-0.28125 0 -0.53125 -0.109375q-0.25 -0.09375 -0.453125 -0.28125q-0.1875 -0.203125 -0.296875 -0.453125q-0.109375 -0.25 -0.109375 -0.546875q0 -0.28125 0.109375 -0.53125q0.109375 -0.25 0.296875 -0.4375q0.203125 -0.203125 0.453125 -0.3125q0.25 -0.109375 0.53125 -0.109375z" fill-rule="nonzero"/><path fill="#ffffff" d="m738.4604 148.57092l-2.03125 0l-1.984375 -7.421875l-0.546875 -2.390625l-1.1875 6.0l-0.765625 3.8125l-1.515625 0l2.390625 -11.90625l2.015625 0l1.890625 7.03125l0.640625 2.71875l1.28125 -6.375l0.6875 -3.375l1.5 0l-2.375 11.90625z" fill-rule="nonzero"/><path fill="#ffffff" d="m747.62396 152.3053l-4.484375 0l0 -1.28125l2.953125 0l0 -14.375l-2.953125 0l0 -1.265625l4.484375 0l0 16.921875z" fill-rule="nonzero"/><path fill="#000000" fill-opacity="0.0" d="m715.5906 101.249344l0 29.921265" fill-rule="evenodd"/><path stroke="#ffffff" stroke-width="1.0" stroke-linejoin="round" stroke-linecap="butt" d="m715.5906 101.249344l0 23.921257" fill-rule="evenodd"/><path fill="#ffffff" stroke="#ffffff" stroke-width="1.0" stroke-linecap="butt" d="m713.93884 125.1706l1.6517334 4.5380936l1.6517334 -4.5380936z" fill-rule="evenodd"/><path fill="#000000" fill-opacity="0.0" d="m736.3543 101.249344l0 29.921265" fill-rule="evenodd"/><path stroke="#ffffff" stroke-width="1.0" stroke-linejoin="round" stroke-linecap="butt" d="m736.3543 101.249344l0 23.921257" fill-rule="evenodd"/><path fill="#ffffff" stroke="#ffffff" stroke-width="1.0" stroke-linecap="butt" d="m734.7026 125.1706l1.6517334 4.5380936l1.6517334 -4.5380936z" fill-rule="evenodd"/><path fill="#000000" fill-opacity="0.0" d="m736.81854 101.70604l-45.259888 0" fill-rule="evenodd"/><path stroke="#ffffff" stroke-width="1.0" stroke-linejoin="round" stroke-linecap="butt" d="m736.81854 101.70604l-45.259888 0" fill-rule="evenodd"/><path fill="#000000" fill-opacity="0.0" d="m608.44507 83.12336l92.566956 0l0 37.16535l-92.566956 0z" fill-rule="evenodd"/><path fill="#ffffff" d="m630.16815 101.46899q0 1.25 -0.296875 2.171875q-0.296875 0.921875 -0.8125 1.515625q-0.5 0.59375 -1.1875 0.890625q-0.671875 0.28125 -1.421875 0.28125q-0.890625 0 -1.5625 -0.3125q-0.671875 -0.328125 -1.109375 -0.9375q-0.4375 -0.625 -0.65625 -1.5q-0.21875 -0.890625 -0.21875 -2.0q0 -1.25 0.296875 -2.15625q0.296875 -0.921875 0.796875 -1.515625q0.5 -0.609375 1.171875 -0.890625q0.671875 -0.296875 1.421875 -0.296875q0.90625 0 1.578125 0.328125q0.671875 0.328125 1.109375 0.953125q0.453125 0.609375 0.671875 1.484375q0.21875 0.875 0.21875 1.984375zm-1.328125 0.09375q0 -0.828125 -0.125 -1.5q-0.125 -0.6875 -0.40625 -1.1875q-0.28125 -0.5 -0.71875 -0.765625q-0.4375 -0.265625 -1.0625 -0.265625q-0.609375 0 -1.046875 0.296875q-0.421875 0.28125 -0.703125 0.78125q-0.28125 0.484375 -0.421875 1.15625q-0.125 0.671875 -0.125 1.421875q0 0.828125 0.125 1.515625q0.125 0.6875 0.40625 1.171875q0.28125 0.484375 0.703125 0.765625q0.4375 0.265625 1.0625 0.265625q0.59375 0 1.03125 -0.28125q0.4375 -0.296875 0.71875 -0.796875q0.28125 -0.5 0.421875 -1.15625q0.140625 -0.671875 0.140625 -1.421875zm8.995544 0.921875q0 0.953125 -0.265625 1.671875q-0.265625 0.71875 -0.75 1.1875q-0.46875 0.46875 -1.109375 0.703125q-0.640625 0.234375 -1.390625 0.234375q-0.34375 0 -0.6875 -0.03125q-0.34375 -0.03125 -0.6875 -0.125l0 3.015625l-1.25 0l0 -10.125l1.109375 0l0.078125 1.203125q0.546875 -0.734375 1.15625 -1.03125q0.609375 -0.296875 1.3125 -0.296875q0.609375 0 1.078125 0.265625q0.46875 0.25 0.78125 0.71875q0.3125 0.46875 0.46875 1.140625q0.15625 0.65625 0.15625 1.46875zm-1.265625 0.046875q0 -0.5625 -0.09375 -1.03125q-0.078125 -0.46875 -0.265625 -0.796875q-0.171875 -0.34375 -0.453125 -0.53125q-0.265625 -0.1875 -0.65625 -0.1875q-0.234375 0 -0.484375 0.078125q-0.234375 0.0625 -0.5 0.25q-0.265625 0.171875 -0.5625 0.46875q-0.28125 0.28125 -0.609375 0.703125l0 3.484375q0.34375 0.140625 0.71875 0.234375q0.390625 0.078125 0.75 0.078125q1.0 0 1.578125 -0.6875q0.578125 -0.6875 0.578125 -2.0625zm8.97998 3.578125q-0.421875 0.09375 -0.875 0.140625q-0.453125 0.046875 -0.921875 0.046875q-1.34375 0 -2.015625 -0.609375q-0.65625 -0.609375 -0.65625 -1.875l0 -3.75l-2.015625 0l0 -1.046875l2.015625 0l0 -1.96875l1.234375 -0.328125l0 2.296875l3.234375 0l0 1.046875l-3.234375 0l0 3.65625q0 0.765625 0.40625 1.15625q0.421875 0.375 1.21875 0.375q0.34375 0 0.75 -0.046875q0.40625 -0.0625 0.859375 -0.171875l0 1.078125zm4.7142944 -6.0625l-2.125 0l0 -1.03125l3.390625 0l0 6.15625l2.125 0l0 1.03125l-5.75 0l0 -1.03125l2.359375 0l0 -5.125zm0.4375 -4.046875q0.203125 0 0.375 0.078125q0.1875 0.078125 0.3125 0.21875q0.140625 0.125 0.21875 0.3125q0.078125 0.171875 0.078125 0.375q0 0.203125 -0.078125 0.390625q-0.078125 0.171875 -0.21875 0.3125q-0.125 0.125 -0.3125 0.203125q-0.171875 0.078125 -0.375 0.078125q-0.203125 0 -0.390625 -0.078125q-0.171875 -0.078125 -0.3125 -0.203125q-0.125 -0.140625 -0.203125 -0.3125q-0.078125 -0.1875 -0.078125 -0.390625q0 -0.203125 0.078125 -0.375q0.078125 -0.1875 0.203125 -0.3125q0.140625 -0.140625 0.3125 -0.21875q0.1875 -0.078125 0.390625 -0.078125zm11.433105 6.546875q0 0.84375 -0.25 1.546875q-0.234375 0.6875 -0.671875 1.1875q-0.4375 0.5 -1.078125 0.78125q-0.640625 0.265625 -1.453125 0.265625q-0.765625 0 -1.390625 -0.234375q-0.609375 -0.234375 -1.03125 -0.703125q-0.421875 -0.46875 -0.65625 -1.15625q-0.21875 -0.6875 -0.21875 -1.578125q0 -0.84375 0.234375 -1.53125q0.234375 -0.6875 0.671875 -1.1875q0.453125 -0.5 1.09375 -0.765625q0.640625 -0.28125 1.4375 -0.28125q0.78125 0 1.390625 0.25q0.609375 0.234375 1.03125 0.703125q0.4375 0.453125 0.65625 1.140625q0.234375 0.6875 0.234375 1.5625zm-1.28125 0.0625q0 -0.671875 -0.15625 -1.15625q-0.140625 -0.5 -0.421875 -0.828125q-0.265625 -0.34375 -0.65625 -0.5q-0.375 -0.171875 -0.859375 -0.171875q-0.5625 0 -0.96875 0.21875q-0.390625 0.21875 -0.640625 0.578125q-0.25 0.359375 -0.375 0.84375q-0.109375 0.484375 -0.109375 1.015625q0 0.671875 0.140625 1.171875q0.140625 0.5 0.40625 0.828125q0.28125 0.328125 0.671875 0.5q0.390625 0.171875 0.875 0.171875q0.5625 0 0.953125 -0.21875q0.390625 -0.21875 0.640625 -0.578125q0.265625 -0.375 0.375 -0.859375q0.125 -0.484375 0.125 -1.015625zm3.0736694 -3.59375l1.109375 0l0.046875 1.15625q0.328125 -0.359375 0.609375 -0.609375q0.296875 -0.25 0.578125 -0.390625q0.28125 -0.15625 0.578125 -0.21875q0.296875 -0.0625 0.609375 -0.0625q1.109375 0 1.671875 0.65625q0.578125 0.65625 0.578125 1.96875l0 4.6875l-1.25 0l0 -4.59375q0 -0.84375 -0.3125 -1.234375q-0.3125 -0.40625 -0.9375 -0.40625q-0.234375 0 -0.453125 0.0625q-0.21875 0.0625 -0.453125 0.234375q-0.234375 0.171875 -0.515625 0.453125q-0.265625 0.28125 -0.609375 0.71875l0 4.765625l-1.25 0l0 -7.1875zm12.683105 7.1875l-0.03125 -0.96875q-0.59375 0.578125 -1.203125 0.84375q-0.59375 0.25 -1.265625 0.25q-0.609375 0 -1.046875 -0.15625q-0.4375 -0.15625 -0.71875 -0.421875q-0.28125 -0.28125 -0.421875 -0.65625q-0.125 -0.375 -0.125 -0.8125q0 -1.078125 0.796875 -1.6875q0.8125 -0.609375 2.390625 -0.609375l1.484375 0l0 -0.640625q0 -0.625 -0.40625 -1.0q-0.40625 -0.390625 -1.25 -0.390625q-0.609375 0 -1.203125 0.140625q-0.578125 0.125 -1.21875 0.375l0 -1.125q0.25 -0.078125 0.53125 -0.15625q0.296875 -0.09375 0.609375 -0.15625q0.328125 -0.0625 0.671875 -0.09375q0.359375 -0.046875 0.71875 -0.046875q0.640625 0 1.15625 0.140625q0.53125 0.140625 0.890625 0.4375q0.359375 0.296875 0.546875 0.75q0.203125 0.4375 0.203125 1.03125l0 4.953125l-1.109375 0zm-0.140625 -3.265625l-1.578125 0q-0.46875 0 -0.8125 0.09375q-0.328125 0.09375 -0.546875 0.265625q-0.21875 0.171875 -0.328125 0.40625q-0.09375 0.234375 -0.09375 0.546875q0 0.203125 0.0625 0.390625q0.0625 0.1875 0.203125 0.34375q0.15625 0.140625 0.375 0.234375q0.234375 0.078125 0.5625 0.078125q0.4375 0 0.984375 -0.265625q0.5625 -0.265625 1.171875 -0.828125l0 -1.265625zm6.0267944 -5.828125l-2.125 0l0 -1.015625l3.390625 0l0 9.078125l2.125 0l0 1.03125l-5.75 0l0 -1.03125l2.359375 0l0 -8.0625z" fill-rule="nonzero"/></g></svg>