<?xml version="1.0" encoding="UTF-8" standalone="no"?>
<svg
   xmlns:dc="http://purl.org/dc/elements/1.1/"
   xmlns:cc="http://creativecommons.org/ns#"
   xmlns:rdf="http://www.w3.org/1999/02/22-rdf-syntax-ns#"
   xmlns:svg="http://www.w3.org/2000/svg"
   xmlns="http://www.w3.org/2000/svg"
   xmlns:sodipodi="http://sodipodi.sourceforge.net/DTD/sodipodi-0.dtd"
   xmlns:inkscape="http://www.inkscape.org/namespaces/inkscape"
   version="1.1"
   viewBox="0.0 0.0 960.0 540.0"
   fill="none"
   stroke="none"
   stroke-linecap="square"
   stroke-miterlimit="10"
   id="svg81"
   sodipodi:docname="workflow_compile_time.svg"
   inkscape:version="0.92.2 (5c3e80d, 2017-08-06)">
  <metadata
     id="metadata87">
    <rdf:RDF>
      <cc:Work
         rdf:about="">
        <dc:format>image/svg+xml</dc:format>
        <dc:type
           rdf:resource="http://purl.org/dc/dcmitype/StillImage" />
        <dc:title></dc:title>
      </cc:Work>
    </rdf:RDF>
  </metadata>
  <defs
     id="defs85">
    <marker
       inkscape:isstock="true"
       style="overflow:visible;"
       id="marker2539"
       refX="0.0"
       refY="0.0"
       orient="auto"
       inkscape:stockid="Arrow2Mend">
      <path
         transform="scale(0.6) rotate(180) translate(0,0)"
         d="M 8.7185878,4.0337352 L -2.2072895,0.016013256 L 8.7185884,-4.0017078 C 6.9730900,-1.6296469 6.9831476,1.6157441 8.7185878,4.0337352 z "
         style="fill-rule:evenodd;stroke-width:0.625;stroke-linejoin:round;stroke:#c8c8c8;stroke-opacity:1;fill:#c8c8c8;fill-opacity:1"
         id="path2537" />
    </marker>
    <marker
       inkscape:stockid="Arrow2Mend"
       orient="auto"
       refY="0.0"
       refX="0.0"
       id="marker1987"
       style="overflow:visible;"
       inkscape:isstock="true"
       inkscape:collect="always">
      <path
         id="path1985"
         style="fill-rule:evenodd;stroke-width:0.625;stroke-linejoin:round;stroke:#c8c8c8;stroke-opacity:1;fill:#c8c8c8;fill-opacity:1"
         d="M 8.7185878,4.0337352 L -2.2072895,0.016013256 L 8.7185884,-4.0017078 C 6.9730900,-1.6296469 6.9831476,1.6157441 8.7185878,4.0337352 z "
         transform="scale(0.6) rotate(180) translate(0,0)" />
    </marker>
    <marker
       inkscape:isstock="true"
       style="overflow:visible;"
       id="marker1321"
       refX="0.0"
       refY="0.0"
       orient="auto"
       inkscape:stockid="Arrow2Mend"
       inkscape:collect="always">
      <path
         transform="scale(0.6) rotate(180) translate(0,0)"
         d="M 8.7185878,4.0337352 L -2.2072895,0.016013256 L 8.7185884,-4.0017078 C 6.9730900,-1.6296469 6.9831476,1.6157441 8.7185878,4.0337352 z "
         style="fill-rule:evenodd;stroke-width:0.625;stroke-linejoin:round;stroke:#c8c8c8;stroke-opacity:1;fill:#c8c8c8;fill-opacity:1"
         id="path1319" />
    </marker>
    <marker
       inkscape:stockid="Arrow2Mend"
       orient="auto"
       refY="0.0"
       refX="0.0"
       id="Arrow2Mend"
       style="overflow:visible;"
       inkscape:isstock="true"
       inkscape:collect="always">
      <path
         id="path968"
         style="fill-rule:evenodd;stroke-width:0.625;stroke-linejoin:round;stroke:#c8c8c8;stroke-opacity:1;fill:#c8c8c8;fill-opacity:1"
         d="M 8.7185878,4.0337352 L -2.2072895,0.016013256 L 8.7185884,-4.0017078 C 6.9730900,-1.6296469 6.9831476,1.6157441 8.7185878,4.0337352 z "
         transform="scale(0.6) rotate(180) translate(0,0)" />
    </marker>
    <marker
       inkscape:stockid="Arrow1Mend"
       orient="auto"
       refY="0.0"
       refX="0.0"
       id="Arrow1Mend"
       style="overflow:visible;"
       inkscape:isstock="true">
      <path
         id="path950"
         d="M 0.0,0.0 L 5.0,-5.0 L -12.5,0.0 L 5.0,5.0 L 0.0,0.0 z "
         style="fill-rule:evenodd;stroke:#c8c8c8;stroke-width:1pt;stroke-opacity:1;fill:#c8c8c8;fill-opacity:1"
         transform="scale(0.4) rotate(180) translate(10,0)" />
    </marker>
    <marker
       inkscape:stockid="Arrow2Lend"
       orient="auto"
       refY="0.0"
       refX="0.0"
       id="Arrow2Lend"
       style="overflow:visible;"
       inkscape:isstock="true">
      <path
         id="path962"
         style="fill-rule:evenodd;stroke-width:0.625;stroke-linejoin:round;stroke:#c8c8c8;stroke-opacity:1;fill:#c8c8c8;fill-opacity:1"
         d="M 8.7185878,4.0337352 L -2.2072895,0.016013256 L 8.7185884,-4.0017078 C 6.9730900,-1.6296469 6.9831476,1.6157441 8.7185878,4.0337352 z "
         transform="scale(1.1) rotate(180) translate(1,0)" />
    </marker>
    <clipPath
       id="p.0">
      <path
         style="clip-rule:nonzero"
         inkscape:connector-curvature="0"
         d="M 0,0 H 960 V 540 H 0 Z"
         id="path2-9" />
    </clipPath>
  </defs>
  <sodipodi:namedview
     pagecolor="#000000"
     bordercolor="#666666"
     borderopacity="1"
     objecttolerance="10"
     gridtolerance="10"
     guidetolerance="10"
     inkscape:pageopacity="0"
     inkscape:pageshadow="2"
     inkscape:window-width="3840"
     inkscape:window-height="2015"
     id="namedview83"
     showgrid="false"
     inkscape:zoom="1.979899"
     inkscape:cx="445.02425"
     inkscape:cy="287.6271"
     inkscape:window-x="0"
     inkscape:window-y="145"
     inkscape:window-maximized="0"
     inkscape:current-layer="svg81" />
  <clipPath
     id="g131f2da0398_0_459.0">
    <path
       d="m0 0l960.0 0l0 540.0l-960.0 0l0 -540.0z"
       clip-rule="nonzero"
       id="path2" />
  </clipPath>
  <path
     id="path5"
     d="M 0,2e-6 H 960 V 540 H 0 Z"
     inkscape:connector-curvature="0"
     style="fill:#212121;fill-rule:evenodd" />
  <path
     style="fill:#000000;fill-opacity:0;fill-rule:evenodd"
     inkscape:connector-curvature="0"
     id="path7"
     d="M 32.72441,46.721786 H 927.27556 V 106.84777 H 32.72441 Z" />
  <path
     style="fill:#000000;fill-opacity:0;fill-rule:evenodd"
     inkscape:connector-curvature="0"
     id="path11"
     d="m 249.43307,155.71916 h 98.58267 v 36.88188 h -98.58267 z" />
  <path
     style="fill-rule:evenodd;stroke:#ea9999;stroke-width:2;stroke-linecap:butt;stroke-linejoin:round"
     inkscape:connector-curvature="0"
     id="path13"
     d="m 249.43307,155.71916 h 98.58267 v 36.88188 h -98.58267 z" />
  <path
     style="fill:#ea9999;fill-rule:nonzero"
     inkscape:connector-curvature="0"
     id="path15"
     d="m 276.5079,176.26761 q 0,2.25 -1.03125,3.625 -1.01563,1.375 -2.78125,1.375 -1.79688,0 -2.82813,-1.14063 v 4.75 h -1.67187 v -13.65625 h 1.53125 l 0.0781,1.09375 q 1.03125,-1.26562 2.85938,-1.26562 1.78125,0 2.8125,1.34375 1.03125,1.32812 1.03125,3.71875 z m -1.67188,-0.20313 q 0,-1.65625 -0.71875,-2.625 -0.70312,-0.96875 -1.95312,-0.96875 -1.53125,0 -2.29688,1.35938 v 4.70312 q 0.76563,1.35938 2.32813,1.35938 1.20312,0 1.92187,-0.95313 0.71875,-0.96875 0.71875,-2.875 z m 8.5918,-3.32812 q -0.39062,-0.0625 -0.84375,-0.0625 -1.65625,0 -2.25,1.40625 v 7 h -1.67187 v -9.85938 h 1.64062 l 0.0156,1.14063 q 0.82812,-1.3125 2.35937,-1.3125 0.48438,0 0.75,0.125 z m 0.91184,3.32812 q 0,-1.45312 0.5625,-2.60937 0.57812,-1.15625 1.59375,-1.78125 1.01562,-0.625 2.3125,-0.625 2.01562,0 3.25,1.39062 1.25,1.39063 1.25,3.70313 v 0.125 q 0,1.4375 -0.54688,2.57812 -0.54687,1.14063 -1.57812,1.78125 -1.01563,0.64063 -2.35938,0.64063 -2,0 -3.25,-1.39063 -1.23437,-1.40625 -1.23437,-3.70312 z m 1.6875,0.20313 q 0,1.64062 0.76562,2.64062 0.76563,0.98438 2.03125,0.98438 1.29688,0 2.04688,-1 0.75,-1.01563 0.75,-2.82813 0,-1.625 -0.76563,-2.625 -0.76562,-1.01562 -2.04687,-1.01562 -1.25,0 -2.01563,1 -0.76562,0.98437 -0.76562,2.84375 z m 11.68676,-7.4375 v 2.39062 h 1.84375 v 1.3125 h -1.84375 v 6.10938 q 0,0.59375 0.23438,0.89062 0.25,0.29688 0.84375,0.29688 0.29687,0 0.8125,-0.10938 v 1.35938 q -0.67188,0.1875 -1.29688,0.1875 -1.125,0 -1.70312,-0.6875 -0.57813,-0.6875 -0.57813,-1.9375 v -6.10938 h -1.79687 v -1.3125 h 1.79687 v -2.39062 z m 3.17759,7.23437 q 0,-1.45312 0.5625,-2.60937 0.57812,-1.15625 1.59375,-1.78125 1.01562,-0.625 2.3125,-0.625 2.01562,0 3.25,1.39062 1.25,1.39063 1.25,3.70313 v 0.125 q 0,1.4375 -0.54688,2.57812 -0.54687,1.14063 -1.57812,1.78125 -1.01563,0.64063 -2.35938,0.64063 -2,0 -3.25,-1.39063 -1.23437,-1.40625 -1.23437,-3.70312 z m 1.6875,0.20313 q 0,1.64062 0.76562,2.64062 0.76563,0.98438 2.03125,0.98438 1.29688,0 2.04688,-1 0.75,-1.01563 0.75,-2.82813 0,-1.625 -0.76563,-2.625 -0.76562,-1.01562 -2.04687,-1.01562 -1.25,0 -2.01563,1 -0.76562,0.98437 -0.76562,2.84375 z m 9.43676,3.92187 q 0,-0.4375 0.25,-0.71875 0.26563,-0.29687 0.78125,-0.29687 0.53125,0 0.79688,0.29687 0.26562,0.28125 0.26562,0.71875 0,0.42188 -0.26562,0.70313 -0.26563,0.28125 -0.79688,0.28125 -0.51562,0 -0.78125,-0.28125 -0.25,-0.28125 -0.25,-0.70313 z m 13.19129,-3.92187 q 0,2.25 -1.03125,3.625 -1.01563,1.375 -2.78125,1.375 -1.79688,0 -2.82813,-1.14063 v 4.75 h -1.67187 v -13.65625 h 1.53125 l 0.0781,1.09375 q 1.03125,-1.26562 2.85938,-1.26562 1.78125,0 2.8125,1.34375 1.03125,1.32812 1.03125,3.71875 z m -1.67188,-0.20313 q 0,-1.65625 -0.71875,-2.625 -0.70312,-0.96875 -1.95312,-0.96875 -1.53125,0 -2.29688,1.35938 v 4.70312 q 0.76563,1.35938 2.32813,1.35938 1.20312,0 1.92187,-0.95313 0.71875,-0.96875 0.71875,-2.875 z m 5.56055,-4.84375 v 11 q 0,2.84375 -2.57812,2.84375 -0.5625,0 -1.03125,-0.17187 v -1.34375 q 0.29687,0.0781 0.76562,0.0781 0.5625,0 0.85938,-0.3125 0.29687,-0.29687 0.29687,-1.0625 v -11.03125 z m -1.85937,-2.60937 q 0,-0.40625 0.25,-0.6875 0.25,-0.29688 0.73437,-0.29688 0.48438,0 0.73438,0.29688 0.26562,0.28125 0.26562,0.6875 0,0.40625 -0.26562,0.6875 -0.25,0.26562 -0.73438,0.26562 -0.48437,0 -0.73437,-0.26562 -0.25,-0.28125 -0.25,-0.6875 z" />
  <path
     style="fill:#000000;fill-opacity:0;fill-rule:evenodd"
     inkscape:connector-curvature="0"
     id="path17"
     d="m 401.43307,155.71916 h 125.13388 v 36.88188 H 401.43307 Z" />
  <path
     style="fill-rule:evenodd;stroke:#ffffff;stroke-width:2;stroke-linecap:butt;stroke-linejoin:round"
     inkscape:connector-curvature="0"
     id="path19"
     d="m 401.43307,155.71916 h 125.13388 v 36.88188 H 401.43307 Z" />
  <path
     style="fill:#ffffff;fill-rule:nonzero"
     inkscape:connector-curvature="0"
     id="path21"
     d="m 423.7239,176.26761 q 0,2.25 -1.03125,3.625 -1.01562,1.375 -2.78125,1.375 -1.79687,0 -2.82812,-1.14063 v 4.75 h -1.67188 v -13.65625 h 1.53125 l 0.0781,1.09375 q 1.03125,-1.26562 2.85937,-1.26562 1.78125,0 2.8125,1.34375 1.03125,1.32812 1.03125,3.71875 z m -1.67187,-0.20313 q 0,-1.65625 -0.71875,-2.625 -0.70313,-0.96875 -1.95313,-0.96875 -1.53125,0 -2.29687,1.35938 v 4.70312 q 0.76562,1.35938 2.32812,1.35938 1.20313,0 1.92188,-0.95313 0.71875,-0.96875 0.71875,-2.875 z m 8.59182,-3.32812 q -0.39062,-0.0625 -0.84375,-0.0625 -1.65625,0 -2.25,1.40625 v 7 h -1.67187 v -9.85938 h 1.64062 l 0.0156,1.14063 q 0.82812,-1.3125 2.35937,-1.3125 0.48438,0 0.75,0.125 z m 0.91184,3.32812 q 0,-1.45312 0.5625,-2.60937 0.57812,-1.15625 1.59375,-1.78125 1.01562,-0.625 2.3125,-0.625 2.01562,0 3.25,1.39062 1.25,1.39063 1.25,3.70313 v 0.125 q 0,1.4375 -0.54688,2.57812 -0.54687,1.14063 -1.57812,1.78125 -1.01563,0.64063 -2.35938,0.64063 -2,0 -3.25,-1.39063 -1.23437,-1.40625 -1.23437,-3.70312 z m 1.6875,0.20313 q 0,1.64062 0.76562,2.64062 0.76563,0.98438 2.03125,0.98438 1.29688,0 2.04688,-1 0.75,-1.01563 0.75,-2.82813 0,-1.625 -0.76563,-2.625 -0.76562,-1.01562 -2.04687,-1.01562 -1.25,0 -2.01563,1 -0.76562,0.98437 -0.76562,2.84375 z m 11.68676,-7.4375 v 2.39062 h 1.84375 v 1.3125 h -1.84375 v 6.10938 q 0,0.59375 0.23438,0.89062 0.25,0.29688 0.84375,0.29688 0.29687,0 0.8125,-0.10938 v 1.35938 q -0.67188,0.1875 -1.29688,0.1875 -1.125,0 -1.70312,-0.6875 -0.57813,-0.6875 -0.57813,-1.9375 v -6.10938 h -1.79687 v -1.3125 h 1.79687 v -2.39062 z m 3.17759,7.23437 q 0,-1.45312 0.5625,-2.60937 0.57812,-1.15625 1.59375,-1.78125 1.01562,-0.625 2.3125,-0.625 2.01562,0 3.25,1.39062 1.25,1.39063 1.25,3.70313 v 0.125 q 0,1.4375 -0.54688,2.57812 -0.54687,1.14063 -1.57812,1.78125 -1.01563,0.64063 -2.35938,0.64063 -2,0 -3.25,-1.39063 -1.23437,-1.40625 -1.23437,-3.70312 z m 1.6875,0.20313 q 0,1.64062 0.76562,2.64062 0.76563,0.98438 2.03125,0.98438 1.29688,0 2.04688,-1 0.75,-1.01563 0.75,-2.82813 0,-1.625 -0.76563,-2.625 -0.76562,-1.01562 -2.04687,-1.01562 -1.25,0 -2.01563,1 -0.76562,0.98437 -0.76562,2.84375 z m 9.43676,3.92187 q 0,-0.4375 0.25,-0.71875 0.26563,-0.29687 0.78125,-0.29687 0.53125,0 0.79688,0.29687 0.26562,0.28125 0.26562,0.71875 0,0.42188 -0.26562,0.70313 -0.26563,0.28125 -0.79688,0.28125 -0.51562,0 -0.78125,-0.28125 -0.25,-0.28125 -0.25,-0.70313 z m 13.19126,-3.92187 q 0,2.25 -1.03125,3.625 -1.01563,1.375 -2.78125,1.375 -1.79688,0 -2.82813,-1.14063 v 4.75 h -1.67187 v -13.65625 h 1.53125 l 0.0781,1.09375 q 1.03125,-1.26562 2.85938,-1.26562 1.78125,0 2.8125,1.34375 1.03125,1.32812 1.03125,3.71875 z m -1.67188,-0.20313 q 0,-1.65625 -0.71875,-2.625 -0.70312,-0.96875 -1.95312,-0.96875 -1.53125,0 -2.29688,1.35938 v 4.70312 q 0.76563,1.35938 2.32813,1.35938 1.20312,0 1.92187,-0.95313 0.71875,-0.96875 0.71875,-2.875 z m 5.56058,-4.84375 v 11 q 0,2.84375 -2.57812,2.84375 -0.5625,0 -1.03125,-0.17187 v -1.34375 q 0.29687,0.0781 0.76562,0.0781 0.5625,0 0.85938,-0.3125 0.29687,-0.29687 0.29687,-1.0625 v -11.03125 z m -1.85937,-2.60937 q 0,-0.40625 0.25,-0.6875 0.25,-0.29688 0.73437,-0.29688 0.48438,0 0.73438,0.29688 0.26562,0.28125 0.26562,0.6875 0,0.40625 -0.26562,0.6875 -0.25,0.26562 -0.73438,0.26562 -0.48437,0 -0.73437,-0.26562 -0.25,-0.28125 -0.25,-0.6875 z m 4.61077,11.57812 q 0,-0.4375 0.25,-0.71875 0.26563,-0.29687 0.78125,-0.29687 0.53125,0 0.79688,0.29687 0.26562,0.28125 0.26562,0.71875 0,0.42188 -0.26562,0.70313 -0.26563,0.28125 -0.79688,0.28125 -0.51562,0 -0.78125,-0.28125 -0.25,-0.28125 -0.25,-0.70313 z m 6.55066,-7.76562 q 1.125,-1.375 2.92188,-1.375 3.125,0 3.15625,3.51562 v 6.51563 h -1.6875 v -6.51563 q -0.0156,-1.07812 -0.5,-1.57812 -0.46875,-0.51563 -1.48438,-0.51563 -0.8125,0 -1.4375,0.4375 -0.60937,0.4375 -0.96875,1.15625 v 7.01563 h -1.67187 v -14 h 1.67187 z m 16.91614,3.84375 q 0,2.25 -1.03125,3.625 -1.01562,1.375 -2.78125,1.375 -1.79687,0 -2.82812,-1.14063 v 4.75 h -1.67188 v -13.65625 h 1.53125 l 0.0781,1.09375 q 1.03125,-1.26562 2.85937,-1.26562 1.78125,0 2.8125,1.34375 1.03125,1.32812 1.03125,3.71875 z m -1.67187,-0.20313 q 0,-1.65625 -0.71875,-2.625 -0.70313,-0.96875 -1.95313,-0.96875 -1.53125,0 -2.29687,1.35938 v 4.70312 q 0.76562,1.35938 2.32812,1.35938 1.20313,0 1.92188,-0.95313 0.71875,-0.96875 0.71875,-2.875 z m 12.13867,0.20313 q 0,2.25 -1.03125,3.625 -1.01563,1.375 -2.78125,1.375 -1.79688,0 -2.82813,-1.14063 v 4.75 h -1.67187 v -13.65625 h 1.53125 l 0.0781,1.09375 q 1.03125,-1.26562 2.85938,-1.26562 1.78125,0 2.8125,1.34375 1.03125,1.32812 1.03125,3.71875 z m -1.67188,-0.20313 q 0,-1.65625 -0.71875,-2.625 -0.70312,-0.96875 -1.95312,-0.96875 -1.53125,0 -2.29688,1.35938 v 4.70312 q 0.76563,1.35938 2.32813,1.35938 1.20312,0 1.92187,-0.95313 0.71875,-0.96875 0.71875,-2.875 z" />
  <path
     style="fill:#000000;fill-opacity:0;fill-rule:evenodd"
     inkscape:connector-curvature="0"
     id="path23"
     d="m 401.43307,219.71916 h 125.13388 v 36.88188 H 401.43307 Z" />
  <path
     style="fill-rule:evenodd;stroke:#ea9999;stroke-width:2;stroke-linecap:butt;stroke-linejoin:round"
     inkscape:connector-curvature="0"
     id="path25"
     d="m 401.43307,219.71916 h 125.13388 v 36.88188 H 401.43307 Z" />
  <path
     style="fill:#ea9999;fill-rule:nonzero"
     inkscape:connector-curvature="0"
     id="path27"
     d="m 438.01407,245.08011 q -0.14063,-0.29688 -0.23438,-1.03125 -1.17187,1.21875 -2.8125,1.21875 -1.45312,0 -2.39062,-0.82813 -0.92188,-0.82812 -0.92188,-2.09375 0,-1.53125 1.15625,-2.375 1.17188,-0.85937 3.29688,-0.85937 h 1.64062 v -0.78125 q 0,-0.89063 -0.53125,-1.40625 -0.51562,-0.53125 -1.54687,-0.53125 -0.90625,0 -1.51563,0.46875 -0.60937,0.45312 -0.60937,1.09375 h -1.70313 q 0,-0.73438 0.51563,-1.42188 0.53125,-0.6875 1.42187,-1.07812 0.90625,-0.40625 1.98438,-0.40625 1.70312,0 2.67187,0.85937 0.96875,0.84375 1,2.32813 v 4.53125 q 0,1.35937 0.34375,2.17187 v 0.14063 z m -2.79688,-1.28125 q 0.79688,0 1.5,-0.40625 0.71875,-0.42188 1.03125,-1.07813 v -2.01562 h -1.3125 q -3.10937,0 -3.10937,1.8125 0,0.79687 0.53125,1.25 0.53125,0.4375 1.35937,0.4375 z m 15.17924,-3.53125 q 0,2.25 -1.03125,3.625 -1.01563,1.375 -2.78125,1.375 -1.79688,0 -2.82813,-1.14063 v 4.75 h -1.67187 v -13.65625 h 1.53125 l 0.0781,1.09375 q 1.03125,-1.26562 2.85938,-1.26562 1.78125,0 2.8125,1.34375 1.03125,1.32812 1.03125,3.71875 z m -1.67188,-0.20313 q 0,-1.65625 -0.71875,-2.625 -0.70312,-0.96875 -1.95312,-0.96875 -1.53125,0 -2.29688,1.35938 v 4.70312 q 0.76563,1.35938 2.32813,1.35938 1.20312,0 1.92187,-0.95313 0.71875,-0.96875 0.71875,-2.875 z m 12.13867,0.20313 q 0,2.25 -1.03125,3.625 -1.01562,1.375 -2.78125,1.375 -1.79687,0 -2.82812,-1.14063 v 4.75 h -1.67188 v -13.65625 h 1.53125 l 0.0781,1.09375 q 1.03125,-1.26562 2.85937,-1.26562 1.78125,0 2.8125,1.34375 1.03125,1.32812 1.03125,3.71875 z m -1.67187,-0.20313 q 0,-1.65625 -0.71875,-2.625 -0.70313,-0.96875 -1.95313,-0.96875 -1.53125,0 -2.29687,1.35938 v 4.70312 q 0.76562,1.35938 2.32812,1.35938 1.20313,0 1.92188,-0.95313 0.71875,-0.96875 0.71875,-2.875 z m 3.85745,4.125 q 0,-0.4375 0.25,-0.71875 0.26562,-0.29687 0.78125,-0.29687 0.53125,0 0.79687,0.29687 0.26563,0.28125 0.26563,0.71875 0,0.42188 -0.26563,0.70313 -0.26562,0.28125 -0.79687,0.28125 -0.51563,0 -0.78125,-0.28125 -0.25,-0.28125 -0.25,-0.70313 z m 8.83188,-0.29687 q 0.89062,0 1.5625,-0.54688 0.6875,-0.54687 0.75,-1.375 h 1.59375 q -0.0469,0.84375 -0.57813,1.60938 -0.53125,0.76562 -1.4375,1.23437 -0.89062,0.45313 -1.89062,0.45313 -2.01563,0 -3.20313,-1.34375 -1.1875,-1.34375 -1.1875,-3.6875 v -0.28125 q 0,-1.4375 0.51563,-2.54688 0.53125,-1.125 1.51562,-1.73437 1,-0.625 2.34375,-0.625 1.65625,0 2.75,1 1.10938,0.98437 1.17188,2.5625 h -1.59375 q -0.0625,-0.95313 -0.71875,-1.5625 -0.65625,-0.625 -1.60938,-0.625 -1.28125,0 -2,0.92187 -0.70312,0.92188 -0.70312,2.67188 v 0.32812 q 0,1.70313 0.70312,2.625 0.70313,0.92188 2.01563,0.92188 z m 14.12475,-3.625 q 0,2.25 -1.03125,3.625 -1.01562,1.375 -2.78125,1.375 -1.79687,0 -2.82812,-1.14063 v 4.75 h -1.67188 v -13.65625 h 1.53125 l 0.0781,1.09375 q 1.03125,-1.26562 2.85937,-1.26562 1.78125,0 2.8125,1.34375 1.03125,1.32812 1.03125,3.71875 z m -1.67187,-0.20313 q 0,-1.65625 -0.71875,-2.625 -0.70313,-0.96875 -1.95313,-0.96875 -1.53125,0 -2.29687,1.35938 v 4.70312 q 0.76562,1.35938 2.32812,1.35938 1.20313,0 1.92188,-0.95313 0.71875,-0.96875 0.71875,-2.875 z m 12.1387,0.20313 q 0,2.25 -1.03125,3.625 -1.01562,1.375 -2.78125,1.375 -1.79687,0 -2.82812,-1.14063 v 4.75 h -1.67188 v -13.65625 h 1.53125 l 0.0781,1.09375 q 1.03125,-1.26562 2.85937,-1.26562 1.78125,0 2.8125,1.34375 1.03125,1.32812 1.03125,3.71875 z m -1.67187,-0.20313 q 0,-1.65625 -0.71875,-2.625 -0.70313,-0.96875 -1.95313,-0.96875 -1.53125,0 -2.29687,1.35938 v 4.70312 q 0.76562,1.35938 2.32812,1.35938 1.20313,0 1.92188,-0.95313 0.71875,-0.96875 0.71875,-2.875 z" />
  <path
     style="fill:#000000;fill-opacity:0;fill-rule:evenodd"
     inkscape:connector-curvature="0"
     id="path29"
     d="m 327.2021,283.71915 h 199.37012 v 36.8819 H 327.2021 Z" />
  <path
     style="fill-rule:evenodd;stroke:#ffffff;stroke-width:2;stroke-linecap:butt;stroke-linejoin:round"
     inkscape:connector-curvature="0"
     id="path31"
     d="m 327.2021,283.71915 h 199.37012 v 36.8819 H 327.2021 Z" />
  <path
     style="fill:#ffffff;fill-rule:nonzero"
     inkscape:connector-curvature="0"
     id="path33"
     d="m 347.57388,309.0801 h -1.6875 v -14 h 1.6875 z m 4.52744,0 h -1.6875 v -9.85937 h 1.6875 z m -1.82813,-12.46875 q 0,-0.40625 0.25,-0.6875 0.25,-0.29687 0.73438,-0.29687 0.5,0 0.75,0.29687 0.26562,0.28125 0.26562,0.6875 0,0.40625 -0.26562,0.6875 -0.25,0.26563 -0.75,0.26563 -0.48438,0 -0.73438,-0.26563 -0.25,-0.28125 -0.25,-0.6875 z m 12.87116,7.65625 q 0,2.25 -1.04688,3.625 -1.03125,1.375 -2.78125,1.375 -1.875,0 -2.89062,-1.32812 l -0.0781,1.14062 h -1.54687 v -14 h 1.67187 v 5.23438 q 1.03125,-1.26563 2.8125,-1.26563 1.79688,0 2.82813,1.35938 1.03125,1.34375 1.03125,3.70312 z m -1.6875,-0.20312 q 0,-1.71875 -0.67188,-2.65625 -0.65625,-0.9375 -1.90625,-0.9375 -1.67187,0 -2.40625,1.54687 v 4.26563 q 0.78125,1.54687 2.42188,1.54687 1.21875,0 1.89062,-0.9375 0.67188,-0.9375 0.67188,-2.82812 z m 12.12307,0.20312 q 0,2.25 -1.03125,3.625 -1.01562,1.375 -2.78125,1.375 -1.79687,0 -2.82812,-1.14062 v 4.75 h -1.67188 v -13.65625 h 1.53125 l 0.0781,1.09375 q 1.03125,-1.26563 2.85937,-1.26563 1.78125,0 2.8125,1.34375 1.03125,1.32813 1.03125,3.71875 z m -1.67187,-0.20312 q 0,-1.65625 -0.71875,-2.625 -0.70313,-0.96875 -1.95313,-0.96875 -1.53125,0 -2.29687,1.35937 v 4.70313 q 0.76562,1.35937 2.32812,1.35937 1.20313,0 1.92188,-0.95312 0.71875,-0.96875 0.71875,-2.875 z m 8.59179,-3.32813 q -0.39062,-0.0625 -0.84375,-0.0625 -1.65625,0 -2.25,1.40625 v 7 h -1.67187 v -9.85937 h 1.64062 l 0.0156,1.14062 q 0.82812,-1.3125 2.35937,-1.3125 0.48438,0 0.75,0.125 z m 0.91184,3.32813 q 0,-1.45313 0.5625,-2.60938 0.57812,-1.15625 1.59375,-1.78125 1.01562,-0.625 2.3125,-0.625 2.01562,0 3.25,1.39063 1.25,1.39062 1.25,3.70312 v 0.125 q 0,1.4375 -0.54688,2.57813 -0.54687,1.14062 -1.57812,1.78125 -1.01563,0.64062 -2.35938,0.64062 -2,0 -3.25,-1.39062 -1.23437,-1.40625 -1.23437,-3.70313 z m 1.6875,0.20312 q 0,1.64063 0.76562,2.64063 0.76563,0.98437 2.03125,0.98437 1.29688,0 2.04688,-1 0.75,-1.01562 0.75,-2.82812 0,-1.625 -0.76563,-2.625 -0.76562,-1.01563 -2.04687,-1.01563 -1.25,0 -2.01563,1 -0.76562,0.98438 -0.76562,2.84375 z m 11.68677,-7.4375 v 2.39063 h 1.84375 v 1.3125 h -1.84375 v 6.10937 q 0,0.59375 0.23437,0.89063 0.25,0.29687 0.84375,0.29687 0.29688,0 0.8125,-0.10937 v 1.35937 q -0.67187,0.1875 -1.29687,0.1875 -1.125,0 -1.70313,-0.6875 -0.57812,-0.6875 -0.57812,-1.9375 v -6.10937 h -1.79688 v -1.3125 h 1.79688 v -2.39063 z m 3.17758,7.23438 q 0,-1.45313 0.5625,-2.60938 0.57812,-1.15625 1.59375,-1.78125 1.01562,-0.625 2.3125,-0.625 2.01562,0 3.25,1.39063 1.25,1.39062 1.25,3.70312 v 0.125 q 0,1.4375 -0.54688,2.57813 -0.54687,1.14062 -1.57812,1.78125 -1.01563,0.64062 -2.35938,0.64062 -2,0 -3.25,-1.39062 -1.23437,-1.40625 -1.23437,-3.70313 z m 1.6875,0.20312 q 0,1.64063 0.76562,2.64063 0.76563,0.98437 2.03125,0.98437 1.29688,0 2.04688,-1 0.75,-1.01562 0.75,-2.82812 0,-1.625 -0.76563,-2.625 -0.76562,-1.01563 -2.04687,-1.01563 -1.25,0 -2.01563,1 -0.76562,0.98438 -0.76562,2.84375 z m 11.13989,-5.04687 v 11 q 0,2.84375 -2.57812,2.84375 -0.5625,0 -1.03125,-0.17188 v -1.34375 q 0.29687,0.0781 0.76562,0.0781 0.5625,0 0.85938,-0.3125 0.29687,-0.29688 0.29687,-1.0625 V 299.2207 Z m -1.85937,-2.60938 q 0,-0.40625 0.25,-0.6875 0.25,-0.29687 0.73437,-0.29687 0.48438,0 0.73438,0.29687 0.26562,0.28125 0.26562,0.6875 0,0.40625 -0.26562,0.6875 -0.25,0.26563 -0.73438,0.26563 -0.48437,0 -0.73437,-0.26563 -0.25,-0.28125 -0.25,-0.6875 z m 6.40768,12.46875 h -1.6875 v -9.85937 h 1.6875 z m -1.82812,-12.46875 q 0,-0.40625 0.25,-0.6875 0.25,-0.29687 0.73437,-0.29687 0.5,0 0.75,0.29687 0.26563,0.28125 0.26563,0.6875 0,0.40625 -0.26563,0.6875 -0.25,0.26563 -0.75,0.26563 -0.48437,0 -0.73437,-0.26563 -0.25,-0.28125 -0.25,-0.6875 z m 6.80865,0.21875 v 2.39063 h 1.84375 v 1.3125 h -1.84375 v 6.10937 q 0,0.59375 0.23438,0.89063 0.25,0.29687 0.84375,0.29687 0.29687,0 0.8125,-0.10937 v 1.35937 q -0.67188,0.1875 -1.29688,0.1875 -1.125,0 -1.70312,-0.6875 -0.57813,-0.6875 -0.57813,-1.9375 v -6.10937 h -1.79687 v -1.3125 h 1.79687 v -2.39063 z m 8.36902,6.85938 q 0,-2.04688 0.54688,-3.9375 0.54687,-1.90625 1.64062,-3.45313 1.09375,-1.54687 2.26563,-2.1875 l 0.34375,1.10938 q -1.32813,1.03125 -2.1875,3.125 -0.84375,2.09375 -0.92188,4.6875 l -0.0156,0.76562 q 0,3.51563 1.29687,6.10938 0.76563,1.54687 1.82813,2.42187 l -0.34375,1.03125 q -1.20313,-0.67187 -2.3125,-2.26562 -2.14063,-3.09375 -2.14063,-7.40625 z m 6.4704,4.5 q 0,-0.4375 0.25,-0.71875 0.26562,-0.29688 0.78125,-0.29688 0.53125,0 0.79687,0.29688 0.26563,0.28125 0.26563,0.71875 0,0.42187 -0.26563,0.70312 -0.26562,0.28125 -0.79687,0.28125 -0.51563,0 -0.78125,-0.28125 -0.25,-0.28125 -0.25,-0.70312 z m 6.55066,-7.76563 q 1.125,-1.375 2.92187,-1.375 3.125,0 3.15625,3.51563 v 6.51562 h -1.6875 v -6.51562 q -0.0156,-1.07813 -0.5,-1.57813 -0.46875,-0.51562 -1.48437,-0.51562 -0.8125,0 -1.4375,0.4375 -0.60938,0.4375 -0.96875,1.15625 v 7.01562 h -1.67188 v -14 h 1.67188 z m 16.9161,3.84375 q 0,2.25 -1.03125,3.625 -1.01562,1.375 -2.78122,1.375 -1.79687,0 -2.82812,-1.14062 v 4.75 h -1.67188 v -13.65625 h 1.53125 l 0.0781,1.09375 q 1.03125,-1.26563 2.85937,-1.26563 1.78122,0 2.81247,1.34375 1.03125,1.32813 1.03125,3.71875 z m -1.67187,-0.20312 q 0,-1.65625 -0.71875,-2.625 -0.70313,-0.96875 -1.9531,-0.96875 -1.53125,0 -2.29687,1.35937 v 4.70313 q 0.76562,1.35937 2.32812,1.35937 1.2031,0 1.92185,-0.95312 0.71875,-0.96875 0.71875,-2.875 z m 12.1387,0.20312 q 0,2.25 -1.03125,3.625 -1.01562,1.375 -2.78125,1.375 -1.79687,0 -2.82812,-1.14062 v 4.75 h -1.67188 v -13.65625 h 1.53125 l 0.0781,1.09375 q 1.03125,-1.26563 2.85937,-1.26563 1.78125,0 2.8125,1.34375 1.03125,1.32813 1.03125,3.71875 z m -1.67187,-0.20312 q 0,-1.65625 -0.71875,-2.625 -0.70313,-0.96875 -1.95313,-0.96875 -1.53125,0 -2.29687,1.35937 v 4.70313 q 0.76562,1.35937 2.32812,1.35937 1.20313,0 1.92188,-0.95312 0.71875,-0.96875 0.71875,-2.875 z m 4.15429,6.15625 h -1.45312 l 5.54687,-14.40625 h 1.4375 z m 7.39154,-2.03125 q 0,-0.4375 0.25,-0.71875 0.26563,-0.29688 0.78125,-0.29688 0.53125,0 0.79688,0.29688 0.26562,0.28125 0.26562,0.71875 0,0.42187 -0.26562,0.70312 -0.26563,0.28125 -0.79688,0.28125 -0.51562,0 -0.78125,-0.28125 -0.25,-0.28125 -0.25,-0.70312 z m 10.61316,-1.71875 q 0,-0.6875 -0.51562,-1.0625 -0.51563,-0.375 -1.79688,-0.64063 -1.28125,-0.28125 -2.03125,-0.65625 -0.75,-0.39062 -1.10937,-0.92187 -0.35938,-0.53125 -0.35938,-1.26563 0,-1.20312 1.01563,-2.03125 1.03125,-0.84375 2.625,-0.84375 1.67187,0 2.71875,0.85938 1.04687,0.85937 1.04687,2.21875 h -1.6875 q 0,-0.70313 -0.59375,-1.20313 -0.59375,-0.5 -1.48437,-0.5 -0.92188,0 -1.4375,0.40625 -0.51563,0.39063 -0.51563,1.04688 0,0.60937 0.48438,0.92187 0.48437,0.3125 1.73437,0.59375 1.26563,0.28125 2.04688,0.67188 0.78125,0.39062 1.15625,0.9375 0.39062,0.54687 0.39062,1.34375 0,1.32812 -1.0625,2.125 -1.04687,0.79687 -2.73437,0.79687 -1.1875,0 -2.10938,-0.42187 -0.90625,-0.42188 -1.42187,-1.17188 -0.51563,-0.75 -0.51563,-1.625 h 1.6875 q 0.0469,0.84375 0.67188,1.34375 0.64062,0.5 1.6875,0.5 0.95312,0 1.53125,-0.39062 0.57812,-0.39063 0.57812,-1.03125 z m 3.43213,-2.40625 q 0,-1.45313 0.5625,-2.60938 0.57813,-1.15625 1.59375,-1.78125 1.01563,-0.625 2.3125,-0.625 2.01563,0 3.25,1.39063 1.25,1.39062 1.25,3.70312 v 0.125 q 0,1.4375 -0.54687,2.57813 -0.54688,1.14062 -1.57813,1.78125 -1.01562,0.64062 -2.35937,0.64062 -2,0 -3.25,-1.39062 -1.23438,-1.40625 -1.23438,-3.70313 z m 1.6875,0.20312 q 0,1.64063 0.76563,2.64063 0.76562,0.98437 2.03125,0.98437 1.29687,0 2.04687,-1 0.75,-1.01562 0.75,-2.82812 0,-1.625 -0.76562,-2.625 -0.76563,-1.01563 -2.04688,-1.01563 -1.25,0 -2.01562,1 -0.76563,0.98438 -0.76563,2.84375 z m 13.29614,-0.48437 q 0,2.03125 -0.54687,3.90625 -0.53125,1.85937 -1.625,3.42187 -1.09375,1.57813 -2.29688,2.25 l -0.35937,-1.03125 q 1.40625,-1.07812 2.25,-3.32812 0.85937,-2.26563 0.875,-5.03125 v -0.29688 q 0,-1.90625 -0.40625,-3.54687 -0.39063,-1.65625 -1.10938,-2.95313 -0.71875,-1.29687 -1.60937,-2.03125 l 0.35937,-1.03125 q 1.20313,0.67188 2.28125,2.23438 1.09375,1.54687 1.64063,3.42187 0.54687,1.875 0.54687,4.01563 z" />
  <path
     style="fill:#000000;fill-opacity:0;fill-rule:evenodd"
     inkscape:connector-curvature="0"
     id="path35"
     d="m 585.43304,219.71916 h 125.13391 v 36.88188 H 585.43304 Z" />
  <path
     style="fill-rule:evenodd;stroke:#ffffff;stroke-width:2;stroke-linecap:butt;stroke-linejoin:round"
     inkscape:connector-curvature="0"
     id="path37"
     d="m 585.43304,219.71916 h 125.13391 v 36.88188 H 585.43304 Z" />
  <path
     style="fill:#ffffff;fill-rule:nonzero"
     inkscape:connector-curvature="0"
     id="path39"
     d="m 622.9478,245.08011 q -0.14062,-0.29688 -0.23437,-1.03125 -1.17188,1.21875 -2.8125,1.21875 -1.45313,0 -2.39063,-0.82813 -0.92187,-0.82812 -0.92187,-2.09375 0,-1.53125 1.15625,-2.375 1.17187,-0.85937 3.29687,-0.85937 h 1.64063 v -0.78125 q 0,-0.89063 -0.53125,-1.40625 -0.51563,-0.53125 -1.54688,-0.53125 -0.90625,0 -1.51562,0.46875 -0.60938,0.45312 -0.60938,1.09375 h -1.70312 q 0,-0.73438 0.51562,-1.42188 0.53125,-0.6875 1.42188,-1.07812 0.90625,-0.40625 1.98437,-0.40625 1.70313,0 2.67188,0.85937 0.96875,0.84375 1,2.32813 v 4.53125 q 0,1.35937 0.34375,2.17187 v 0.14063 z m -2.79687,-1.28125 q 0.79687,0 1.5,-0.40625 0.71875,-0.42188 1.03125,-1.07813 v -2.01562 h -1.3125 q -3.10938,0 -3.10938,1.8125 0,0.79687 0.53125,1.25 0.53125,0.4375 1.35938,0.4375 z m 15.17926,-3.53125 q 0,2.25 -1.03125,3.625 -1.01563,1.375 -2.78125,1.375 -1.79688,0 -2.82813,-1.14063 v 4.75 h -1.67187 v -13.65625 h 1.53125 l 0.0781,1.09375 q 1.03125,-1.26562 2.85938,-1.26562 1.78125,0 2.8125,1.34375 1.03125,1.32812 1.03125,3.71875 z m -1.67188,-0.20313 q 0,-1.65625 -0.71875,-2.625 -0.70312,-0.96875 -1.95312,-0.96875 -1.53125,0 -2.29688,1.35938 v 4.70312 q 0.76563,1.35938 2.32813,1.35938 1.20312,0 1.92187,-0.95313 0.71875,-0.96875 0.71875,-2.875 z m 12.13867,0.20313 q 0,2.25 -1.03125,3.625 -1.01562,1.375 -2.78125,1.375 -1.79687,0 -2.82812,-1.14063 v 4.75 h -1.67188 v -13.65625 h 1.53125 l 0.0781,1.09375 q 1.03125,-1.26562 2.85937,-1.26562 1.78125,0 2.8125,1.34375 1.03125,1.32812 1.03125,3.71875 z m -1.67187,-0.20313 q 0,-1.65625 -0.71875,-2.625 -0.70313,-0.96875 -1.95313,-0.96875 -1.53125,0 -2.29687,1.35938 v 4.70312 q 0.76562,1.35938 2.32812,1.35938 1.20313,0 1.92188,-0.95313 0.71875,-0.96875 0.71875,-2.875 z m 3.85742,4.125 q 0,-0.4375 0.25,-0.71875 0.26562,-0.29687 0.78125,-0.29687 0.53125,0 0.79687,0.29687 0.26563,0.28125 0.26563,0.71875 0,0.42188 -0.26563,0.70313 -0.26562,0.28125 -0.79687,0.28125 -0.51563,0 -0.78125,-0.28125 -0.25,-0.28125 -0.25,-0.70313 z m 8.95691,1.07813 q -2,0 -3.26563,-1.3125 -1.25,-1.32813 -1.25,-3.53125 v -0.3125 q 0,-1.46875 0.5625,-2.60938 0.5625,-1.15625 1.5625,-1.79687 1.01563,-0.65625 2.1875,-0.65625 1.92188,0 2.98438,1.26562 1.0625,1.26563 1.0625,3.625 v 0.6875 h -6.67188 q 0.0312,1.46875 0.84375,2.375 0.82813,0.89063 2.07813,0.89063 0.89062,0 1.51562,-0.35938 0.625,-0.375 1.07813,-0.96875 l 1.03125,0.79688 q -1.23438,1.90625 -3.71875,1.90625 z m -0.20313,-8.84375 q -1.01562,0 -1.71875,0.75 -0.6875,0.73437 -0.84375,2.07812 h 4.9375 v -0.125 q -0.0781,-1.28125 -0.70312,-1.98437 -0.60938,-0.71875 -1.67188,-0.71875 z m 9.30567,2.39062 2.1875,-3.59375 h 1.96875 l -3.21875,4.875 3.32812,4.98438 h -1.95312 l -2.28125,-3.6875 -2.28125,3.6875 h -1.95313 l 3.32813,-4.98438 -3.23438,-4.875 h 1.95313 z m 9.84509,6.45313 q -2,0 -3.26563,-1.3125 -1.25,-1.32813 -1.25,-3.53125 v -0.3125 q 0,-1.46875 0.5625,-2.60938 0.5625,-1.15625 1.5625,-1.79687 1.01563,-0.65625 2.1875,-0.65625 1.92188,0 2.98438,1.26562 1.0625,1.26563 1.0625,3.625 v 0.6875 h -6.67188 q 0.0312,1.46875 0.84375,2.375 0.82813,0.89063 2.07813,0.89063 0.89062,0 1.51562,-0.35938 0.625,-0.375 1.07813,-0.96875 l 1.03125,0.79688 q -1.23438,1.90625 -3.71875,1.90625 z m -0.20313,-8.84375 q -1.01562,0 -1.71875,0.75 -0.6875,0.73437 -0.84375,2.07812 h 4.9375 v -0.125 q -0.0781,-1.28125 -0.70312,-1.98437 -0.60938,-0.71875 -1.67188,-0.71875 z" />
  <path
     style="fill:#000000;fill-opacity:0;fill-rule:evenodd"
     inkscape:connector-curvature="0"
     id="path41"
     d="M 37.834644,81.97638 H 932.38579 v 60.12598 H 37.834644 Z" />
  <path
     style="fill:#000000;fill-opacity:0;fill-rule:evenodd"
     inkscape:connector-curvature="0"
     id="path45"
     d="m 535.55646,174.05511 39.18109,46.29921" />
  <path
     style="fill:#000000;fill-opacity:0;fill-rule:evenodd"
     inkscape:connector-curvature="0"
     id="path51"
     d="m 535.5302,236.61942 39.84247,0.91339" />
  <path
     style="fill:#000000;fill-opacity:0;fill-rule:evenodd"
     inkscape:connector-curvature="0"
     id="path57"
     d="M 535.55646,300.83466 574.9895,257.05512" />
  <path
     style="fill:#000000;fill-opacity:0;fill-rule:evenodd"
     inkscape:connector-curvature="0"
     id="path63"
     d="m 356.40945,174.3412 38.23621,0.28346" />
  <path
     style="fill:#000000;fill-opacity:0;fill-rule:evenodd"
     inkscape:connector-curvature="0"
     id="path69"
     d="m -29.146982,32.12861 h 0.724409 v 42.015747 h -0.724409 z" />
  <path
     style="fill:#000000;fill-opacity:0;fill-rule:evenodd"
     inkscape:connector-curvature="0"
     id="path71"
     d="m 354.5853,145.16536 h 210.29922 v 32.31496 H 354.5853 Z" />
  <path
     style="fill:#ffffff;fill-rule:nonzero"
     inkscape:connector-curvature="0"
     id="path73"
     d="m 371.36133,163.67097 q 0,0.71875 -0.21875,1.25 -0.20313,0.53125 -0.57813,0.89062 -0.35937,0.34375 -0.85937,0.51563 -0.5,0.17187 -1.07813,0.17187 -0.20312,0 -0.40625,-0.0312 -0.1875,-0.0156 -0.34375,-0.0625 v 2.0625 h -1.28125 v -7.34375 h 1.10938 l 0.0312,0.78125 q 0.15625,-0.20312 0.32812,-0.375 0.17188,-0.17187 0.375,-0.28125 0.20313,-0.125 0.4375,-0.1875 0.23438,-0.0625 0.53125,-0.0625 0.46875,0 0.82813,0.1875 0.35937,0.1875 0.60937,0.54688 0.25,0.34375 0.375,0.84375 0.14063,0.48437 0.14063,1.09375 z m -1.34375,0.0469 q 0,-0.4375 -0.0625,-0.73437 -0.0625,-0.3125 -0.1875,-0.5 -0.10938,-0.20313 -0.28125,-0.29688 -0.15625,-0.0937 -0.375,-0.0937 -0.32813,0 -0.625,0.26563 -0.28125,0.25 -0.60938,0.70312 v 2.3125 q 0.14063,0.0469 0.35938,0.0937 0.23437,0.0312 0.45312,0.0312 0.29688,0 0.54688,-0.125 0.25,-0.125 0.42187,-0.34375 0.17188,-0.23437 0.26563,-0.5625 0.0937,-0.34375 0.0937,-0.75 z m 6.31198,2.53125 q 0,0.59375 -0.17187,1.03125 -0.17188,0.45313 -0.5,0.73438 -0.32813,0.29687 -0.78125,0.4375 -0.45313,0.14062 -1.01563,0.14062 -0.45312,0 -0.85937,-0.0781 -0.39063,-0.0781 -0.64063,-0.1875 v -1.17188 q 0.14063,0.0781 0.32813,0.15625 0.1875,0.0781 0.375,0.14063 0.20312,0.0625 0.40625,0.0937 0.21875,0.0312 0.42187,0.0312 0.57813,0 0.85938,-0.34375 0.28125,-0.32813 0.28125,-0.96875 v -4.15625 h -2.5 v -0.98438 h 3.79687 z m 0.10938,-6.57812 q 0,0.17187 -0.0625,0.32812 -0.0625,0.14063 -0.1875,0.26563 -0.10938,0.10937 -0.26563,0.17187 -0.14062,0.0625 -0.32812,0.0625 -0.17188,0 -0.32813,-0.0625 -0.14062,-0.0625 -0.26562,-0.17187 -0.10938,-0.125 -0.17188,-0.26563 -0.0625,-0.15625 -0.0625,-0.32812 0,-0.17188 0.0625,-0.3125 0.0625,-0.15625 0.17188,-0.26563 0.125,-0.125 0.26562,-0.1875 0.15625,-0.0625 0.32813,-0.0625 0.1875,0 0.32812,0.0625 0.15625,0.0625 0.26563,0.1875 0.125,0.10938 0.1875,0.26563 0.0625,0.14062 0.0625,0.3125 z m 6.15573,6.53125 q -0.375,0.15625 -0.78125,0.21875 -0.39063,0.0781 -0.82813,0.0781 -0.64062,0 -1.14062,-0.17187 -0.48438,-0.17188 -0.84375,-0.5 -0.34375,-0.34375 -0.53125,-0.84375 -0.1875,-0.5 -0.1875,-1.15625 0,-0.64063 0.20312,-1.15625 0.20313,-0.51563 0.5625,-0.875 0.375,-0.35938 0.875,-0.5625 0.51563,-0.20313 1.14063,-0.20313 0.51562,0 0.85937,0.0625 0.35938,0.0469 0.64063,0.14063 v 1.23437 q -0.3125,-0.17187 -0.70313,-0.25 -0.375,-0.0937 -0.70312,-0.0937 -0.35938,0 -0.64063,0.125 -0.28125,0.10938 -0.46875,0.32813 -0.1875,0.21875 -0.29687,0.53125 -0.0937,0.29687 -0.0937,0.65625 0,0.375 0.10937,0.6875 0.10938,0.29687 0.29688,0.51562 0.20312,0.20313 0.48437,0.3125 0.28125,0.10938 0.625,0.10938 0.17188,0 0.34375,-0.0156 0.1875,-0.0312 0.375,-0.0781 0.1875,-0.0469 0.35938,-0.0937 0.1875,-0.0625 0.34375,-0.125 z" />
  <path
     style="fill:#000000;fill-opacity:0;fill-rule:evenodd"
     inkscape:connector-curvature="0"
     id="path75"
     d="m 534.8504,207.79659 h 210.2992 v 32.31496 H 534.8504 Z" />
  <path
     style="fill:#ffffff;fill-rule:nonzero"
     inkscape:connector-curvature="0"
     id="path77"
     d="m 551.58891,226.71783 q 0.14063,0.1875 0.20313,0.39062 0.0625,0.1875 0.0625,0.40625 0,0.4375 -0.15625,0.78125 -0.15625,0.32813 -0.4375,0.5625 -0.26563,0.21875 -0.65625,0.34375 -0.39063,0.10938 -0.85938,0.10938 -0.26562,0 -0.5,-0.0469 -0.23437,-0.0625 -0.35937,-0.125 -0.0937,0.0781 -0.15625,0.1875 -0.0625,0.10938 -0.0625,0.25 0,0.0781 0.0469,0.17188 0.0469,0.0781 0.125,0.14062 0.0781,0.0625 0.1875,0.10938 0.10938,0.0312 0.25,0.0469 l 1.25,0.0469 q 0.42188,0 0.76563,0.10937 0.34375,0.0937 0.57812,0.26563 0.25,0.17187 0.375,0.4375 0.14063,0.25 0.14063,0.5625 0,0.375 -0.17188,0.70312 -0.15625,0.32813 -0.5,0.5625 -0.32812,0.25 -0.82812,0.39063 -0.5,0.14062 -1.15625,0.14062 -0.64063,0 -1.10938,-0.10937 -0.45312,-0.0937 -0.75,-0.28125 -0.29687,-0.17188 -0.4375,-0.4375 -0.14062,-0.25 -0.14062,-0.54688 0,-0.1875 0.0469,-0.34375 0.0469,-0.15625 0.14063,-0.29687 0.0937,-0.14063 0.23437,-0.26563 0.14063,-0.14062 0.34375,-0.28125 -0.26562,-0.14062 -0.40625,-0.375 -0.125,-0.23437 -0.125,-0.48437 0,-0.1875 0.0469,-0.32813 0.0469,-0.15625 0.125,-0.29687 0.0781,-0.14063 0.17187,-0.26563 0.10938,-0.14062 0.21875,-0.26562 -0.20312,-0.1875 -0.32812,-0.45313 -0.125,-0.28125 -0.125,-0.6875 0,-0.45312 0.15625,-0.79687 0.15625,-0.34375 0.4375,-0.57813 0.28125,-0.23437 0.67187,-0.35937 0.39063,-0.125 0.84375,-0.125 0.23438,0 0.45313,0.0312 0.21875,0.0156 0.39062,0.0781 h 1.82813 v 0.92188 z m -2.98437,5.0625 q 0,0.3125 0.29687,0.45312 0.3125,0.14063 0.875,0.14063 0.35938,0 0.60938,-0.0625 0.25,-0.0625 0.40625,-0.17188 0.15625,-0.10937 0.21875,-0.26562 0.0625,-0.14063 0.0625,-0.29688 0,-0.14062 -0.0625,-0.23437 -0.0625,-0.0937 -0.1875,-0.17188 -0.10938,-0.0625 -0.26563,-0.0937 -0.15625,-0.0312 -0.35937,-0.0469 l -1.10938,-0.0156 q -0.15625,0.10938 -0.25,0.20313 -0.0937,0.0937 -0.15625,0.17187 -0.0469,0.0937 -0.0625,0.1875 -0.0156,0.0937 -0.0156,0.20313 z m 0.20312,-4.23438 q 0,0.42188 0.25,0.67188 0.25,0.23437 0.6875,0.23437 0.23438,0 0.40625,-0.0781 0.17188,-0.0781 0.28125,-0.20313 0.125,-0.125 0.17188,-0.29687 0.0625,-0.17188 0.0625,-0.35938 0,-0.45312 -0.25,-0.6875 -0.23438,-0.25 -0.6875,-0.25 -0.21875,0 -0.40625,0.0781 -0.17188,0.0781 -0.28125,0.21875 -0.10938,0.125 -0.17188,0.29687 -0.0625,0.17188 -0.0625,0.375 z m 7.4682,1.21875 v 2.03125 h -1.17187 v -2.03125 h -1.9375 v -1.04687 h 1.9375 v -2.01563 h 1.17187 v 2.01563 h 1.9375 v 1.04687 z m 5.85889,0 v 2.03125 h -1.17188 v -2.03125 h -1.9375 v -1.04687 h 1.9375 v -2.01563 h 1.17188 v 2.01563 h 1.9375 v 1.04687 z" />
  <text
     xml:space="preserve"
     style="font-style:normal;font-weight:normal;font-size:40px;line-height:1.25;font-family:sans-serif;letter-spacing:0px;word-spacing:0px;fill:#000000;fill-opacity:1;stroke:none"
     x="41.69186"
     y="88.376869"
     id="text933"><tspan
       sodipodi:role="line"
       id="tspan931"
       x="41.69186"
       y="88.376869"
       style="font-style:normal;font-variant:normal;font-weight:normal;font-stretch:normal;font-size:34.66666794px;font-family:Roboto;-inkscape-font-specification:'Roboto, Normal';font-variant-ligatures:normal;font-variant-caps:normal;font-variant-numeric:normal;font-feature-settings:normal;text-align:start;writing-mode:lr-tb;text-anchor:start;fill:#ffffff;fill-opacity:1">Workflow</tspan></text>
  <text
     id="text937"
     y="114.37687"
     x="41.69186"
     style="font-style:normal;font-weight:normal;font-size:40px;line-height:1.25;font-family:sans-serif;letter-spacing:0px;word-spacing:0px;fill:#000000;fill-opacity:1;stroke:none"
     xml:space="preserve"><tspan
       style="font-style:normal;font-variant:normal;font-weight:normal;font-stretch:normal;font-size:21.33333397px;font-family:Roboto;-inkscape-font-specification:'Roboto, Normal';font-variant-ligatures:normal;font-variant-caps:normal;font-variant-numeric:normal;font-feature-settings:normal;text-align:start;writing-mode:lr-tb;text-anchor:start;fill:#c8c8c8;fill-opacity:1"
       y="114.37687"
       x="41.69186"
       id="tspan935"
       sodipodi:role="line">Compile-time</tspan></text>
  <path
     style="fill:#c8c8c8;fill-opacity:1;stroke:#c8c8c8;stroke-width:1px;stroke-linecap:butt;stroke-linejoin:miter;stroke-opacity:1;marker-end:url(#Arrow2Mend)"
     d="m 353.7528,174.16971 h 40.89286"
     id="path939"
     inkscape:connector-curvature="0" />
  <path
     inkscape:connector-curvature="0"
     id="path1317"
     d="m 534.47981,238.16971 h 40.89286"
     style="fill:#c8c8c8;fill-opacity:1;stroke:#c8c8c8;stroke-width:1px;stroke-linecap:butt;stroke-linejoin:miter;stroke-opacity:1;marker-end:url(#marker1321)" />
  <path
     style="fill:#c8c8c8;fill-opacity:1;stroke:#c8c8c8;stroke-width:1px;stroke-linecap:butt;stroke-linejoin:miter;stroke-opacity:1;marker-end:url(#marker1987)"
     d="m 534.47981,174.78264 40.89286,44.69925"
     id="path1983"
     inkscape:connector-curvature="0"
     sodipodi:nodetypes="cc" />
  <path
     sodipodi:nodetypes="cc"
     inkscape:connector-curvature="0"
     id="path2535"
     d="m 534.47981,300.1046 40.89286,-44.69925"
     style="fill:#c8c8c8;fill-opacity:1;stroke:#c8c8c8;stroke-width:1px;stroke-linecap:butt;stroke-linejoin:miter;stroke-opacity:1;marker-end:url(#marker2539)" />
  <path
     id="path7-6"
     d="M -277.06489,198.63361 H 617.48626 V 311.64147 H -277.06489 Z"
     inkscape:connector-curvature="0"
     style="fill:#000000;fill-opacity:0;fill-rule:evenodd" />
</svg>
